<?xml version="1.0" encoding="UTF-8" standalone="no"?>
<!-- Created with Inkscape (http://www.inkscape.org/) -->

<svg
   version="1.1"
   id="svg13671"
   width="500"
   height="500"
   viewBox="0 0 500 500"
   sodipodi:docname="f_fu_image.svg"
   inkscape:version="1.2.2 (b0a8486541, 2022-12-01)"
   xmlns:inkscape="http://www.inkscape.org/namespaces/inkscape"
   xmlns:sodipodi="http://sodipodi.sourceforge.net/DTD/sodipodi-0.dtd"
   xmlns="http://www.w3.org/2000/svg"
   xmlns:svg="http://www.w3.org/2000/svg">
  <defs
     id="defs13675" />
  <sodipodi:namedview
     id="namedview13673"
     pagecolor="#ffffff"
     bordercolor="#666666"
     borderopacity="1.0"
     inkscape:showpageshadow="2"
     inkscape:pageopacity="0.0"
     inkscape:pagecheckerboard="0"
     inkscape:deskcolor="#d1d1d1"
     showgrid="false"
     inkscape:zoom="1.1097923"
     inkscape:cx="102.72192"
     inkscape:cy="289.24331"
     inkscape:window-width="1854"
     inkscape:window-height="1011"
     inkscape:window-x="66"
     inkscape:window-y="32"
     inkscape:window-maximized="1"
     inkscape:current-layer="g13677" />
  <g
     inkscape:groupmode="layer"
     inkscape:label="Image"
     id="g13677">
    <path
       d="M 254.48657,2.0801351 52.692328,102.67381 0.72401733,500.90273 500.72401,502.08013 452.57269,105.01457 Z"
       style="fill:#f0b53a;fill-opacity:1;fill-rule:evenodd;stroke:none;stroke-width:0.101199;stroke-linecap:butt;stroke-linejoin:miter;stroke-dasharray:none;stroke-opacity:1"
       id="path10532" />
  </g>
  <g
     inkscape:groupmode="layer"
     id="layer2"
     inkscape:label="trace">
    <path
       style="fill:#000001;fill-opacity:1;fill-rule:evenodd;stroke:none;stroke-width:1px;stroke-linecap:butt;stroke-linejoin:miter;stroke-opacity:1"
       d="m 54.11231,276.21125 7.675156,-10.87928 c 0,0 24.423417,-10.14274 36.935057,-14.39102 21.313007,-7.23677 64.835927,-18.86368 64.835927,-18.86368 l 29.87186,-6.54702 55.46081,-8.16426 -0.45771,53.21407 5.70157,35.26654 -10.23834,9.32916 -11.81532,-0.4449 -2.54651,-7.58469 -16.17685,-5.1486 -10.84882,-5.05968 -7.10057,1.88226 -14.58142,-5.32424 -15.02124,0.89144 -12.67646,-5.4142 -24.41141,-0.45054 -8.60829,-5.08992 -12.61318,1.35161 -18.468027,-4.88506 -20.362366,1.20219 z"
       id="path15862"
       sodipodi:nodetypes="ccscccccccccccccccccccc" />
    <path
       style="opacity:1;fill:#000000;fill-opacity:1;fill-rule:evenodd;stroke:none;stroke-width:1px;stroke-linecap:butt;stroke-linejoin:miter;stroke-opacity:1"
       d="m 410.31142,272.58284 c 2.23546,-0.10567 4.343,1.47329 6.03927,2.93313 3.44802,2.9674 4.93312,7.65884 7.72465,11.25074 2.25874,2.90636 5.77604,4.94407 7.27855,8.30432 4.50678,10.07904 3.21905,21.86635 4.00736,32.87893 0.97398,13.60642 1.96879,27.31597 0.88539,40.91413 -0.88516,11.11008 -3.1887,22.10878 -6.00725,32.89177 -3.51658,13.45345 0.30844,38.25614 -13.54513,39.45611 -5.91047,0.51196 -8.58724,-15.58907 -8.58724,-15.58907 v -13.61327 l -4.30751,0.24022 -5.50899,-14.59695 -7.13464,-0.71681 -5.50596,-22.96562 -8.12516,4.75363 -3.90335,-22.10434 -7.97272,-1.21675 -9.10855,-7.9384 -12.92857,-4.68808 19.40612,-41.42016 c 0,0 28.86133,-27.90239 47.29373,-28.77353 z"
       id="path15864"
       sodipodi:nodetypes="ssssssssccccccccccccs" />
    <path
       style="opacity:1;fill:#000000;fill-opacity:1;fill-rule:evenodd;stroke:#000000;stroke-width:1px;stroke-linecap:butt;stroke-linejoin:miter;stroke-opacity:1"
       d="m 245.30511,315.33289 -13.49122,-1.75848 c 0,0 -10.83048,11.66679 -15.68253,17.96237 -5.93113,7.69575 -11.89965,15.49403 -16.35008,24.13101 -2.35159,4.56372 -3.64766,9.59896 -5.36917,14.43567 -1.03518,2.90841 -0.99086,6.40895 -2.98186,8.76827 -21.89771,25.94881 -89.55021,48.54287 -89.55021,48.54287 l 71.00994,-20.25326 -49.48539,40.40954 53.88279,-20.56498 41.75585,-18.64447 12.96018,-3.65364 z"
       id="path15868"
       sodipodi:nodetypes="ccssssccccccc" />
    <path
       style="fill:#ffffff;fill-opacity:1;fill-rule:evenodd;stroke:none;stroke-width:1px;stroke-linecap:butt;stroke-linejoin:miter;stroke-opacity:1"
       d="m 355.09154,312.85406 31.09372,-10.83552 5.23257,-6.63533 13.23308,3.34575 8.42855,-0.89547 11.17471,1.66396 -1.40702,-8.70448 -16.38536,-15.01553 -23.32192,10.27286 z"
       id="path1272" />
    <path
       style="opacity:1;fill:#ffffff;fill-opacity:1;fill-rule:evenodd;stroke:none;stroke-width:1px;stroke-linecap:butt;stroke-linejoin:miter;stroke-opacity:1"
       d="m 193.27664,234.14074 4.37358,-5.46713 c 0,0 23.85763,-7.06747 36.0679,-6.56927 8.63199,0.3522 17.18743,3.09312 25.0349,6.70594 5.38127,2.47741 14.65632,10.05239 14.65632,10.05239 l 14.71201,26.70151 1.78586,1.15589 0.44493,20.82259 66.88653,24.86295 -15.0223,35.09128 -22.26399,19.22055 -27.61437,18.1817 c 0,0 -23.86187,11.2421 -36.42528,15.10782 -7.63335,2.3488 -15.47768,4.95235 -23.46358,4.85022 -5.0361,-0.0643 -10.32256,-0.96938 -14.71372,-3.43602 -4.32484,-2.42939 -8.82995,-5.91947 -10.42972,-10.61486 -2.38929,-7.01272 2.65737,-22.06627 2.65737,-22.06627 l 16.82828,-29.13317 25.39203,-34.24963 -6.82096,-36.76708 -21.86661,-9.7356 -19.84931,-14.14341 z"
       id="path15866"
       sodipodi:nodetypes="ccssccccccccssssccccccc" />
    <path
       style="fill:#000000;fill-opacity:1;fill-rule:evenodd;stroke:#000000;stroke-width:1px;stroke-linecap:butt;stroke-linejoin:miter;stroke-opacity:1"
       d="m 288.24402,246.63233 c 0,0 12.071,-20.93175 20.41621,-29.49533 7.75319,-7.95606 16.46272,-15.87556 26.90396,-19.6692 7.75007,-2.81587 16.64124,-3.44333 24.68395,-1.62457 6.25812,1.41522 11.72023,5.47817 16.79412,9.40535 3.76609,2.91495 7.37893,6.26632 9.88348,10.31697 2.92361,4.72839 5.01091,10.17692 5.61849,15.70291 0.53769,4.89044 -0.82247,9.83057 -1.83414,14.64534 -1.84367,8.77457 -13.88301,19.30223 -7.68193,25.77823 3.60662,3.7665 9.97375,-4.22285 15.1725,-3.81375 4.60323,0.36225 12.56516,0.82255 12.74091,5.43666 0.38627,10.13972 -27.00869,14.04276 -27.00869,14.04276 0,0 -9.80377,7.89105 -14.75555,12.82828 -6.18466,6.16648 -14.17219,12.02506 -22.87319,12.77875 -3.07086,0.26598 -5.64555,-3.05535 -8.72788,-3.05474 -4.45598,9.1e-4 -8.17483,4.78794 -12.61569,4.42116 -2.03396,-0.16799 -3.3768,-2.49612 -5.36762,-2.94547 -2.5315,-0.57138 -5.69903,2.01116 -7.77253,0.45052 -1.93045,-1.45295 0.23812,-5.501 -1.59948,-7.06971 -1.76038,-1.50274 -4.9212,0.70089 -6.92905,-0.45053 -2.5878,-1.48403 -3.15834,-5.0769 -5.01145,-7.41462 -2.23778,-2.82301 -5.87688,-4.64198 -7.3363,-7.93545 -1.91735,-4.32681 -1.04039,-9.41471 -1.24871,-14.14271 -0.11126,-2.52741 0.73279,-5.16821 0,-7.58963 -3.71891,-12.28856 -21.35689,-32.05366 -21.35689,-32.05366 l -9.52438,-6.85468 -29.12075,-8.15286 27.32903,-1.47024 11.16278,4.08247 z"
       id="path15860"
       sodipodi:nodetypes="csssssssssscsssssssssssscccccc" />
    <ellipse
       style="opacity:1;fill:#ffffff;fill-opacity:1;stroke:#000000;stroke-width:0;stroke-linecap:round;stroke-dasharray:none;stroke-opacity:1"
       id="path15922"
       cx="347.84366"
       cy="219.28246"
       rx="5.4987988"
       ry="5.5788665" />
    <ellipse
       style="opacity:0.985075;fill:#ffffff;fill-opacity:1;stroke:#000000;stroke-width:0;stroke-linecap:round;stroke-dasharray:none;stroke-opacity:1"
       id="path15928"
       cx="385.48846"
       cy="222.18312"
       rx="4.554955"
       ry="4.9771872" />
    <path
       style="fill:#7e7e7e;fill-opacity:1;fill-rule:evenodd;stroke:#7e7e7e;stroke-width:0;stroke-linecap:butt;stroke-linejoin:miter;stroke-dasharray:none;stroke-opacity:1"
       d="m 355.87844,237.57984 -22.29132,-6.89538 -18.34615,0.22035 -5.85672,7.35464 -2.00333,27.1202 7.73055,19.6184 12.13747,11.97935 9.96948,-1.76072 11.34501,3.14816 14.34515,-6.451 14.09228,-2.25268 7.22149,-19.19641 8.57756,-32.1851 -32.82532,-2.78148 z"
       id="path19414" />
    <path
       style="fill:#7e7e7e;fill-opacity:1;fill-rule:evenodd;stroke:none;stroke-width:0;stroke-linecap:butt;stroke-linejoin:miter;stroke-dasharray:none;stroke-opacity:1"
       d="m 363.49217,233.7881 c -3.8536,-2.03385 -4.3226,-7.93391 -4.45593,-12.28926 -0.069,-2.2546 0.26349,-4.9526 1.91322,-6.49093 1.53215,-1.42864 4.04287,-1.37885 6.13756,-1.3516 2.48281,0.0322 5.32141,0.20327 7.2306,1.79085 1.78722,1.48614 2.08649,4.16564 2.88296,6.34933 0.93677,2.56834 3.57876,5.52869 2.21346,7.89721 -2.73672,4.74767 -11.07547,6.65224 -15.92187,4.0944 z"
       id="path19416"
       sodipodi:nodetypes="ssssssss" />
    <path
       style="fill:#ffffff;fill-opacity:1;fill-rule:evenodd;stroke:#000000;stroke-width:0.3;stroke-linecap:butt;stroke-linejoin:miter;stroke-dasharray:none;stroke-opacity:1"
       d="m 408.86176,239.27054 -36.74648,-13.53331 -10.83676,8.57015 z"
       id="path19418"
       sodipodi:nodetypes="cccc" />
    <path
       style="fill:#7b7b7b;fill-opacity:1;fill-rule:evenodd;stroke:none;stroke-width:1px;stroke-linecap:butt;stroke-linejoin:miter;stroke-opacity:1"
       d="m 254.58822,363.2999 c -0.14537,6.89244 -12.29443,16.63094 -12.29443,16.63094 l 0.45054,-8.83686 -10.72286,3.92592 2.67012,-4.79957 c 0,0 -5.60313,2.20728 -6.8841,0.30075 -1.80134,-2.68105 1.92316,-6.37233 4.05052,-8.80283 2.32818,-2.66001 5.6556,-4.41939 8.96204,-5.66988 2.18051,-0.82466 4.70024,-1.86383 6.90546,-1.10769 2.02921,0.69579 3.05512,3.02625 4.39188,4.70399 0.91645,1.15022 2.50184,2.1849 2.47083,3.65523 z"
       id="path2087"
       sodipodi:nodetypes="sccccssssss" />
    <path
       style="fill:#7b7b7b;fill-opacity:1;fill-rule:evenodd;stroke:none;stroke-width:1px;stroke-linecap:butt;stroke-linejoin:miter;stroke-opacity:1"
       d="m 282.82652,374.77471 c 3.25455,0.60072 7.24391,2.65142 8.00601,5.87202 0.81156,3.42964 -2.49189,6.7641 -4.81894,9.41096 -2.41012,2.74134 -9.02747,6.19814 -9.02747,6.19814 l 1.71844,-8.73635 -9.34865,6.39863 3.33258,-7.54817 -9.06985,1.30653 c 0,0 3.15844,-7.13973 6.17903,-9.32701 3.64755,-2.64129 8.6002,-4.39217 13.02885,-3.57475 z"
       id="path436"
       sodipodi:nodetypes="ssscccccss" />
  </g>
</svg>
