<?xml version="1.0" encoding="UTF-8" standalone="no"?>
<svg
   id="svg41"
   width="500"
   height="500"
   version="1.1"
   viewBox="0 0 500 500"
   sodipodi:docname="f_fu_m.svg"
   inkscape:version="1.2.2 (b0a8486541, 2022-12-01)"
   xmlns:inkscape="http://www.inkscape.org/namespaces/inkscape"
   xmlns:sodipodi="http://sodipodi.sourceforge.net/DTD/sodipodi-0.dtd"
   xmlns="http://www.w3.org/2000/svg"
   xmlns:svg="http://www.w3.org/2000/svg"
   xmlns:rdf="http://www.w3.org/1999/02/22-rdf-syntax-ns#"
   xmlns:cc="http://creativecommons.org/ns#"
   xmlns:dc="http://purl.org/dc/elements/1.1/">
  <sodipodi:namedview
     id="namedview24224"
     pagecolor="#ffffff"
     bordercolor="#666666"
     borderopacity="1.0"
     inkscape:showpageshadow="2"
     inkscape:pageopacity="0.0"
     inkscape:pagecheckerboard="0"
     inkscape:deskcolor="#d1d1d1"
     showgrid="false"
     inkscape:zoom="0.472"
     inkscape:cx="141.94915"
     inkscape:cy="250"
     inkscape:window-width="1854"
     inkscape:window-height="1011"
     inkscape:window-x="66"
     inkscape:window-y="32"
     inkscape:window-maximized="1"
     inkscape:current-layer="svg41" />
  <metadata
     id="metadata47">
    <rdf:RDF>
      <cc:Work
         rdf:about="">
        <dc:format>image/svg+xml</dc:format>
        <dc:type
           rdf:resource="http://purl.org/dc/dcmitype/StillImage" />
        <dc:title />
      </cc:Work>
    </rdf:RDF>
  </metadata>
  <defs
     id="defs45" />
  <path
     d="M 257.42627,3.076354 55.632023,103.67003 3.6637126,501.89895 503.66371,503.07635 455.51239,106.01079 Z"
     style="fill:#f0b53a;fill-opacity:1;fill-rule:evenodd;stroke:none;stroke-width:0.101199;stroke-linecap:butt;stroke-linejoin:miter;stroke-dasharray:none;stroke-opacity:1"
     id="path17654" />
  <g
     id="text39"
     style="font-style:normal;font-variant:normal;font-weight:normal;font-stretch:normal;font-size:512.34356689px;font-family:'衡山毛筆フォント OTF';-inkscape-font-specification:'衡山毛筆フォント OTF, Normal';font-variant-ligatures:normal;font-variant-caps:normal;font-variant-numeric:normal;font-feature-settings:normal;text-align:start;writing-mode:lr-tb;text-anchor:start;white-space:pre;fill:#333333;stroke-width:23.28866386"
     transform="scale(0.99716994,1.0028381)"
     aria-label="燕">
    <path
       id="path7"
       style="font-style:normal;font-variant:normal;font-weight:normal;font-stretch:normal;font-size:512.34356689px;font-family:'衡山毛筆フォント OTF';-inkscape-font-specification:'衡山毛筆フォント OTF, Normal';font-variant-ligatures:normal;font-variant-caps:normal;font-variant-numeric:normal;font-feature-settings:normal;text-align:start;writing-mode:lr-tb;text-anchor:start;white-space:pre;fill:#333333;stroke-width:23.28866386"
       d="m 88.604769,478.64156 9.734528,-3.58641 c 1.537031,-3.07406 2.561723,-6.14812 3.074063,-9.22218 0.51234,-3.07406 1.53703,-5.63578 2.56172,-7.68516 -0.51235,-6.66046 -1.02469,-12.29624 -1.02469,-18.95671 0,-6.66046 -1.02469,-12.29624 -4.611093,-16.90734 -4.611092,-1.53703 -8.70984,-3.07406 -13.320932,-5.12343 -4.098749,-1.53703 -8.709841,-4.09875 -12.80859,-6.66047 h -1.024687 v 4.09875 h -3.074061 l 2.049374,13.83328 -1.024687,4.61109 v 3.07406 h 1.024687 v 7.68515 l 2.049374,1.02469 c 4.098749,4.61109 7.17281,10.24687 9.222185,15.88265 1.024687,6.14812 3.586405,11.7839 7.172809,17.41968 z m 93.246531,-3.58641 4.61109,-3.07406 -0.51234,-5.12344 0.51234,-11.7839 c 0.51234,-7.17281 0,-12.80859 -2.56172,-18.44437 -2.56171,-5.63578 -5.63578,-10.75921 -8.19749,-16.39499 -7.68516,-5.12344 -14.85797,-8.70984 -22.54312,-10.75921 -7.68515,-2.04938 -15.37031,-5.12344 -22.54312,-10.24688 h -2.04937 l 2.04937,10.24688 -3.07406,5.12343 1.02469,2.56172 4.09875,2.04937 v 4.09875 l 4.09874,1.02469 3.07407,5.12343 h 1.53703 c 0.51234,8.1975 3.5864,15.37031 8.19749,21.51843 4.6111,6.66047 9.22219,13.83328 13.32094,20.49375 l 4.09875,-1.02469 c 1.53703,1.02469 4.09874,1.53703 7.17281,2.04937 3.07406,0.51235 5.63577,1.02469 7.68515,2.56172 z m 226.45586,-3.07406 h 1.02468 l 2.04938,-2.56172 6.14812,1.02469 h 2.04937 l 1.02469,-2.04937 3.58641,-1.53704 c 0.51234,-5.63577 -1.02469,-10.24687 -4.09875,-14.85796 -3.58641,-4.61109 -6.14813,-8.70984 -6.66047,-13.32093 l -5.12343,-3.58641 c 0,-2.04937 -0.51235,-4.09875 -1.53704,-5.63578 -1.02468,-1.53703 -2.04937,-2.56171 -3.5864,-3.5864 -9.22218,-6.66047 -18.95671,-12.80859 -29.20358,-17.41968 -10.75922,-4.09875 -21.00609,-8.1975 -31.7653,-12.80859 h -3.07407 l 1.02469,1.53703 v 2.04937 l -2.04937,-1.02468 h -0.51235 l 1.53703,5.12343 2.04938,0.51235 c 2.04937,2.04937 3.5864,4.61109 5.12343,7.17281 1.53703,2.56171 2.04938,5.12343 2.04938,8.19749 l 10.24687,8.1975 h 1.53703 v 2.04937 c 6.66047,7.68516 12.80859,14.85797 18.95671,21.00609 5.12344,7.17281 11.7839,13.83328 19.46906,19.9814 l 3.5864,-2.04937 6.14813,2.04937 z m -126.54887,-9.73453 2.04938,-1.02468 5.12343,1.02468 6.66047,-2.56172 c 0.51234,-6.14812 -0.51234,-11.7839 -3.07406,-16.39499 -3.07406,-4.61109 -6.14812,-9.73453 -9.73453,-14.85796 l -3.07406,-1.02469 v -1.53703 c -6.66047,-5.63578 -13.83328,-10.75922 -21.51843,-14.85796 -7.17281,-3.58641 -15.88265,-6.66047 -24.59249,-8.70984 h -1.02469 l 4.09875,3.07406 v 2.04937 H 233.598 l 2.04937,3.07406 c 1.53703,2.04938 2.56172,4.61109 3.07406,7.17281 0.51235,3.07406 2.04938,5.12344 4.09875,6.66047 5.63578,5.63578 9.73453,11.7839 14.34562,17.93202 4.09875,6.14813 9.22219,11.78391 15.37031,17.41968 l 2.04937,-1.02468 6.14813,1.02468 z M 71.185088,377.70987 c 9.734528,-5.63578 19.469056,-11.7839 30.228272,-17.41968 10.24687,-6.14812 19.9814,-13.32093 29.20358,-20.49374 2.04938,-1.53703 3.58641,-3.07406 4.61109,-5.63578 1.02469,-2.04937 2.04938,-4.09875 2.56172,-5.63578 l 3.07406,-1.02469 h 0.51235 l -4.6111,1.53704 h -2.04937 l 3.07406,-6.66047 7.68516,-4.09875 -13.83328,6.14812 h -4.09875 v -2.04937 h -1.02469 v -1.02469 h -1.02468 l 4.09874,-10.75921 4.09875,-2.56172 c 3.58641,-7.68515 5.63578,-14.85796 6.66047,-23.05546 0.51234,-7.68516 1.02469,-15.88265 1.02469,-25.10484 0.51234,-3.5864 0.51234,-6.66046 -0.51235,-9.73452 -1.53703,-3.07407 -3.07406,-6.14813 -5.12343,-8.70984 l -22.54312,-4.09875 h -10.24687 v 2.04937 h 2.04937 v 3.07406 h 1.02469 l -2.04937,4.09875 1.02468,5.63578 h 2.04938 l 3.07406,3.07406 -1.02469,5.63578 -37.913422,18.44437 -14.857963,-3.07406 h -1.024687 l 3.074061,7.68515 7.685154,3.07406 v 1.53703 c 2.561717,1.53703 5.123435,3.07406 6.660466,4.6111 1.537031,2.04937 3.074061,4.09874 4.611092,5.63577 l 3.586405,2.56172 29.203584,-10.75921 5.12343,1.02468 c -0.51234,7.17281 -2.04937,13.83328 -4.09874,20.49375 -2.04938,6.66046 -4.6111,12.29624 -8.1975,18.95671 -5.123436,4.61109 -11.271559,8.1975 -17.419682,10.24687 -6.148123,2.56172 -12.808589,5.12344 -19.469055,7.68515 h -3.074062 l -5.635779,-6.66046 -4.611092,4.09875 0.512343,10.24687 4.098749,2.04937 c 2.049374,2.04938 3.586405,3.58641 5.123436,5.63578 1.53703,2.56172 2.561717,5.12344 2.561717,8.1975 z m 315.091292,-43.5492 c 11.7839,-0.51234 22.03078,-2.56172 32.27765,-6.14812 9.73452,-3.07406 19.9814,-5.63578 29.20358,-8.1975 v -2.56172 h 4.09875 l -1.02469,-9.73452 -6.66047,-6.14813 c -1.53703,-1.02468 -4.09874,-1.53703 -6.66046,-1.53703 -2.56172,0 -5.12344,-1.02469 -7.17281,-2.56172 l -8.70984,0.51235 c -3.58641,0 -6.14812,-0.51235 -8.1975,-2.56172 -2.04937,-1.53703 -4.09875,-3.07406 -6.66047,-4.61109 h -0.51234 l 0.51234,3.07406 v 4.09875 h -2.56171 l -2.04938,9.73453 -22.54311,4.09874 c -7.68516,-0.51234 -15.37031,-1.53703 -22.03078,-2.56171 -7.68515,-1.02469 -14.85796,-3.07407 -21.00608,-5.63578 -2.56172,-5.12344 -5.12344,-9.73453 -8.1975,-14.34562 -3.07406,-4.6111 -4.61109,-10.24687 -4.61109,-15.37031 l 2.04937,-27.15421 -1.02469,-6.14812 1.02469,-2.04938 c 0,-5.12343 -0.51234,-11.27155 -1.53703,-17.41968 -1.02469,-6.14812 -3.07406,-10.75921 -6.14812,-15.3703 l -9.73453,-6.14813 v -1.53703 l -3.07406,-1.02469 -1.02469,-3.07406 h -1.02469 l 2.04938,4.09875 v 2.56172 h -3.07406 l 2.04937,18.95671 -1.02469,22.03078 -3.07406,-1.02469 -2.04937,-3.07406 c -4.61109,-2.04938 -9.73453,-3.58641 -15.37031,-5.12344 -5.63578,-1.53703 -10.75921,-3.5864 -15.37031,-6.66047 -9.73452,-0.51234 -18.44436,0.51235 -26.64186,3.07407 -8.70984,2.56171 -16.395,4.61109 -25.10484,5.63578 l -10.75921,-4.09875 -8.1975,3.5864 3.07406,2.56172 9.22219,24.59249 4.61109,-1.02469 3.07406,-4.61109 19.9814,-6.14812 h 5.12344 l 4.09874,10.24687 c 0,3.5864 0,7.68515 0,11.27156 0,4.09875 -0.51234,7.17281 -2.04937,10.24687 l 4.09875,13.32093 v 3.07406 l -8.1975,-3.5864 c -4.09875,1.02469 -8.1975,2.04937 -11.27156,3.07406 -3.5864,1.02469 -7.68515,1.53703 -11.7839,2.04937 l -7.68515,-1.02468 c -0.51235,-4.09875 -1.53703,-8.1975 -3.07406,-12.80859 -1.53703,-4.61109 -3.58641,-8.1975 -7.17281,-11.27156 -4.09875,-4.09875 -8.70984,-7.17281 -12.80859,-8.70984 -4.61109,-1.53703 -10.24687,-2.04938 -16.395,-2.04938 -2.56171,0 -4.61109,0 -7.17281,0 -2.56171,0 -4.61109,1.02469 -6.66046,3.07407 l -6.66047,-3.07407 h -2.04937 c 0,3.07407 1.53703,5.63578 4.09874,7.68516 2.56172,2.04937 4.09875,4.61109 4.6111,6.66046 l 5.12343,3.07407 c 4.61109,3.5864 8.70984,7.68515 12.29625,11.27155 3.5864,3.58641 6.66046,7.68516 8.70984,12.80859 l 13.83327,10.75922 1.02469,3.5864 3.07406,1.02469 5.12344,-1.02469 5.63578,1.02469 c 8.1975,-1.02469 16.39499,-2.56172 23.5678,-4.61109 7.68516,-1.53703 15.88265,-4.09875 23.56781,-6.66047 v -1.02468 l 4.09875,0.51234 h 2.56171 c 2.04938,-9.73453 5.63578,-18.95671 10.75922,-28.1789 5.12343,-8.19749 11.27156,-16.90734 18.95671,-25.10483 l 6.14812,-3.58641 5.12344,2.04938 -1.02469,4.09875 c 2.04938,10.24687 4.09875,19.98139 6.66047,29.71592 2.56172,9.73453 6.14812,18.95671 12.80859,27.66656 7.68515,9.22218 17.41968,13.83327 29.20358,14.34562 11.27156,0.51234 22.54312,2.56171 33.30233,5.12343 z m -48.16029,-80.43794 c 10.24687,0.51234 19.46905,-0.51234 27.66655,-3.07406 8.70984,-2.56172 16.39499,-6.14812 24.59249,-11.27156 l -5.12344,-9.22218 c -3.5864,-1.53703 -6.14812,-3.07406 -9.73452,-5.63578 -3.58641,-2.04938 -7.17281,-3.07406 -10.75922,-3.07406 l -8.1975,2.04937 v 7.68515 l -7.1728,7.17281 -11.78391,11.78391 -3.07406,1.02468 z M 198.75864,205.56244 c 8.19749,-2.04938 15.88265,-3.58641 24.59249,-4.6111 8.19749,-1.02468 15.88265,-3.5864 23.5678,-8.19749 2.04938,-1.02469 3.58641,-2.04938 4.09875,-4.6111 0.51234,-2.04937 1.53703,-4.61109 1.53703,-7.17281 l 12.80859,-4.61109 9.22218,-29.20358 16.395,-1.02469 53.28373,3.58641 9.22218,-1.02469 5.12344,1.02469 9.22218,-1.02469 1.02469,-1.53703 3.58641,-1.02469 v -5.63578 l -5.63578,-2.04937 -2.04938,-4.09875 -2.56172,-1.02469 -1.02468,-3.5864 c -9.22219,-0.51235 -18.44437,-1.53703 -26.64187,-3.07406 -9.22218,-1.02469 -17.93202,-2.56172 -26.12952,-5.12344 v -1.02469 h -4.09875 l -1.02469,-3.07406 c -2.56171,0 -4.61109,1.02469 -6.14812,2.56172 -1.53703,1.53703 -3.5864,2.04937 -6.14812,1.53703 l -5.12344,5.12344 h -6.14812 l 4.09875,-5.12344 1.02469,-6.66047 -3.07407,-7.68515 -14.34562,-6.66047 c -3.5864,-1.537026 -6.14812,-3.074057 -8.70984,-5.123431 -2.56171,-1.537031 -5.63578,-4.098749 -7.68515,-6.660467 h -1.02469 l -1.02468,6.148123 -6.14813,1.024687 c 0,3.586405 1.02469,7.172808 3.07406,9.734528 2.04938,2.04937 3.58641,5.12344 4.09875,8.1975 l -2.04937,16.39499 -35.35171,5.12344 h -9.73453 l -3.07406,-12.80859 c -6.14812,-2.04938 -11.27155,-4.61109 -16.39499,-7.17281 -5.12344,-2.56172 -10.24687,-4.61109 -15.88265,-7.17281 h -6.66047 c 2.56172,3.07406 4.09875,6.66046 4.61109,10.24687 0.51235,3.5864 1.02469,7.68515 1.53704,11.27156 l 5.63577,1.53703 3.07407,6.14812 v 2.04938 l -28.69124,7.68515 -4.6111,-1.02469 -2.56171,1.02469 -21.00609,-1.02469 -3.58641,2.56172 c -3.5864,1.53703 -7.1728,3.07406 -10.75921,4.09875 -3.07406,1.02469 -7.17281,1.02469 -10.759215,0.51234 v 2.04938 c 3.586405,2.56171 7.685155,4.61109 11.271555,6.66046 4.09875,2.56172 8.1975,4.09875 11.78391,5.63578 l 1.02468,3.07406 11.7839,5.63578 c 8.70985,-2.04937 16.395,-5.12343 24.5925,-8.70984 7.68515,-3.5864 15.88265,-6.66046 24.59249,-8.70984 l 4.09875,1.02469 5.63578,10.75921 v 4.61109 h -2.04938 c 0,5.63578 2.04938,11.27156 5.12344,15.37031 3.5864,4.61109 5.63578,9.73453 7.17281,14.85797 z m 34.83936,-26.64187 -14.85796,3.07406 c -3.58641,0.51234 -6.66047,0.51234 -8.70985,-1.02469 -2.56171,-1.53703 -5.63577,-2.56171 -8.19749,-3.5864 0.51234,-4.61109 1.02468,-8.70984 1.02468,-13.83328 0,-4.61109 1.02469,-9.22218 3.07407,-13.83327 4.09874,-0.51235 9.22218,-1.02469 13.83327,-1.53703 4.61109,0 8.1975,-1.53703 11.27156,-4.09875 l 15.88265,2.04937 c 0,5.12344 -1.02469,10.75922 -2.56172,16.395 -1.53703,5.63578 -5.12343,10.24687 -10.75921,13.83327 z" />
  </g>
</svg>
