<?xml version="1.0" encoding="UTF-8" standalone="no"?>
<svg
   id="svg198"
   width="500"
   height="500"
   version="1.1"
   viewBox="0 0 500 500"
   sodipodi:docname="f_gi_m.svg"
   inkscape:version="1.2.2 (b0a8486541, 2022-12-01)"
   xmlns:inkscape="http://www.inkscape.org/namespaces/inkscape"
   xmlns:sodipodi="http://sodipodi.sourceforge.net/DTD/sodipodi-0.dtd"
   xmlns="http://www.w3.org/2000/svg"
   xmlns:svg="http://www.w3.org/2000/svg"
   xmlns:rdf="http://www.w3.org/1999/02/22-rdf-syntax-ns#"
   xmlns:cc="http://creativecommons.org/ns#"
   xmlns:dc="http://purl.org/dc/elements/1.1/">
  <sodipodi:namedview
     id="namedview25138"
     pagecolor="#ffffff"
     bordercolor="#666666"
     borderopacity="1.0"
     inkscape:showpageshadow="2"
     inkscape:pageopacity="0.0"
     inkscape:pagecheckerboard="0"
     inkscape:deskcolor="#d1d1d1"
     showgrid="false"
     inkscape:zoom="0.472"
     inkscape:cx="141.94915"
     inkscape:cy="250"
     inkscape:window-width="1854"
     inkscape:window-height="1011"
     inkscape:window-x="66"
     inkscape:window-y="32"
     inkscape:window-maximized="1"
     inkscape:current-layer="svg198" />
  <metadata
     id="metadata204">
    <rdf:RDF>
      <cc:Work
         rdf:about="">
        <dc:format>image/svg+xml</dc:format>
        <dc:type
           rdf:resource="http://purl.org/dc/dcmitype/StillImage" />
        <dc:title />
      </cc:Work>
    </rdf:RDF>
  </metadata>
  <defs
     id="defs202" />
  <path
     style="fill:#f0b53a;fill-opacity:1;fill-rule:evenodd;stroke:none;stroke-width:0.0989916;stroke-linecap:butt;stroke-linejoin:miter;stroke-dasharray:none;stroke-opacity:1"
     d="M 254.26801,2.8522527 49.065594,130.90013 27.973081,428.33528 l 83.306029,72.15198 386.66648,2.36499 -46.85743,-372.54519 z"
     id="path2763"
     sodipodi:nodetypes="ccccccc" />
  <g
     id="text196"
     style="font-style:normal;font-variant:normal;font-weight:normal;font-stretch:normal;font-size:441.20593262px;font-family:'衡山毛筆フォント OTF';-inkscape-font-specification:'衡山毛筆フォント OTF, Normal';font-variant-ligatures:normal;font-variant-caps:normal;font-variant-numeric:normal;font-feature-settings:normal;text-align:start;writing-mode:lr-tb;text-anchor:start;white-space:pre;fill:#333333;stroke-width:20.05508995"
     transform="scale(0.99716994,1.0028381)"
     aria-label="鶉">
    <path
       id="path7"
       style="font-style:normal;font-variant:normal;font-weight:normal;font-stretch:normal;font-size:441.20593262px;font-family:'衡山毛筆フォント OTF';-inkscape-font-specification:'衡山毛筆フォント OTF, Normal';font-variant-ligatures:normal;font-variant-caps:normal;font-variant-numeric:normal;font-feature-settings:normal;text-align:start;writing-mode:lr-tb;text-anchor:start;white-space:pre;fill:#333333;stroke-width:20.05508995"
       d="m 350.50366,478.64158 8.82412,-7.94171 c 12.35376,-26.47235 22.06029,-53.38592 28.67838,-82.0643 7.0593,-27.79597 14.5598,-56.47436 23.82512,-84.27033 h 5.29447 l 8.38292,-8.82412 -1.76483,-6.61809 -30.44321,-6.61809 c -16.76582,3.08844 -33.97285,6.61809 -50.73868,9.70653 -17.20703,3.52965 -33.53165,8.38291 -49.85627,14.11859 -1.76482,0 -4.41206,0 -7.0593,0 -3.08844,0 -5.73567,-1.32362 -7.9417,-3.52965 l 1.76482,-15.44221 c 20.29547,-2.20603 39.70854,-7.5005 57.79798,-15.001 18.08944,-7.05929 37.5025,-12.35376 57.79798,-15.88341 v -4.41206 l -17.20704,-3.52965 -32.20803,7.94171 h -8.38291 v -6.17688 h 3.52965 l 3.08844,-12.35377 8.38291,-6.61809 v -3.52965 l 5.29447,-1.32361 v -3.52965 l -10.58894,-1.76483 c 0,-8.82411 0.44121,-17.64823 1.76482,-25.58994 1.32362,-7.94171 3.52965,-15.44221 7.0593,-22.0603 l 11.91256,-1.32361 3.52965,-5.29448 -1.76483,-11.91256 -32.20803,-7.05929 -5.29447,1.76482 v 3.52965 l -35.73768,3.52965 25.58994,11.91256 -1.76482,22.0603 -22.0603,7.05929 v 2.64724 l -20.29547,5.29447 -11.91256,-1.76483 h -3.52965 l 15.44221,12.35377 c 7.9417,0.88241 15.001,0.44121 22.06029,-0.88241 7.0593,-1.76483 12.79498,-4.41206 18.53065,-7.94171 h 5.29448 l -3.52965,22.0603 -27.35477,8.38291 -13.23618,-3.08844 -5.29447,-10.14774 -33.97286,-18.97185 h -1.76482 c 1.32362,2.20603 2.20603,4.41206 2.64724,6.17688 0.4412,1.76482 2.20603,3.08844 4.41205,4.41206 l 11.91257,19.85427 c 1.32361,7.05929 1.32361,13.67738 0,19.41306 -1.32362,6.61809 -2.64724,12.79497 -4.85327,18.08944 1.32362,6.61809 2.20603,13.23618 3.97085,19.41306 1.76483,6.61809 4.41206,12.35377 7.5005,17.64824 l 8.82412,1.76482 1.32362,5.29447 12.35377,7.0593 c 13.23617,-1.32362 26.03115,-3.52965 38.38491,-7.0593 11.47136,-3.52964 23.38392,-7.5005 36.17889,-11.47135 h 11.47135 c 0,3.97085 0,8.38291 0,13.23618 0,4.85326 -1.76482,7.9417 -4.85326,10.14773 l 4.85326,3.52965 v 6.61809 h 3.52965 c -2.20603,12.35377 -4.41206,25.14874 -6.61809,38.38492 -2.20603,12.79497 -5.29447,25.58994 -10.14773,38.38491 l -16.76583,6.17689 c 2.20603,8.38291 3.08844,16.32462 3.08844,25.14873 0,7.94171 1.32362,16.32462 4.85327,24.70754 z m -187.95373,-30.44321 10.14774,-4.85327 c 2.20603,-13.67738 4.41206,-27.35476 6.17688,-41.03215 1.32362,-13.23618 3.08844,-26.91356 5.29447,-40.14974 l 5.29447,1.32362 10.14774,20.29547 13.67738,11.91256 3.52965,8.38292 h 3.08844 l 12.35377,23.82512 7.9417,-1.76483 1.76483,-11.47135 -9.70653,-29.11959 c -5.73568,-6.61809 -12.79498,-11.03015 -20.29548,-12.79497 -8.38291,-1.76483 -15.4422,-5.29448 -22.5015,-10.58895 -3.52965,-4.85326 -4.85326,-10.58894 -3.52965,-17.20703 1.32362,-6.61809 0,-12.35376 -3.52964,-17.20703 l 15.88341,-26.91356 v -1.76483 l -15.88341,10.14774 -21.61909,-3.08844 c 5.29447,-10.58894 13.23617,-20.29547 22.9427,-30.44321 9.70653,-9.26532 18.53065,-17.64824 27.79598,-23.82512 v -5.29447 c -5.73568,-1.32362 -11.47136,-1.76483 -17.64824,-1.76483 -6.61809,0 -11.91256,-1.76482 -15.88341,-5.29447 v -3.52964 l 7.9417,-3.08845 c 2.20603,-6.61808 5.73568,-12.79497 10.58895,-17.64823 4.41206,-5.29447 7.5005,-10.58895 9.70653,-16.32462 l 10.58894,-6.61809 3.08844,-7.0593 v -3.52964 l -23.38391,-3.08845 -15.44221,3.08845 v 3.52964 c -5.73568,1.32362 -11.47136,3.08845 -17.20703,6.17689 -5.29447,3.08844 -11.91256,4.41206 -18.53065,4.41206 v 1.76482 l 13.67738,6.17688 10.14774,-1.76482 h 5.29447 l -7.0593,24.26633 -13.67738,8.38291 h -11.47135 l -1.76483,-5.29447 c -5.73567,-4.41206 -12.35376,-7.5005 -18.53065,-9.26533 -7.05929,-1.76482 -14.11859,-3.97085 -20.73667,-7.5005 h -3.529652 l 10.147732,15.001 h 3.52965 v 3.52965 h 3.52965 v 3.52965 l 3.52965,1.32362 20.29547,32.64924 -30.88442,20.29547 -8.382909,-1.76483 h -6.618089 v 3.08845 l -6.618089,1.76482 4.853266,7.05929 4.853265,13.23618 c 11.912556,-2.20603 21.619086,-6.61809 30.002006,-14.11859 8.38291,-7.5005 18.08944,-13.23618 27.79597,-17.64823 h 3.52965 l -3.52965,11.47135 h -3.08844 l -5.29447,10.58894 -8.38291,3.52965 1.76482,4.41206 c 4.85326,2.20603 8.38291,4.85326 11.91256,7.94171 3.08844,3.08844 6.61809,6.17688 10.14774,9.26532 v 5.29447 l -59.5628,50.73868 -10.147741,-3.08844 h -3.088442 v 3.08844 H 84.45648 l 1.764823,5.29447 -5.294471,10.14774 v 3.08844 h 1.764824 l 3.529647,10.58895 c 8.824119,0 17.207027,-2.64724 24.266327,-7.94171 7.5005,-4.85327 15.001,-10.14774 21.17788,-15.88342 5.73568,-5.73567 11.91256,-11.47135 18.08945,-18.08944 6.17688,-6.17688 10.58894,-12.35376 12.79497,-19.41306 h 4.85326 c 0,13.23618 0,27.35477 0,40.59095 0,13.67738 -4.41205,25.14873 -13.67738,33.97285 z m 98.38892,-47.65024 6.61809,-3.08844 1.76483,-8.38292 -7.0593,-25.58994 -20.29547,-8.38291 h -9.70653 v 1.76482 c 6.17688,5.73568 11.91256,12.35377 15.88341,21.17789 3.97085,8.38291 7.94171,16.32462 12.79497,22.5015 z m 35.29648,-13.23618 8.82412,-3.52965 1.76482,-11.91256 c 0,-3.52964 -0.44121,-7.05929 -0.88241,-10.14773 -0.44121,-3.08844 -2.20603,-6.17689 -4.41206,-8.38292 l -25.58995,-10.14773 h -6.61808 l 10.14773,17.20703 h 3.52965 z m 30.88441,-18.97185 4.85327,-3.52965 5.29447,-13.23618 -1.76482,-11.91256 c -3.52965,-2.20603 -7.0593,-3.08844 -11.03015,-3.08844 -3.97086,0 -7.94171,-1.76482 -11.03015,-5.29447 h -3.52965 c 4.41206,4.41206 7.5005,9.70653 9.26533,15.88341 1.76482,6.61809 4.41206,12.35377 7.9417,17.64824 z m 1.32362,-106.77184 -32.20803,10.14774 -18.53065,-3.08844 v -16.76583 c 7.9417,0.88241 15.001,0.88241 22.06029,-0.88241 7.0593,-1.76483 12.79498,-3.97086 18.53065,-6.17689 h 7.0593 l 3.08844,11.47136 z m -164.56981,-3.52965 -11.91256,7.0593 h -3.08844 l 1.76482,-13.23618 23.82512,-12.35377 h 4.85327 l -4.85327,13.67739 z m -56.03316,-65.73968 c 21.61909,-4.85327 42.35577,-11.91256 62.21004,-21.61909 19.85427,-9.70653 40.14974,-17.64824 60.44521,-24.70753 l 4.85327,-9.70653 -1.76483,-8.82412 -47.65024,1.76482 v 3.52965 l -4.85326,3.52965 v 5.29447 l -54.70954,21.61909 -15.001,-4.85327 c -3.52965,-1.32362 -5.29447,-0.4412 -6.61809,1.76483 -1.32362,1.76482 -2.20603,4.41206 -3.52964,6.61808 -3.529652,2.20603 -7.0593,4.41206 -11.030153,6.61809 -3.529648,2.20603 -7.941707,3.08845 -12.794972,1.76483 v 1.76482 z m 153.09846,-33.97286 c 10.14774,-7.05929 20.29548,-13.67738 30.44321,-19.85426 10.14774,-6.17689 20.73668,-11.47136 32.20804,-15.88342 l -1.76483,-11.91256 -27.35477,-8.38291 -16.76582,3.52965 10.58894,6.61809 -1.76482,10.14773 -20.73668,25.14874 -4.85327,8.82412 z m -66.18089,-35.73768 8.38292,-3.52965 v -15.001 h -3.52965 v -3.52965 c -7.94171,-4.85326 -16.32462,-8.382908 -24.26633,-10.588938 -8.82412,-2.206029 -17.20703,-3.970853 -26.47235,-6.176883 h -3.52965 l 1.76482,4.853266 c 5.73568,0.882412 11.03015,3.529647 15.88342,8.382912 5.29447,4.853263 10.58894,8.824123 16.32462,11.912563 l 1.76482,8.38291 z" />
  </g>
</svg>
