<?xml version="1.0" encoding="UTF-8" standalone="no"?>
<svg
   id="svg117"
   version="1.1"
   width="500"
   height="500"
   viewBox="0 0 500 500"
   sodipodi:docname="f_ka_m.svg"
   inkscape:version="1.2.2 (b0a8486541, 2022-12-01)"
   xmlns:inkscape="http://www.inkscape.org/namespaces/inkscape"
   xmlns:sodipodi="http://sodipodi.sourceforge.net/DTD/sodipodi-0.dtd"
   xmlns="http://www.w3.org/2000/svg"
   xmlns:svg="http://www.w3.org/2000/svg"
   xmlns:rdf="http://www.w3.org/1999/02/22-rdf-syntax-ns#"
   xmlns:cc="http://creativecommons.org/ns#"
   xmlns:dc="http://purl.org/dc/elements/1.1/">
  <sodipodi:namedview
     id="namedview26797"
     pagecolor="#ffffff"
     bordercolor="#666666"
     borderopacity="1.0"
     inkscape:showpageshadow="2"
     inkscape:pageopacity="0.0"
     inkscape:pagecheckerboard="0"
     inkscape:deskcolor="#d1d1d1"
     showgrid="false"
     inkscape:zoom="0.472"
     inkscape:cx="141.94915"
     inkscape:cy="250"
     inkscape:window-width="1854"
     inkscape:window-height="1011"
     inkscape:window-x="66"
     inkscape:window-y="32"
     inkscape:window-maximized="1"
     inkscape:current-layer="svg117" />
  <metadata
     id="metadata123">
    <rdf:RDF>
      <cc:Work
         rdf:about="">
        <dc:format>image/svg+xml</dc:format>
        <dc:type
           rdf:resource="http://purl.org/dc/dcmitype/StillImage" />
        <dc:title />
      </cc:Work>
    </rdf:RDF>
  </metadata>
  <defs
     id="defs121" />
  <path
     d="M 255.42627,1.076354 53.632023,101.67003 1.6637126,499.89895 501.66371,501.07635 453.51239,104.01079 Z"
     style="fill:#f0b53a;fill-opacity:1;fill-rule:evenodd;stroke:none;stroke-width:0.101199;stroke-linecap:butt;stroke-linejoin:miter;stroke-dasharray:none;stroke-opacity:1"
     id="path27650" />
  <g
     id="text115"
     style="font-style:normal;font-variant:normal;font-weight:normal;font-stretch:normal;font-size:489.24816895px;font-family:'衡山毛筆フォント OTF';-inkscape-font-specification:'衡山毛筆フォント OTF, Normal';font-variant-ligatures:normal;font-variant-caps:normal;font-variant-numeric:normal;font-feature-settings:normal;text-align:start;writing-mode:lr-tb;text-anchor:start;white-space:pre;fill:#333333;stroke-width:22.23885918"
     transform="scale(0.99716994,1.0028381)"
     aria-label="鶴">
    <path
       id="path7"
       style="font-style:normal;font-variant:normal;font-weight:normal;font-stretch:normal;font-size:489.24816895px;font-family:'衡山毛筆フォント OTF';-inkscape-font-specification:'衡山毛筆フォント OTF, Normal';font-variant-ligatures:normal;font-variant-caps:normal;font-variant-numeric:normal;font-feature-settings:normal;text-align:start;writing-mode:lr-tb;text-anchor:start;white-space:pre;fill:#333333;stroke-width:22.23885918"
       d="m 364.38043,478.64156 1.46775,-1.957 3.42474,1.957 9.29571,-1.957 c 6.36023,-27.3979 14.67745,-54.79579 25.93015,-81.70444 10.27421,-25.93015 21.52692,-52.34956 33.26888,-77.79046 l 17.12368,-6.36023 -1.46774,-7.82797 c -8.31722,-5.38173 -17.61293,-9.78496 -27.3979,-12.72045 -10.27421,-3.42474 -20.05917,-6.36023 -29.84414,-9.78496 h -6.36022 l -1.46775,6.36022 c -18.59143,2.44624 -36.20436,4.89248 -53.81729,8.31722 -17.61294,3.91399 -34.73662,9.29572 -51.86031,15.65594 l -6.36023,-1.46774 h -6.84947 l 1.95699,4.40323 19.08068,14.67745 c 13.2097,-4.40324 25.93015,-8.80647 39.13985,-13.2097 13.69895,-4.40324 26.90865,-6.36023 40.6076,-7.33873 h 16.14519 l 4.89248,14.1882 c -1.46774,20.05918 -2.93549,40.11835 -6.36022,59.68828 -3.42474,19.56992 -10.27421,38.16135 -20.54843,55.28504 l -9.78496,3.42474 c 0,7.33872 0.9785,14.18819 2.44624,20.54842 1.46775,6.36023 3.91399,12.72045 7.33872,17.61294 z m -244.62408,-14.1882 9.29571,-4.89248 1.46775,-33.75813 h 9.78496 v 3.42474 c 13.69895,-5.38173 28.86564,-8.80647 45.50008,-9.29572 16.63444,-0.48924 32.77963,-0.97849 48.92482,-1.95699 v -3.42474 l 9.78496,-2.93548 h 4.40324 l 14.67744,30.33338 5.87098,4.89248 h 16.63444 l 1.46774,-3.42473 c 0,-7.33873 -0.48925,-14.1882 -1.46774,-21.52692 -1.46775,-7.33873 -3.42474,-13.69895 -6.84948,-20.05918 -7.33872,-8.80646 -15.16669,-14.18819 -24.46241,-17.61293 -8.80646,-3.42474 -18.10218,-6.84948 -26.90865,-11.25271 h -2.93548 l 17.61293,20.54842 v 5.38173 l -4.89248,-3.42473 -4.89248,1.46774 h -5.87098 l -27.3979,-4.89248 h -9.78496 v 3.42474 h -7.82797 l 1.46774,-36.69362 25.44091,-11.2527 -4.40324,-1.46775 v -4.89248 l -19.08068,-3.42474 2.93549,-19.08068 19.08068,-6.36022 1.46775,-2.93549 8.31721,-3.42474 -4.89248,-7.82797 -23.97316,-3.42474 1.46775,-21.03767 32.29038,-14.18819 v -2.93549 h -1.957 v -3.42474 l -12.72045,-4.40323 h -26.90865 l -1.95699,2.93548 -53.8173,19.08068 -8.31722,-2.93549 h -3.42474 v 5.87098 l 17.61294,16.63444 16.14519,-1.46774 6.36022,1.46774 4.89249,7.82797 v 7.82797 l -25.93016,7.82797 h -9.29571 l -16.14519,-20.54842 -4.40324,-2.93549 -1.95699,-4.89248 6.36023,-22.50542 h 3.42474 l 36.69361,-107.14535 16.14519,-8.31722 h 10.76346 l -7.82797,33.75813 v 1.95699 h 2.93549 l -1.46775,4.89248 v 2.44624 l 3.42474,1.957 4.89248,-1.957 v -4.40323 h 10.76346 l 11.74196,-11.25271 6.36022,-6.36022 v -2.93549 h 2.93549 l 1.46775,-4.89248 4.89248,-1.46775 h 3.42473 v 1.46775 l 4.89249,-1.46775 14.18819,-4.89248 v -1.95699 h -1.46774 v -5.87098 L 186.2941,128.33987 h -2.93549 l -1.46774,3.42473 -6.36023,2.93549 h -22.50542 l 3.42474,-20.54842 c 0,-4.40323 0,-9.29572 0,-14.677446 0,-5.38173 -2.44624,-8.806467 -6.84947,-11.252708 l -22.50542,1.956993 -5.87098,33.758121 1.46775,14.1882 -1.46775,6.36023 -6.36022,2.93548 -14.67745,-2.93548 h -2.935487 v 2.93548 l -21.037671,14.67745 -7.827971,7.82797 -16.145189,-7.82797 H 47.34762 l 11.252708,17.61293 c 0,5.38173 0,10.27422 -0.489248,15.65595 -0.489248,5.38173 -1.956993,10.76345 -4.403234,14.67744 l 1.956993,9.78496 4.892482,1.46775 2.935489,7.82797 9.784963,6.36023 v 3.42473 l 9.784963,-1.46774 c 2.935489,-3.42474 4.403234,-8.31722 4.403234,-13.2097 0,-5.38173 0.489248,-9.78497 1.467744,-14.1882 l -3.424737,-23.97316 -9.295715,-9.78496 6.849474,-15.65594 14.188197,-8.31722 10.763457,1.95699 v 2.93549 l 4.89248,1.95699 3.42474,6.36023 c -3.42474,19.08068 -7.82797,37.67211 -13.2097,55.77429 -6.360225,18.10218 -11.252707,36.20436 -15.65594,54.30654 H 85.508977 L 66.428299,332.8456 h -1.467745 l -2.935489,18.10218 h -3.424737 l -1.467745,6.36023 v 2.93549 l 1.467745,-6.36023 h 3.424737 v 4.89248 l 2.935489,-11.2527 h 3.424737 l 22.016168,-57.24204 h 3.424737 l 3.424737,7.82797 c 3.424737,9.78496 6.360227,19.08068 9.295717,28.86564 3.42474,9.29572 4.89248,19.56993 4.89248,30.33339 0,14.1882 -0.9785,27.3979 -2.44624,41.09685 -1.46775,14.18819 -3.91399,27.39789 -6.84948,40.11835 h -1.95699 v 3.42473 h 4.89248 l 1.46775,6.36023 13.2097,14.1882 z m 183.46806,-57.73129 21.03767,-1.46774 c -0.97849,-4.40323 -1.95699,-8.80647 -2.44624,-13.69895 -0.48925,-4.89248 -2.44624,-9.29571 -5.87098,-13.69895 -4.40323,-5.38173 -8.80646,-9.29571 -14.67744,-11.74195 -6.36023,-2.44624 -12.72045,-4.40324 -18.59143,-5.87098 h -8.31722 c 4.40323,8.80647 8.80647,16.63444 12.72045,24.95165 2.93549,7.82798 8.80647,15.1667 16.14519,21.52692 z m -143.83896,-7.82797 -20.54842,6.36023 -4.89248,-1.46774 v -36.69362 h 20.54842 z m 169.27987,-22.50541 21.03767,-3.42474 -2.93549,-10.76346 c -5.38173,-4.40323 -10.76346,-8.31722 -16.14519,-10.76346 -4.89248,-2.44624 -11.25271,-4.40323 -17.61293,-5.38173 l -12.72046,1.46775 c 4.40324,4.89248 8.31722,10.76346 12.72046,16.14519 4.40323,5.38173 9.78496,9.29571 15.65594,12.72045 z m 23.97316,-19.08068 h 1.95699 v -3.42474 h 4.89248 l 6.36023,-6.36022 -1.46775,-4.89249 -24.4624,-11.2527 h -7.82798 z m -191.29604,-12.72045 -22.50541,6.36022 h -4.89248 l -1.957,-14.67744 v -4.89248 l 22.50542,-4.40324 h 6.84947 z m 124.75829,-41.5861 h 1.46774 l -1.46774,-8.31722 1.46774,-7.82797 c 22.99466,-7.33872 46.47858,-15.65594 69.47324,-23.97316 22.99466,-8.80646 45.98933,-15.16669 69.47324,-20.54842 l -33.75812,-11.74196 c -17.12369,6.36023 -34.24737,12.72046 -50.88181,18.10219 -17.12369,4.89248 -33.75813,11.74195 -49.90332,19.08067 h -3.42473 l 1.95699,-25.4409 c 5.38173,-1.46775 11.25271,-1.95699 17.61293,-1.95699 6.36023,0 11.74196,-1.46775 16.14519,-4.89248 h 4.40324 l 4.89248,8.31721 16.14519,-3.42473 c 3.42474,-12.72046 6.36022,-25.44091 8.80647,-38.16136 2.44624,-13.2097 6.84947,-24.95166 11.74195,-36.69361 l 23.97316,-3.42474 v -2.93549 c -6.84947,-6.84947 -15.16669,-11.74196 -24.46241,-13.69895 -8.80646,-2.44624 -18.59143,-4.89248 -27.88714,-7.33872 -4.40324,2.44624 -9.29572,3.42474 -13.69895,3.91398 -4.89248,0.48925 -9.78496,0.9785 -15.16669,0.9785 v 3.42474 h -4.89249 l 4.89249,2.44624 v 3.42474 l 14.67744,8.31722 2.44624,7.82797 -1.46774,7.82797 -52.34956,21.03767 -36.69361,-11.25271 9.29572,7.82797 c 4.40323,3.42474 7.33872,6.84948 9.78496,11.25271 1.95699,3.91398 2.93549,8.31722 2.93549,12.72045 0,7.82797 0,15.16669 -0.48925,22.50542 -0.48925,7.82797 -1.95699,15.16669 -4.40323,22.50541 -0.9785,6.36023 -0.48925,11.74196 1.95699,16.63444 1.95699,4.89248 3.91398,10.27421 6.36023,15.16669 2.93548,3.42474 6.36022,4.89249 10.27421,5.38173 3.91398,0.48925 7.33872,1.46775 10.76346,2.93549 z m -187.382052,-21.03767 -1.467745,1.95699 -1.956992,-1.95699 3.424737,-9.78496 h 3.424732 l -3.424732,8.31722 z M 84.041233,245.27018 h 1.467744 l 4.892482,-4.89248 1.956993,-6.36023 v -4.89248 l -8.317219,14.67744 z m 62.623767,-4.89248 4.89248,-1.46775 6.36023,1.46775 15.65594,-2.93549 1.95699,-3.42474 4.89248,-1.95699 -1.95699,-5.87098 c -5.38173,-5.38173 -10.76346,-9.29572 -16.14519,-10.76346 -6.36023,-1.46774 -12.72045,-2.93549 -18.59143,-3.91399 h -1.95699 v 6.36023 h -1.46775 l 4.89248,1.95699 v 2.93549 l 6.36023,3.42474 -4.89248,9.29572 z m 174.17235,-17.61294 -20.54843,7.82797 h -6.84947 l -4.89248,-15.65594 1.95699,-4.89248 35.22587,-9.29571 h 2.93549 l -0.9785,20.54842 z m -59.19903,-58.70978 c 6.36022,-2.44624 12.72045,-5.87098 18.10218,-10.27421 5.38173,-4.40323 10.76346,-6.36023 17.12369,-6.36023 l 17.61293,-15.65594 3.42474,-4.40323 4.89248,-1.95699 10.76346,-14.67745 h 3.42474 l 2.93549,-4.40323 -1.46775,-4.89248 c -5.38173,-4.403237 -10.76346,-7.338726 -16.63444,-8.80647 -5.87098,-1.467745 -12.2312,-3.424737 -18.59143,-5.870978 h -6.36022 l -6.36023,6.360226 c -3.91399,11.252712 -8.31722,21.526922 -12.72045,32.290382 -4.40324,10.76346 -9.78497,21.03767 -16.14519,30.33338 z" />
  </g>
</svg>
