<?xml version="1.0" encoding="UTF-8" standalone="no"?>
<!-- Created with Inkscape (http://www.inkscape.org/) -->

<svg
   version="1.1"
   id="svg1372"
   width="500"
   height="500"
   viewBox="0 0 500 500"
   sodipodi:docname="f_ka_image.svg"
   inkscape:version="1.2.2 (b0a8486541, 2022-12-01)"
   xmlns:inkscape="http://www.inkscape.org/namespaces/inkscape"
   xmlns:sodipodi="http://sodipodi.sourceforge.net/DTD/sodipodi-0.dtd"
   xmlns="http://www.w3.org/2000/svg"
   xmlns:svg="http://www.w3.org/2000/svg">
  <defs
     id="defs1376" />
  <sodipodi:namedview
     id="namedview1374"
     pagecolor="#ffffff"
     bordercolor="#666666"
     borderopacity="1.0"
     inkscape:showpageshadow="2"
     inkscape:pageopacity="0.0"
     inkscape:pagecheckerboard="0"
     inkscape:deskcolor="#d1d1d1"
     showgrid="false"
     inkscape:zoom="1.3152186"
     inkscape:cx="152.06598"
     inkscape:cy="244.82622"
     inkscape:window-width="1854"
     inkscape:window-height="1011"
     inkscape:window-x="66"
     inkscape:window-y="32"
     inkscape:window-maximized="1"
     inkscape:current-layer="g1378" />
  <g
     inkscape:groupmode="layer"
     inkscape:label="Image"
     id="g1378">
    <path
       d="M 255.42627,-0.923646 53.632023,99.67003 1.6637126,497.89895 501.66371,499.07635 453.51239,102.01079 Z"
       style="fill:#f0b53a;fill-opacity:1;fill-rule:evenodd;stroke:none;stroke-width:0.101199;stroke-linecap:butt;stroke-linejoin:miter;stroke-dasharray:none;stroke-opacity:1"
       id="path14738" />
  </g>
  <g
     inkscape:groupmode="layer"
     id="layer1"
     inkscape:label="trace">
    <path
       style="fill:#646464;fill-rule:evenodd;stroke:none;stroke-width:1px;stroke-linecap:butt;stroke-linejoin:miter;stroke-opacity:1;fill-opacity:1"
       d="m 265.13854,384.31255 11.51443,30.32437 -6.69326,55.97251 -17.66347,-0.2189 -7.93743,7.83464 28.58616,1.45416 8.37796,-67.28405 -9.15904,-31.31808 z"
       id="path2856" />
    <path
       style="fill:#646464;fill-rule:evenodd;stroke:none;stroke-width:1.0015748;stroke-linecap:butt;stroke-linejoin:miter;stroke-opacity:1;fill-opacity:1;stroke-dasharray:none"
       d="m 295.52974,379.92515 7.97363,37.60807 -8.3821,55.79315 -12.2987,1.45457 -3.68763,6.90256 25.29796,-2.29709 6.82129,-59.01323 -11.14813,-42.83705 z"
       id="path2858" />
    <path
       style="fill:#646464;fill-rule:evenodd;stroke:none;stroke-width:1.0015748;stroke-linecap:butt;stroke-linejoin:miter;stroke-opacity:1;stroke-dasharray:none;fill-opacity:1;opacity:1"
       d="m 363.17413,361.96264 25.84519,4.19281 -7.77241,6.16348 -12.93391,3.41643 7.50259,8.09864 -12.10495,-0.76033 8.68491,10.23893 -20.42268,-4.18933 -7.30616,-6.406 v 13.30025 l -16.59992,-9.17631 z"
       id="path2860" />
    <path
       style="fill:#646464;fill-opacity:1;fill-rule:evenodd;stroke:none;stroke-width:1px;stroke-linecap:butt;stroke-linejoin:miter;stroke-opacity:1;opacity:1"
       d="m 116.14452,271.01361 c 0,0 -22.084194,21.21746 -14.80198,29.4405 5.02362,5.67265 21.39509,-7.68056 21.39509,-7.68056 0,0 -9.68191,18.69692 -3.36709,23.42455 4.28823,3.21041 14.61904,-6.67419 14.61904,-6.67419 0,0 -7.04889,13.36832 -2.51261,16.70383 5.30431,3.90024 17.7677,-8.62773 17.7677,-8.62773 0,0 -5.99906,13.88188 -1.23558,16.94495 9.36643,6.02292 29.30708,-16.03575 29.30708,-16.03575 z"
       id="path2862"
       sodipodi:nodetypes="cscscscscc"
       inkscape:label="path2862" />
    <path
       style="fill:#646464;fill-opacity:1;fill-rule:evenodd;stroke:none;stroke-width:1px;stroke-linecap:butt;stroke-linejoin:miter;stroke-opacity:1;opacity:1"
       d="m 370.3542,249.60831 c 0,0 36.00924,25.44061 27.58818,38.93456 -4.09446,6.56098 -22.89932,-3.73102 -22.89932,-3.73102 0,0 11.32023,21.89796 4.45965,28.75438 -8.1558,8.15086 -34.17976,-5.32231 -34.17976,-5.32231 0,0 10.50421,18.43644 5.11821,25.03497 -3.827,4.68856 -18.15645,0 -18.15645,0 l -5.47406,10.68638 -22.1815,-16.31595 z"
       id="path2864"
       sodipodi:nodetypes="cscscscccc" />
    <path
       style="fill:#ffffff;fill-rule:evenodd;stroke:#646464;stroke-width:0.37795276;stroke-linecap:butt;stroke-linejoin:miter;stroke-opacity:1;fill-opacity:1;stroke-dasharray:none;opacity:1"
       d="m 214.8841,233.94158 11.133,19.368 17.93904,-4.69239 35.30498,-24.4623 50.90312,-39.06473 48.90582,13.24256 28.28813,16.64057 13.34689,24.82493 -28.74171,-0.57874 18.36969,33.49373 -43.52188,-13.61512 5.95906,13.492 -21.24409,2.95389 4.7987,18.95887 -23.7565,-3.57347 12.10806,16.9302 h -26.67638 l 9.00344,16.63969 -20.93946,5.67653 32.70439,12.82212 5.86016,10.39114 21.80208,8.90028 -0.94804,12.38167 -14.45875,-1.59412 v 5.59927 l -7.76109,-0.72441 -7.51934,0.75081 2.80761,11.59401 -28.09522,-11.47033 -22.56802,5.22541 -33.02363,2.32243 -29.80703,-8.75368 -25.2612,-27.04545 -16.71751,-28.93899 -9.8886,1.43449 1.38236,-7.22035 -14.08438,1.24983 1.21581,-9.50663 -15.56156,1.39893 v -14.51226 l -11.81793,2.11054 -1.43374,-13.2525 -12.0836,4.48161 -0.75081,-15.0613 -34.021564,14.78188 8.041101,-26.38963 -20.62882,1.52066 4.332497,-18.8351 18.527611,-18.53717 26.690345,-16.72861 19.42865,10.73674 21.52043,28.97073 27.79701,9.77537 -0.76033,-21.10509 z"
       id="path2866" />
    <path
       style="fill:#646464;fill-rule:evenodd;stroke:none;stroke-width:1px;stroke-linecap:butt;stroke-linejoin:miter;stroke-opacity:1;fill-opacity:1;opacity:1"
       d="m 202.86593,252.17651 c -4.84763,0.56895 -13.48894,-5.69714 -13.48894,-5.69714 l -6.9949,-74.00951 c 0,0 -8.46067,-3.68718 -12.51955,-5.87156 -5.38491,-2.89802 -11.65512,-4.9424 -15.65062,-9.57185 -4.75347,-5.50769 -8.04123,-12.82659 -8.54285,-20.08458 -0.54332,-7.86135 -0.049,-17.98396 6.17234,-22.82032 3.34189,-2.59791 8.48811,-0.63765 12.69724,-0.18978 12.98179,1.38132 27.74553,0.94149 38.16087,8.81268 7.34076,5.54764 13.43063,14.97842 13.31709,24.17897 -0.0948,7.68442 -10.36454,12.3318 -11.61758,19.91397 -4.06405,24.59176 14.89632,73.27714 14.89632,73.27714 0,0 -9.68181,11.27004 -16.42942,12.06198 z"
       id="path2868"
       sodipodi:nodetypes="sccsssssssscs" />
    <path
       style="fill:#ffffff;fill-rule:evenodd;stroke:#646464;stroke-width:0.37795276;stroke-linecap:butt;stroke-linejoin:miter;stroke-opacity:1;fill-opacity:1;opacity:1;stroke-dasharray:none"
       d="m 150.23211,117.63235 c 3.27014,3.683 9.1677,-4.98171 14.07042,-4.51089 6.2345,0.59871 10.44156,7.35172 16.47388,9.03653 6.04223,1.68757 13.07031,-1.73912 18.80303,0.80889 5.57482,2.47782 9.82715,7.73892 12.83628,13.04583 2.2057,3.88999 -1.08401,12.64988 3.37531,12.98389 4.53881,0.33996 4.33517,-8.1228 5.36579,-12.55611 1.08381,-4.66209 1.79572,-9.66601 0.76033,-14.3391 -1.39593,-6.30033 -4.35151,-12.71475 -9.09495,-17.08997 -5.70894,-5.265774 -13.76179,-7.762115 -21.38414,-9.25211 -5.57223,-1.089243 -11.49388,-0.885899 -17.02886,0.379075 -6.46935,1.478516 -13.42345,3.558532 -18.12002,8.246895 -3.43628,3.43027 -9.28081,9.61633 -6.05707,13.24707 z"
       id="path2912"
       sodipodi:nodetypes="sssssssssssss" />
    <path
       style="fill:#700000;fill-rule:evenodd;stroke:none;stroke-width:1.0015748;stroke-linecap:butt;stroke-linejoin:miter;stroke-opacity:1;stroke-dasharray:none;fill-opacity:1"
       d="m 175.01236,99.534484 c -2.32487,5.475526 5.61562,6.574186 10.67445,9.703816 4.63222,2.86571 10.19322,4.10762 15.57609,4.94091 4.45186,0.68917 9.13732,1.0644 13.51465,0 1.63156,-0.39674 4.26535,-0.64703 4.47487,-2.31301 0.63089,-5.01646 -6.92934,-7.59526 -11.33023,-10.08425 -5.1851,-2.932507 -11.17311,-4.414884 -17.0612,-5.317835 -5.79774,-0.889095 -13.55626,-2.328638 -15.84863,3.070369 z"
       id="path2914"
       sodipodi:nodetypes="ssssssss" />
    <ellipse
       style="opacity:1;fill:#ffffff;fill-opacity:1;stroke:none;stroke-width:1.00157;stroke-linecap:round;stroke-dasharray:none;stroke-opacity:1"
       id="path6059"
       cx="162.73943"
       cy="127.97974"
       rx="6.3533649"
       ry="6.6229424" />
    <ellipse
       style="opacity:1;fill:#ffffff;fill-opacity:1;stroke:none;stroke-width:1.00157;stroke-linecap:round;stroke-dasharray:none;stroke-opacity:1"
       id="path6061"
       cx="192.19661"
       cy="136.92435"
       rx="5.9678283"
       ry="7.1640348" />
    <ellipse
       style="opacity:1;fill:#000000;fill-opacity:1;stroke:none;stroke-width:1.00157;stroke-linecap:round;stroke-dasharray:none;stroke-opacity:1"
       id="path8717"
       cx="160.78055"
       cy="125.95726"
       rx="5.0166273"
       ry="3.9917433" />
    <ellipse
       style="opacity:1;fill:#000000;fill-opacity:1;stroke:none;stroke-width:1.00157;stroke-linecap:round;stroke-dasharray:none;stroke-opacity:1"
       id="path8719"
       cx="189.6031"
       cy="134.36589"
       rx="4.2639427"
       ry="4.6122613" />
    <path
       style="fill:#c4c4c4;fill-rule:evenodd;stroke:none;stroke-width:1px;stroke-linecap:butt;stroke-linejoin:miter;stroke-opacity:1;fill-opacity:1"
       d="m 157.1453,141.05296 -9.60348,-0.38017 -27.4719,14.91908 34.98651,1.51832 14.04963,-0.97601 0.38017,-7.66578 z"
       id="path13401" />
  </g>
</svg>
