<?xml version="1.0" encoding="UTF-8" standalone="no"?>
<!-- Created with Inkscape (http://www.inkscape.org/) -->

<svg
   version="1.1"
   id="svg6224"
   width="500"
   height="500"
   viewBox="0 0 500 500"
   sodipodi:docname="f_ke_image.svg"
   inkscape:version="1.2.2 (b0a8486541, 2022-12-01)"
   xmlns:inkscape="http://www.inkscape.org/namespaces/inkscape"
   xmlns:sodipodi="http://sodipodi.sourceforge.net/DTD/sodipodi-0.dtd"
   xmlns="http://www.w3.org/2000/svg"
   xmlns:svg="http://www.w3.org/2000/svg">
  <defs
     id="defs6228" />
  <sodipodi:namedview
     id="namedview6226"
     pagecolor="#ffffff"
     bordercolor="#666666"
     borderopacity="1.0"
     inkscape:showpageshadow="2"
     inkscape:pageopacity="0.0"
     inkscape:pagecheckerboard="0"
     inkscape:deskcolor="#d1d1d1"
     showgrid="false"
     inkscape:zoom="1.3222897"
     inkscape:cx="145.20267"
     inkscape:cy="226.87918"
     inkscape:window-width="1854"
     inkscape:window-height="1011"
     inkscape:window-x="66"
     inkscape:window-y="32"
     inkscape:window-maximized="1"
     inkscape:current-layer="g6230" />
  <g
     inkscape:groupmode="layer"
     inkscape:label="Image"
     id="g6230">
    <path
       style="fill:#f0b53a;fill-opacity:1;fill-rule:evenodd;stroke:none;stroke-width:0.0997492;stroke-linecap:butt;stroke-linejoin:miter;stroke-dasharray:none;stroke-opacity:1"
       d="M 248.62825,2.0958354 457.92559,129.56755 479.43898,425.66434 394.47055,497.49166 0.087983,499.84602 47.8805,128.97715 Z"
       id="path2763"
       sodipodi:nodetypes="ccccccc" />
  </g>
  <g
     inkscape:groupmode="layer"
     id="layer2"
     inkscape:label="trace">
    <path
       style="fill:#6c6c6c;fill-opacity:0.999852;fill-rule:evenodd;stroke:none;stroke-width:1px;stroke-linecap:butt;stroke-linejoin:miter;stroke-opacity:1"
       d="m 293.98807,415.83365 10.40398,43.81419 19.47329,11.18097 -17.571,-3.02505 3.73729,13.94371 -20.59693,-11.96037 -12.8516,11.45802 7.78513,-18.93388 -7.53905,-44.36145 z"
       id="path6256" />
    <path
       style="fill:#6c6c6c;fill-opacity:0.999852;fill-rule:evenodd;stroke:none;stroke-width:1px;stroke-linecap:butt;stroke-linejoin:miter;stroke-opacity:1"
       d="m 239.5294,423.16845 9.62543,41.17101 13.23503,11.34026 -14.35854,-1.28478 1.70691,15.98868 -13.96199,-13.54167 -16.91476,6.82535 11.4011,-24.34922 -10.84018,-37.66682 z"
       id="path6258" />
    <path
       style="opacity:1;fill:#c8c8c8;fill-opacity:0.999852;fill-rule:evenodd;stroke:none;stroke-width:1px;stroke-linecap:butt;stroke-linejoin:miter;stroke-opacity:1"
       d="m 397.7636,217.49013 c 11.78126,9.82941 9.85457,29.19508 12.42121,44.32213 2.00407,11.81137 3.57535,23.96177 2.25933,35.86945 -1.26912,11.48333 -4.91105,22.75749 -9.67989,33.2806 -5.52686,12.19579 -12.81936,23.76021 -21.60675,33.86294 -6.6982,7.70082 -14.73512,14.30727 -23.28045,19.88812 -11.1368,7.27331 -23.72495,12.07254 -35.92993,17.36102 -6.9401,3.00718 -15.39311,3.27884 -21.17442,8.15578 -3.87782,3.27122 -7.78531,13.078 -7.78531,13.078 l -16.82678,2.61143 -15.75271,-11.91171 -21.24767,15.56641 -16.80038,4.67495 -6.3465,-8.57286 c 0,0 -8.14435,-16.0307 -15.89548,-17.67181 -4.26562,-0.90314 -11.93848,5.34541 -11.93848,5.34541 0,0 -17.4239,-18.79458 -29.20077,-21.62138 -11.80713,-2.83406 -26.42133,13.5839 -35.9255,6.02671 -3.23445,-2.57186 2.89553,-10.43984 -0.75626,-12.3739 -3.73416,-1.97768 -7.0332,8.17107 -10.9012,6.46997 -2.12331,-0.93381 0.17622,-5.13437 -1.42682,-6.8109 -1.96375,-2.05378 -7.06765,0.46086 -8.25682,-2.11988 -2.463448,-5.34617 3.98939,-11.3479 7.77493,-15.85565 56.95098,-67.81626 129.33834,-132.96771 214.72832,-156.4413 23.74197,-6.52664 54.64186,-8.90768 73.54833,6.86647 z"
       id="path6260"
       sodipodi:nodetypes="ssssssssccccccscsssssssss" />
    <path
       style="opacity:1;fill:#343433;fill-opacity:0.999852;fill-rule:evenodd;stroke:none;stroke-width:1px;stroke-linecap:butt;stroke-linejoin:miter;stroke-opacity:1"
       d="m 316.09139,201.83592 c 0,0 -32.54974,7.89268 -48.75129,12.12654 -20.93478,5.47077 -42.54775,9.03781 -62.60609,17.15307 -11.26519,4.5577 -21.91026,10.70499 -31.96789,17.52563 -10.07058,6.82942 -20.1406,14.08148 -28.14521,23.24574 -5.74196,6.57381 -9.26219,14.79749 -13.80851,22.2484 -4.89698,8.0256 -10.33159,15.76445 -14.50745,24.1878 -3.99212,8.0527 -5.58081,17.21559 -10.00697,25.03813 -5.79162,10.23577 -34.140588,22.96405 -28.884018,33.48462 7.93874,15.8887 60.827078,-5.6832 60.827078,-5.6832 l -2.73915,5.90578 52.72227,-12.62981 -0.31748,7.62357 39.37202,-22.13212 4.49286,7.09967 29.54816,-31.18098 7.21109,3.4313 21.47196,-47.21083 H 298.65 l 20.51348,-51.74089 z"
       id="path6262"
       sodipodi:nodetypes="csssssssccccccccccccc" />
    <path
       style="opacity:1;fill:#8a8a8a;fill-opacity:0.999852;fill-rule:evenodd;stroke:none;stroke-width:1px;stroke-linecap:butt;stroke-linejoin:miter;stroke-opacity:1"
       d="m 417.2968,199.06576 -1.04923,13.07541 5.77191,20.96043 -27.41558,-11.10144 -10.21506,11.42963 -13.34655,-8.5875 -6.43471,9.33361 -12.94432,-8.7822 -15.67522,11.76294 -10.63791,-11.85332 -30.27655,2.91336 18.34799,-27.5488 -2.93593,-25.02087 1.56063,-23.99393 8.59424,-19.40701 15.71412,-18.77823 27.72499,-7.78464 34.23918,6.58468 14.73422,16.12036 10.43943,18.58028 0.14646,23.47566 z"
       id="path6264" />
    <ellipse
       style="opacity:1;fill:#000000;fill-opacity:0.999852;stroke:none;stroke-width:1.002;stroke-linecap:round;stroke-dasharray:none"
       id="path6277"
       cx="-410.67773"
       cy="159.45782"
       rx="4.2741504"
       ry="4.0682769"
       transform="scale(-1,1)" />
    <ellipse
       style="opacity:1;fill:#000000;fill-opacity:0.999852;stroke:none;stroke-width:1.002;stroke-linecap:round;stroke-dasharray:none"
       id="path6281"
       cx="-363.06287"
       cy="161.45284"
       rx="5.0932074"
       ry="4.8904147"
       transform="scale(-1,1)" />
    <path
       style="fill:#000000;fill-opacity:0.999852;fill-rule:evenodd;stroke:none;stroke-width:1px;stroke-linecap:butt;stroke-linejoin:miter;stroke-opacity:1"
       d="m 403.40548,169.32349 22.46038,9.92267 4.47452,7.88204 -47.4708,-7.54754 10.49908,-9.24795 z"
       id="path6283" />
  </g>
</svg>
