<?xml version="1.0" encoding="UTF-8" standalone="no"?>
<svg
   id="svg284"
   width="500"
   height="500"
   version="1.1"
   viewBox="0 0 500 500"
   sodipodi:docname="f_ki_m.svg"
   inkscape:version="1.2.2 (b0a8486541, 2022-12-01)"
   xmlns:inkscape="http://www.inkscape.org/namespaces/inkscape"
   xmlns:sodipodi="http://sodipodi.sourceforge.net/DTD/sodipodi-0.dtd"
   xmlns="http://www.w3.org/2000/svg"
   xmlns:svg="http://www.w3.org/2000/svg"
   xmlns:rdf="http://www.w3.org/1999/02/22-rdf-syntax-ns#"
   xmlns:cc="http://creativecommons.org/ns#"
   xmlns:dc="http://purl.org/dc/elements/1.1/">
  <sodipodi:namedview
     id="namedview29035"
     pagecolor="#ffffff"
     bordercolor="#666666"
     borderopacity="1.0"
     inkscape:showpageshadow="2"
     inkscape:pageopacity="0.0"
     inkscape:pagecheckerboard="0"
     inkscape:deskcolor="#d1d1d1"
     showgrid="false"
     inkscape:zoom="0.472"
     inkscape:cx="141.94915"
     inkscape:cy="250"
     inkscape:window-width="1854"
     inkscape:window-height="1011"
     inkscape:window-x="66"
     inkscape:window-y="32"
     inkscape:window-maximized="1"
     inkscape:current-layer="svg284" />
  <metadata
     id="metadata290">
    <rdf:RDF>
      <cc:Work
         rdf:about="">
        <dc:format>image/svg+xml</dc:format>
        <dc:type
           rdf:resource="http://purl.org/dc/dcmitype/StillImage" />
        <dc:title />
      </cc:Work>
    </rdf:RDF>
  </metadata>
  <defs
     id="defs288" />
  <path
     d="M 255.42627,1.076354 53.632023,101.67003 1.6637126,499.89895 501.66371,501.07635 453.51239,104.01079 Z"
     style="fill:#f0b53a;fill-opacity:1;fill-rule:evenodd;stroke:none;stroke-width:0.101199;stroke-linecap:butt;stroke-linejoin:miter;stroke-dasharray:none;stroke-opacity:1"
     id="path29525" />
  <g
     id="text282"
     style="font-style:normal;font-variant:normal;font-weight:normal;font-stretch:normal;font-size:518.36468506px;font-family:'衡山毛筆フォント OTF';-inkscape-font-specification:'衡山毛筆フォント OTF, Normal';font-variant-ligatures:normal;font-variant-caps:normal;font-variant-numeric:normal;font-feature-settings:normal;text-align:start;writing-mode:lr-tb;text-anchor:start;white-space:pre;fill:#333333;stroke-width:23.56235504"
     transform="scale(0.99716994,1.0028381)"
     aria-label="雉">
    <path
       id="path7"
       style="font-style:normal;font-variant:normal;font-weight:normal;font-stretch:normal;font-size:518.36468506px;font-family:'衡山毛筆フォント OTF';-inkscape-font-specification:'衡山毛筆フォント OTF, Normal';font-variant-ligatures:normal;font-variant-caps:normal;font-variant-numeric:normal;font-feature-settings:normal;text-align:start;writing-mode:lr-tb;text-anchor:start;white-space:pre;fill:#333333;stroke-width:23.56235504"
       d="m 267.15152,475.01302 79.82816,-20.21623 c 17.10603,1.5551 34.73043,2.07346 53.39156,2.07346 18.14277,0 35.2488,2.07346 51.31811,6.22038 l 20.21622,-4.14692 v -4.14692 l 7.2571,-5.18364 -2.07346,-8.29384 c -7.2571,-2.59182 -15.03257,-5.18365 -21.77131,-7.2571 -7.77547,-2.07346 -15.03258,-4.66529 -21.77132,-8.29384 -21.25295,7.25711 -44.061,10.88566 -69.97923,10.36729 -25.91824,-0.51836 -49.76301,3.62856 -70.4976,13.47749 l -6.22037,-2.07346 -7.77548,-27.99169 2.07346,-44.061 13.99585,6.22037 37.32226,-9.84893 h 4.14692 l -4.14692,16.06931 c -1.5551,7.77547 0,15.03258 4.14692,20.73459 4.14691,5.70201 6.73874,11.92238 8.29383,18.66113 h 2.07346 v -5.70202 l 11.40402,-2.07345 2.07346,-6.22038 -2.07346,-31.62025 2.07346,-13.99584 59.61194,-13.99585 2.07346,-7.77547 v -5.70201 l -6.22038,-2.07346 c -7.77547,0 -16.0693,-0.51837 -24.8815,-1.03673 -8.29384,-0.51836 -15.55094,1.55509 -20.73459,7.25711 l -7.77547,-2.07346 4.14692,-32.13861 51.3181,-17.6244 2.07346,-8.29384 v -5.70201 l -13.99585,-4.14692 -19.69786,2.07346 c -4.14691,0 -7.77547,0 -10.88565,0 -3.62856,0 -6.73874,-1.55509 -8.8122,-4.14692 l 3.62855,-7.77547 v -6.22037 l -25.39987,-7.77547 2.07346,-6.22038 c 12.95912,-2.59182 26.4366,-6.22037 40.43244,-10.36729 13.47749,-4.66528 26.4366,-10.3673 38.35899,-17.10604 l 2.07346,-7.77547 v -4.14691 l -23.84478,-6.22038 -21.77131,2.07346 -2.07346,4.14692 c -12.95912,8.29383 -26.95497,13.99584 -41.46918,18.66112 -14.51421,4.66529 -29.02842,9.33057 -43.54263,13.47749 l -27.99169,-2.07346 h -9.84893 l -2.07346,5.70201 -17.6244,-5.70201 h -2.07346 l 3.62855,9.33056 5.70202,2.07346 v 4.14692 l 4.14691,2.07346 11.92239,27.47332 c -1.03673,23.84478 -2.59182,47.17119 -4.66528,69.46087 -2.07346,22.80805 -6.73874,44.57937 -13.47748,65.83232 l 4.14691,16.0693 v 3.62856 h -2.07345 v 4.14691 l 4.14691,2.07346 c 4.14692,5.70201 6.73874,11.40402 8.29384,18.66113 1.55509,7.77547 4.14692,13.99585 9.84893,18.66113 z m -208.382606,-1.5551 h 2.073459 V 469.311 l 25.918234,-14.51421 c 11.404023,-11.40402 21.771313,-24.36314 29.546783,-39.39571 7.77547,-14.51421 14.51422,-28.51006 19.69786,-43.54264 l 5.70201,2.07346 4.14692,7.77547 21.77132,21.77132 13.99584,-3.62855 2.07346,-8.29384 h 4.14692 l -12.44075,-21.77131 h -5.70201 v -3.62856 l -25.91824,-6.22037 16.06931,-51.83647 45.61609,-27.9917 4.14692,-19.69785 h 2.07346 l 2.07345,-11.92239 c 3.62856,-9.33057 7.77547,-18.14276 13.47749,-27.99169 5.70201,-8.8122 11.92238,-17.10604 19.69785,-23.84478 l 8.29384,-11.40402 c 10.36729,-4.14692 18.66113,-10.88566 24.8815,-19.1795 5.70202,-8.8122 13.47749,-15.55094 22.80805,-20.73458 l 16.06931,-25.91824 -2.07346,-7.77547 -32.13861,-11.922386 -19.69786,2.073456 v 2.07346 h 2.07346 l 2.07346,5.70201 c -6.73874,27.9917 -16.06931,54.4283 -27.9917,79.3098 -11.92238,25.39987 -24.8815,49.76301 -39.91408,73.60779 -11.40402,1.55509 -23.32641,1.03672 -34.21207,-1.03673 -11.92238,-2.07346 -21.77131,-4.66529 -31.10188,-8.8122 h -22.28968 l 4.14692,16.0693 6.22037,1.5551 6.22038,9.84892 v 8.29384 c -17.6244,7.77547 -35.248798,16.0693 -52.873197,25.39987 -17.6244,9.33056 -36.803893,15.55094 -56.501751,18.14276 l 13.995846,19.69786 23.844776,16.06931 h 7.77547 L 117.86249,329.8709 h 6.22037 c -2.59182,22.80805 -8.8122,43.54264 -17.6244,62.72213 -9.848924,19.17949 -20.734583,37.84062 -34.212064,54.94666 l -19.697858,15.55094 v 6.22037 z m 277.843476,-123.88916 -45.6161,14.51421 h -9.84893 l 3.62856,-43.54263 13.99584,3.11019 31.62025,-5.18365 h 8.29383 z m 4.14691,-59.09357 -44.061,11.40402 h -7.77547 l -2.07345,-31.62024 c 2.59182,-5.18365 8.29383,-8.29384 16.58767,-8.8122 7.2571,-0.51837 13.99584,-2.59183 19.17949,-4.66529 l 5.70201,5.70202 12.44075,9.84892 z m -274.214916,-18.14277 5.702012,-2.07345 25.918234,-31.62025 10.36729,-5.70201 h 7.25711 l 4.14692,5.70201 8.29383,5.70201 c 14.51421,-1.03673 27.47333,-5.70201 39.91408,-13.47748 11.40403,-8.29384 23.84478,-16.58767 35.2488,-25.91823 v -11.92239 l -17.6244,-3.62856 -33.6937,3.62856 v 7.77547 l -10.3673,4.14692 v 4.14691 h -7.77547 v 4.14692 l -11.92238,5.18365 h -4.14692 c 4.14692,-7.25711 7.77547,-15.55094 10.36729,-23.84478 2.59183,-7.2571 6.22038,-15.03257 11.40402,-21.77132 l -1.55509,-11.40402 c -9.33056,-8.29383 -19.17949,-12.95912 -29.54679,-15.03257 -10.885655,-2.07346 -20.734584,-5.70202 -30.065148,-10.88566 h -2.073459 l 4.146918,7.77547 -4.146918,13.99584 8.293835,19.69786 c 1.555094,17.10604 0.518365,33.69371 -2.073459,48.72628 -2.591823,15.03258 -8.293835,29.54679 -16.069305,43.02427 z M 338.68584,207.01847 c 7.77547,-6.73874 16.58767,-10.36729 26.95497,-10.36729 9.33056,0 18.14276,-3.62855 24.8815,-11.40402 l -4.14692,-13.99585 -30.06515,-11.92239 H 340.7593 l 11.40403,7.77547 2.07345,5.70201 v 6.22038 l -17.62439,21.77132 z" />
  </g>
</svg>
