<?xml version="1.0" encoding="UTF-8" standalone="no"?>
<!-- Created with Inkscape (http://www.inkscape.org/) -->

<svg
   version="1.1"
   id="svg23823"
   width="500"
   height="500"
   viewBox="0 0 500 500"
   sodipodi:docname="f_ki_image.svg"
   inkscape:version="1.2.2 (b0a8486541, 2022-12-01)"
   xmlns:inkscape="http://www.inkscape.org/namespaces/inkscape"
   xmlns:sodipodi="http://sodipodi.sourceforge.net/DTD/sodipodi-0.dtd"
   xmlns="http://www.w3.org/2000/svg"
   xmlns:svg="http://www.w3.org/2000/svg">
  <defs
     id="defs23827" />
  <sodipodi:namedview
     id="namedview23825"
     pagecolor="#ffffff"
     bordercolor="#666666"
     borderopacity="1.0"
     inkscape:showpageshadow="2"
     inkscape:pageopacity="0.0"
     inkscape:pagecheckerboard="0"
     inkscape:deskcolor="#d1d1d1"
     showgrid="false"
     inkscape:zoom="1.3222897"
     inkscape:cx="172.42818"
     inkscape:cy="261.66732"
     inkscape:window-width="1854"
     inkscape:window-height="1011"
     inkscape:window-x="66"
     inkscape:window-y="32"
     inkscape:window-maximized="1"
     inkscape:current-layer="g23829" />
  <g
     inkscape:groupmode="layer"
     inkscape:label="Image"
     id="g23829">
    <path
       d="M 253.59592,1.076354 51.121135,101.64824 -1.0224301,499.79092 500.66371,500.96806 452.35003,103.9885 Z"
       style="fill:#f0b53a;fill-opacity:1;fill-rule:evenodd;stroke:none;stroke-width:0.10136;stroke-linecap:butt;stroke-linejoin:miter;stroke-dasharray:none;stroke-opacity:1"
       id="path17654" />
  </g>
  <g
     inkscape:groupmode="layer"
     id="layer5"
     inkscape:label="trace">
    <path
       style="fill:#848484;fill-rule:evenodd;stroke:none;stroke-width:1px;stroke-linecap:butt;stroke-linejoin:miter;stroke-opacity:1;fill-opacity:1"
       d="m 179.41803,423.59491 0.38287,38.48307 -17.37499,9.74237 13.69169,-0.78041 -7.34464,8.57862 13.05183,-5.41361 0.37814,9.41224 11.73787,-15.82144 3.88569,-0.75345 -7.71838,-5.75241 1.00164,-36.45565 z"
       id="path24945" />
    <path
       style="fill:#848484;fill-rule:evenodd;stroke:none;stroke-width:1px;stroke-linecap:butt;stroke-linejoin:miter;stroke-opacity:1;fill-opacity:1"
       d="m 213.65218,424.48718 1.18457,41.98965 -14.0396,8.08731 9.85813,0.60802 -7.56624,9.33158 14.9243,-5.90605 0.78299,8.3601 10.13987,-12.7407 6.30287,-2.08053 -10.41028,-6.43394 -0.37813,-43.23999 z"
       id="path24947" />
    <path
       style="opacity:1;fill:#9d9d9d;fill-opacity:1;fill-rule:evenodd;stroke:none;stroke-width:1px;stroke-linecap:butt;stroke-linejoin:miter;stroke-opacity:1"
       d="m 118.51935,212.16393 c -1.28246,0.72718 -1.6852,2.45915 -2.18164,3.84733 -3.29983,9.22717 -3.17872,19.34142 -5.00425,28.96935 -1.15743,6.10431 -2.40793,12.19205 -3.77084,18.25379 -0.95352,4.24091 -2.16005,8.42302 -3.08207,12.67089 -1.18848,5.4755 -2.65352,10.92965 -3.15588,16.51009 -0.57296,6.36471 -0.25618,12.79487 0.17853,19.17051 0.54053,7.92766 1.08602,15.93846 3.0156,23.64668 1.92848,7.70383 4.74932,15.25304 8.47594,22.26591 2.87525,5.41074 6.99284,10.06423 10.57795,15.03315 3.33424,4.62123 6.02174,9.83323 10.16629,13.74419 3.85024,3.63324 8.65921,6.13063 13.294,8.68865 6.26478,3.45764 13.31454,5.37202 19.51493,8.94385 2.69581,1.55296 5.99056,2.73896 7.6204,5.389 2.72464,4.43013 0.0109,10.75999 2.29338,15.43332 0.49619,1.01594 1.28994,2.03562 2.33955,2.45592 3.90974,1.56561 8.69401,0.91909 12.62018,-0.60486 1.1043,-0.42864 2.20596,-1.20929 2.73488,-2.26923 2.35428,-4.71788 -3.18276,-12.28982 0.75153,-15.80015 2.94584,-2.6284 8.97736,-1.95781 11.81794,0.78401 3.41025,3.29168 -1.34637,10.31345 1.44253,14.14581 1.2798,1.75863 3.81715,2.33943 5.97316,2.62627 3.92662,0.52241 8.20609,-0.004 11.75073,-1.77242 1.38016,-0.6885 2.57866,-1.87858 3.30323,-3.24016 2.07756,-3.90407 -0.34734,-9.59202 2.41491,-13.04571 1.42441,-1.78097 4.05875,-2.21785 6.28919,-2.6932 18.94399,-4.03733 49.40494,16.41519 58.10144,-0.8922 24.85741,-49.47009 -70.27063,-86.32823 -97.07135,-134.77306 -7.37172,-13.32508 -13.71663,-27.49569 -17.21802,-42.31596 -1.05491,-4.46511 2.26439,-10.56766 -1.06664,-13.7227 -15.039,-14.24447 -44.10656,-11.66625 -62.1256,-1.44907 z"
       id="path24949"
       sodipodi:nodetypes="sssssssssssssssssssssssssssssss" />
    <path
       style="fill:#848484;fill-rule:evenodd;stroke:none;stroke-width:1px;stroke-linecap:butt;stroke-linejoin:miter;stroke-opacity:1;fill-opacity:1;opacity:1"
       d="m 267.91841,390.66541 16.96156,11.91121 16.7641,6.47278 14.79044,6.98377 19.10988,6.7228 37.11657,13.05119 25.49926,4.82273 16.55279,1.89066 9.577,-2.96485 -2.74857,-3.50307 8.84336,-3.98474 -6.31164,-5.07411 6.59173,-4.7651 -6.63822,-5.16246 -33.59332,-11.0629 -30.04077,-8.99286 -28.4481,-8.97166 -32.40308,-10.94988 z"
       id="path24951" />
    <path
       style="fill:#000000;fill-rule:evenodd;stroke:none;stroke-width:1px;stroke-linecap:butt;stroke-linejoin:miter;stroke-opacity:1;fill-opacity:1;opacity:1"
       d="m 160.9141,259.27421 c -2.77753,1.28083 -4.8295,3.99956 -6.27451,6.69533 -1.47951,2.76015 -1.8184,6.03135 -2.15229,9.14517 -0.76796,7.16189 -0.19405,14.42534 0.37813,21.60552 0.6387,8.01494 1.58367,16.04796 3.40273,23.87983 1.7796,7.66197 3.86381,15.36595 7.3086,22.43746 3.30722,6.7891 8.39445,12.55611 12.63685,18.80364 3.93842,5.79987 7.03464,12.29388 11.89885,17.34256 4.29171,4.45447 9.89485,7.42625 14.90023,11.06043 3.65271,2.65207 6.78121,6.34819 11.04148,7.8401 4.15574,1.4553 13.18867,0.74257 13.18867,0.74257 l -1.98667,-7.48029 23.46893,10.60854 3.08088,-11.65415 c 0,0 6.0935,6.26357 10.09629,7.53005 3.69956,1.17053 11.6364,-0.32542 11.6364,-0.32542 l 4.22883,-9.16471 10.07436,5.1749 10.8829,-4.13204 -1.59012,-6.67805 11.83024,2.92632 9.83014,-5.65377 c 0,0 -7.26885,-11.13082 -11.53145,-16.21047 -9.04376,-10.77725 -19.55854,-20.23458 -29.62393,-30.06447 -8.95486,-8.74535 -18.21784,-17.16967 -27.36377,-25.715 -10.74786,-10.04207 -21.05212,-20.59056 -32.33031,-30.03313 -5.29592,-4.43396 -10.59092,-8.97674 -16.55193,-12.46575 -5.23876,-3.06627 -10.70694,-6.2103 -16.67503,-7.31871 -7.80981,-1.45046 -16.59116,-2.22282 -23.8045,1.10354 z"
       id="path24953"
       sodipodi:nodetypes="ssssssssssccccscccccccsssssss" />
    <path
       style="fill:#000000;fill-rule:evenodd;stroke:none;stroke-width:1px;stroke-linecap:butt;stroke-linejoin:miter;stroke-opacity:1;fill-opacity:1;opacity:1"
       d="m 116.42112,214.92747 c 3.47187,3.75513 10.81615,-1.59082 15.31997,0.83208 2.96984,1.59767 2.65315,8.07728 6.0251,8.12716 4.71937,0.0698 4.04624,-11.0429 8.76549,-11.12036 4.2502,-0.0698 4.03009,9.02636 8.21871,9.7506 3.64671,0.63054 5.89424,-5.77893 9.59042,-5.59364 4.08108,0.20459 6.12015,5.69726 9.91834,7.20419 2.94433,1.16816 7.14716,3.40568 9.42602,1.20557 3.64644,-3.52044 -0.70872,-10.11973 -1.3977,-15.14122 -0.73273,-5.3404 -2.93388,-10.51775 -2.90562,-15.90811 0.0182,-3.47819 1.31951,-6.83018 1.9824,-10.24467 0.82449,-4.24688 1.94996,-8.4457 2.48126,-12.73913 0.57131,-4.61681 1.09674,-9.29662 0.75151,-13.93582 -0.26839,-3.6066 -0.86462,-7.25982 -2.18135,-10.62817 -1.26637,-3.23953 -7.07722,-5.89268 -5.3905,-8.9346 1.63463,-2.94798 6.76855,0.27856 10.11136,-0.15535 4.0575,-0.52668 8.47551,-0.73447 11.91459,-2.9511 2.40441,-1.54974 4.16205,-4.11828 5.31931,-6.73432 1.0399,-2.35076 1.75147,-5.08393 1.26237,-7.60747 -0.42622,-2.19907 -1.43651,-4.85998 -3.49712,-5.73833 -3.02002,-1.2873 -6.3492,1.80683 -9.61656,2.12626 -3.61666,0.35358 -7.3317,0.4457 -10.8989,-0.24737 -4.10264,-0.7971 -7.86348,-2.84192 -11.72945,-4.42977 -5.02719,-2.06479 -9.75489,-4.86759 -14.89818,-6.62332 -5.24997,-1.79214 -10.62484,-3.70544 -16.1669,-3.94925 -6.36625,-0.28007 -12.7728,1.12978 -18.8978,2.88818 -3.19996,0.91867 -6.35421,2.18167 -9.16991,3.95806 -3.26397,2.0592 -6.10656,4.77688 -8.7182,7.6182 -1.25761,1.36821 -2.336723,2.90402 -3.302458,4.49177 -3.430381,5.63982 -6.742838,11.47298 -8.772874,17.75422 -0.673591,2.08419 -0.895314,4.29852 -1.087395,6.48042 -0.740397,8.41038 -1.497858,16.97935 -0.237233,25.32762 0.460535,3.04981 1.310721,6.12187 2.814919,8.81461 1.781324,3.18884 3.976157,6.48769 7.140691,8.31184 4.08892,2.35699 9.52548,0.87445 13.91778,2.60141 0.58011,0.22809 1.2417,0.47677 1.57994,1.00035 1.36623,2.11487 0.65841,4.99305 1.05985,7.47863 0.43911,2.7188 1.26111,5.38367 1.47486,8.1294 0.22208,2.85268 -2.1492,6.4805 -0.20674,8.58143 z"
       id="path24955"
       sodipodi:nodetypes="sssssssssssssssssssssssssssssssssssssss" />
    <path
       style="fill:#840000;fill-rule:evenodd;stroke:none;stroke-width:1px;stroke-linecap:butt;stroke-linejoin:miter;stroke-opacity:1;fill-opacity:1;opacity:1"
       d="m 117.58448,124.01473 c -3.12094,2.11157 -6.31948,4.21485 -8.92784,6.9343 -1.13107,1.17924 -2.18264,2.49874 -2.84294,3.99337 -1.51138,3.42111 -1.93834,7.25148 -2.37534,10.96595 -0.31062,2.64026 -0.0388,5.31826 -0.16669,7.97365 -0.23991,4.9823 -1.4458,9.94395 -1.12619,14.92177 0.27393,4.2664 0.90028,8.63486 2.59285,12.56073 1.1526,2.67343 2.70621,5.37254 5.00726,7.15605 2.38523,1.84876 5.58288,2.3245 8.47798,3.17634 4.11399,1.21048 8.29286,2.45015 12.57208,2.73029 3.41276,0.22342 7.1529,0.65176 10.22477,-0.8517 3.79874,-1.85921 6.71318,-5.54825 8.58893,-9.33885 1.2135,-2.4523 1.34959,-5.34752 1.43265,-8.08238 0.13257,-4.36523 -2.85741,-8.8648 -1.49962,-13.01561 1.39942,-4.27808 6.44077,-6.33221 9.17477,-9.90791 2.29191,-2.9975 5.22335,-5.90679 5.99925,-9.59947 0.59375,-2.82578 -0.27269,-5.85391 -1.24615,-8.57235 -1.08542,-3.03111 -2.6739,-6.03522 -4.99388,-8.26758 -2.24756,-2.16267 -5.37937,-3.1732 -8.18973,-4.52618 -2.57514,-1.23974 -5.17247,-2.49987 -7.92215,-3.27932 -3.32376,-0.94219 -6.78166,-1.82855 -10.23181,-1.65098 -1.9973,0.10279 -3.94868,0.78724 -5.79381,1.55879 -3.11904,1.30424 -5.95432,3.22661 -8.75439,5.12109 z"
       id="path25011"
       sodipodi:nodetypes="sssssssssssssssssssssss" />
    <path
       style="opacity:1;fill:#840000;fill-opacity:1;fill-rule:evenodd;stroke:none;stroke-width:1px;stroke-linecap:butt;stroke-linejoin:miter;stroke-opacity:1"
       d="m 95.152222,122.55338 c -3.66778,0.40371 -4.907771,5.69721 -6.25771,9.13134 -1.421412,3.61595 -1.472124,7.65072 -1.722088,11.52797 -0.48895,7.58422 -0.645527,15.27425 0.445166,22.79554 0.650994,4.48918 1.565973,9.07135 3.610036,13.12083 1.095134,2.16956 2.167894,6.39022 4.50705,5.73092 2.754216,-0.77629 1.001817,-8.52592 1.001817,-8.52592 0,0 -2.316788,-5.43901 -2.856427,-8.32169 -1.481193,-7.91235 -0.952854,-24.13058 -0.952854,-24.13058 0,0 2.173747,-6.74251 3.01954,-10.17915 0.713941,-2.90089 2.649665,-5.95139 1.730085,-8.7938 -0.354274,-1.09505 -1.380589,-2.48138 -2.524615,-2.35546 z"
       id="path25013"
       sodipodi:nodetypes="sssssscscsss" />
    <path
       style="fill:#848484;fill-rule:evenodd;stroke:none;stroke-width:1px;stroke-linecap:butt;stroke-linejoin:miter;stroke-opacity:1;fill-opacity:1"
       d="m 87.092373,145.70863 6.598615,0.94219 6.485722,4.27003 2.66028,8.75876 -0.0303,6.60481 -7.789996,0.36708 -20.43055,-0.13566 -3.769665,-0.68351 -3.888281,-2.20906 11.147866,-9.02374 7.861574,-3.08672 z"
       id="path25015" />
    <ellipse
       style="opacity:1;fill:#000000;fill-opacity:1;stroke:none;stroke-linecap:round"
       id="path25069"
       cx="127.52821"
       cy="147.11095"
       rx="4.2475109"
       ry="6.3534489" />
  </g>
</svg>
