<?xml version="1.0" encoding="UTF-8" standalone="no"?>
<svg
   id="svg657"
   width="500"
   height="500"
   version="1.1"
   viewBox="0 0 500 500"
   sodipodi:docname="f_ky_m.svg"
   inkscape:version="1.2.2 (b0a8486541, 2022-12-01)"
   xmlns:inkscape="http://www.inkscape.org/namespaces/inkscape"
   xmlns:sodipodi="http://sodipodi.sourceforge.net/DTD/sodipodi-0.dtd"
   xmlns="http://www.w3.org/2000/svg"
   xmlns:svg="http://www.w3.org/2000/svg"
   xmlns:rdf="http://www.w3.org/1999/02/22-rdf-syntax-ns#"
   xmlns:cc="http://creativecommons.org/ns#"
   xmlns:dc="http://purl.org/dc/elements/1.1/">
  <sodipodi:namedview
     id="namedview30332"
     pagecolor="#ffffff"
     bordercolor="#666666"
     borderopacity="1.0"
     inkscape:showpageshadow="2"
     inkscape:pageopacity="0.0"
     inkscape:pagecheckerboard="0"
     inkscape:deskcolor="#d1d1d1"
     showgrid="false"
     inkscape:zoom="0.472"
     inkscape:cx="141.94915"
     inkscape:cy="250"
     inkscape:window-width="1854"
     inkscape:window-height="1011"
     inkscape:window-x="66"
     inkscape:window-y="32"
     inkscape:window-maximized="1"
     inkscape:current-layer="svg657" />
  <metadata
     id="metadata663">
    <rdf:RDF>
      <cc:Work
         rdf:about="">
        <dc:format>image/svg+xml</dc:format>
        <dc:type
           rdf:resource="http://purl.org/dc/dcmitype/StillImage" />
        <dc:title />
      </cc:Work>
    </rdf:RDF>
  </metadata>
  <defs
     id="defs661" />
  <path
     d="M 257.42627,1.076354 55.632023,101.67003 3.6637126,499.89895 503.66371,501.07635 455.51239,104.01079 Z"
     style="fill:#f0b53a;fill-opacity:1;fill-rule:evenodd;stroke:none;stroke-width:0.101199;stroke-linecap:butt;stroke-linejoin:miter;stroke-dasharray:none;stroke-opacity:1"
     id="path29525" />
  <g
     id="text655"
     style="font-style:normal;font-variant:normal;font-weight:normal;font-stretch:normal;font-size:427.35855103px;font-family:'衡山毛筆フォント OTF';-inkscape-font-specification:'衡山毛筆フォント OTF, Normal';font-variant-ligatures:normal;font-variant-caps:normal;font-variant-numeric:normal;font-feature-settings:normal;text-align:start;writing-mode:lr-tb;text-anchor:start;white-space:pre;fill:#333333;stroke-width:19.42565536"
     transform="scale(0.99716994,1.0028381)"
     aria-label="鷹">
    <path
       id="path7"
       style="font-style:normal;font-variant:normal;font-weight:normal;font-stretch:normal;font-size:427.35855103px;font-family:'衡山毛筆フォント OTF';-inkscape-font-specification:'衡山毛筆フォント OTF, Normal';font-variant-ligatures:normal;font-variant-caps:normal;font-variant-numeric:normal;font-feature-settings:normal;text-align:start;writing-mode:lr-tb;text-anchor:start;white-space:pre;fill:#333333;stroke-width:19.42565536"
       d="m 358.45809,478.64157 h 1.28207 l 1.28208,-2.56416 7.2651,-2.99151 c 3.41886,-14.95755 7.69245,-29.48774 13.24811,-43.59057 5.1283,-13.67547 10.25661,-27.7783 15.81227,-41.45378 l 15.3849,-10.2566 -1.28207,-5.12831 -33.76133,-10.2566 c -22.22264,4.70094 -44.44529,9.82925 -66.66793,14.10283 -22.65,4.70095 -44.87265,11.11132 -65.81322,17.94906 h -6.83773 v -6.41038 h 8.11981 v -4.27358 c 21.36793,-7.69246 43.16321,-14.53019 65.38586,-21.36793 21.79528,-6.41038 44.01793,-11.96604 67.52265,-16.66698 h -1.70944 v -4.27359 l 10.25661,-3.84623 v -1.28207 l -2.99151,-1.28208 c -10.68397,-1.28207 -19.65849,-0.42736 -28.20567,1.70944 -8.11981,2.13679 -16.66698,4.27358 -24.78679,6.41037 h -2.99151 c 3.84623,-6.41037 6.83774,-13.67547 9.82925,-21.36792 2.99151,-6.83774 5.98301,-14.53019 9.82924,-21.79529 l 9.82925,-4.27358 1.28207,-4.27359 7.2651,-2.99151 -2.99151,-8.11981 c -5.55566,-2.1368 -11.53868,-3.84623 -17.94906,-5.98302 -6.83774,-1.70944 -12.82076,-3.84623 -18.37642,-6.83774 l -12.3934,2.99151 -1.70943,2.56415 -37.60755,8.54717 -8.54717,8.11982 v 1.70943 l 5.55566,-2.99151 c 3.84623,-0.85472 7.26509,-0.42736 9.82924,0.85472 2.99151,1.28207 5.12831,2.99151 7.2651,5.1283 l 4.27359,2.56415 v 1.70944 l 9.40188,-4.27359 h 4.27359 v 6.83774 c -10.25661,1.70943 -20.51321,3.84622 -30.34246,6.83773 -10.68396,2.99151 -20.08585,7.2651 -29.9151,12.3934 H 243.926 v -5.1283 c -2.99151,3.84623 -6.41038,5.1283 -11.11133,4.70094 -4.27358,-0.42736 -8.97453,0 -12.82075,0.42736 l -20.94057,-0.85472 h -1.28208 l 19.6585,12.3934 4.27358,13.67548 -1.70943,23.93207 15.38491,22.22265 v 2.56415 h -6.83774 v 2.99151 l 23.50472,10.25661 c 16.66698,-4.70095 33.76132,-9.82925 50.85567,-14.53019 17.09434,-4.27359 34.61604,-8.11982 52.5651,-11.11133 h 5.55566 c 0,10.25661 0,20.51321 0,29.9151 0,9.82925 -1.70943,18.80378 -5.55566,27.77831 l -11.11132,-2.99151 h -8.54717 v 1.28207 h 2.99151 c 1.70943,7.2651 3.84622,14.53019 6.83773,21.79529 2.99151,6.83774 7.2651,13.24811 12.82076,18.80378 z M 217.42977,461.97458 h 1.28207 v -2.99151 l 7.2651,-5.55566 -1.70944,-8.11981 -19.65849,-12.82076 h -34.61604 v 1.28208 z m 48.71887,-11.53868 h 2.56415 l 1.70944,-5.1283 5.55566,-1.28208 v -5.98302 l -11.53868,-12.39339 -8.11982,-4.27359 -30.34245,2.99151 v 1.28208 c 6.83773,1.70943 13.67547,5.55566 20.08585,11.96603 5.98302,5.98302 12.82076,9.82925 20.08585,12.82076 z m 32.47925,-8.11981 2.13679,-1.28208 -2.13679,-2.99151 v -2.99151 l 5.1283,-2.56415 c -0.85471,-4.70094 -2.99151,-8.11981 -6.41037,-10.68396 -3.84623,-2.13679 -7.69246,-4.27359 -11.53869,-5.98302 l -14.10283,1.28207 7.2651,8.54718 16.66698,12.39339 v 2.99151 z M 85.803333,428.21326 94.350504,424.36703 C 117.85522,385.05004 139.22315,344.02362 159.309,301.28777 c 20.08586,-43.16322 34.18869,-86.75379 42.73586,-131.19908 v -7.26509 l -7.2651,-2.56416 h -13.67547 l -1.70943,3.84623 -8.11982,2.99151 -4.27358,13.67548 c 0,2.99151 0,5.98302 -0.42736,9.82924 -0.42736,3.84623 0.42736,6.41038 3.41887,8.54717 -3.84623,41.02642 -13.24812,80.77077 -29.06038,118.80568 -15.38491,38.03491 -33.76133,74.78775 -55.129257,110.25851 z m 243.167017,0 h 1.70943 l -1.70943,-1.28208 v -4.27358 l 6.83774,-5.55567 -11.11133,-8.11981 h -15.3849 z m -15.38491,-80.77077 -65.81322,20.94057 h -2.56415 l 2.56415,-11.53868 c 9.82925,-4.27359 19.23114,-8.11981 29.06039,-11.11132 9.40188,-2.99151 19.23113,-5.55567 28.20566,-8.11982 l 10.2566,8.11982 z m -9.82925,-16.66698 c -8.11981,1.70943 -16.66698,3.84622 -24.78679,5.98302 -8.54717,2.13679 -16.66699,4.70094 -25.21416,7.69245 h -7.26509 l -1.28208,-6.83774 v -2.56415 c 10.25661,-2.13679 19.6585,-4.70094 29.48774,-8.11981 8.97453,-3.41887 18.37642,-6.83774 27.77831,-11.53868 h 4.27358 l -4.27358,8.11981 1.28207,4.27359 z m -82.05284,-22.65001 9.40189,-5.55566 1.28208,-3.84622 12.82075,-5.98302 22.22265,-20.94057 2.99151,-5.12831 4.27358,0.85472 4.27359,7.2651 8.11981,-2.99151 4.27359,-24.7868 9.40188,3.84623 1.70944,4.27358 c 6.41038,-2.99151 13.24811,-5.1283 20.08585,-5.98302 7.2651,-1.28207 14.10283,-2.99151 21.79529,-5.1283 l 14.10283,1.28208 h 27.7783 l 4.27359,-5.55566 8.54717,-1.28208 -1.70943,-8.11981 -32.05189,-7.2651 h -8.54718 v 2.99151 l -12.39339,2.56415 h -4.27359 l 5.55566,-16.66698 14.10283,-5.55566 1.28208,-4.27359 4.27359,-1.70943 1.70943,-2.56415 v -2.56415 h -22.65 l 1.28207,-4.27359 9.82925,-4.27358 c 0.85472,-1.28208 2.13679,-2.1368 4.27358,-2.56416 2.1368,-0.42735 2.99151,-1.70943 2.99151,-4.70094 l 5.55567,-3.84623 v -2.99151 l -2.99151,-1.28207 -13.67548,2.99151 h -4.27358 l 2.56415,-8.54717 17.09434,-8.11982 6.41038,-5.98302 -2.56415,-5.55566 c -12.82076,1.70944 -24.7868,5.12831 -35.89812,10.25661 -11.53868,5.1283 -22.65,10.2566 -34.18869,14.95755 h -3.84622 v -4.27359 h -4.27359 v 8.54717 h 2.99151 v 2.56415 l 3.84623,4.27359 8.54717,-2.99151 h 5.55566 l 4.27359,5.55566 v 2.99151 l -17.09435,7.2651 h -5.1283 l -1.28207,-11.53868 -2.99151,-1.28208 -18.37642,1.28208 h -10.68397 l 1.28208,-5.55567 c 5.1283,-4.27358 10.68396,-9.82924 16.23963,-15.3849 4.70094,-5.12831 11.11132,-8.11982 18.80377,-8.11982 l 10.68397,-11.53868 v -3.84622 l -17.94906,-5.55567 c -3.84623,0 -7.2651,0 -10.68397,0.42736 -3.84622,0.42736 -7.26509,1.70944 -10.2566,3.84623 0,11.11132 -2.56415,20.94057 -7.2651,29.48774 -5.55566,8.97453 -11.11132,17.94906 -16.66698,27.77831 v 3.84622 h 2.99151 v -2.99151 h 2.56415 l 5.98302,-8.11981 5.55566,1.70943 0.85472,4.27359 8.54717,2.13679 2.99151,12.82076 c 0,8.11981 0,16.23962 -0.42736,23.93208 -0.42736,8.11981 -2.13679,15.81226 -5.1283,22.22264 l 2.56415,7.2651 v 2.56415 l -12.3934,-2.56415 c -2.99151,0 -5.98302,-0.42736 -9.82925,-0.85472 -3.84622,-0.42736 -6.41037,0.42736 -8.11981,3.41887 h -4.27358 l 9.40188,-49.14623 -1.28207,-5.12831 c -3.41887,-3.84622 -7.69246,-6.41037 -12.3934,-7.26509 -4.70094,-0.85472 -9.82925,-0.85472 -15.38491,0 l 8.54717,-12.3934 5.12831,-2.99151 21.36792,-27.77831 4.27359,-6.83773 v -5.98302 l -18.37642,-5.1283 h -2.99151 v 2.13679 l -9.40189,1.70943 c -2.13679,14.53019 -5.98302,29.06038 -11.96604,42.3085 -5.98302,13.67547 -13.24811,26.49623 -21.79528,38.88963 v 1.28207 l 19.65849,-23.93208 12.82076,7.2651 c 0,8.11981 -0.42736,16.66698 -0.85472,24.7868 -0.42736,8.54717 -1.70943,16.23962 -3.41887,23.93207 h -2.99151 l 5.55566,14.10284 h 4.27359 l 1.28207,6.83773 h 2.56416 v -2.56415 h 5.98302 c -1.28208,5.55566 -2.99151,10.25661 -5.98302,14.95755 -2.99151,4.70095 -5.98302,9.40189 -10.68397,14.10283 z m 105.98492,-75.64246 -20.94057,5.98302 h -12.39339 l 1.28207,-17.09434 27.77831,-6.83774 h 4.27358 v 4.27359 h -4.27358 l 4.27358,11.53868 z m -1.28207,-29.06038 -22.65001,11.11132 h -8.11981 V 197.867 l 3.84623,1.28207 22.65,-5.1283 6.83774,2.13679 z m -4.27359,-23.93208 h -5.55566 l 1.28208,-3.84623 h 4.27358 z m -12.82075,-21.79529 c 6.83773,-1.28207 12.82075,-2.99151 18.37641,-5.55566 5.55566,-2.13679 11.11133,-4.70094 16.66699,-7.69245 v -5.1283 l -11.11133,-9.82925 -16.66698,1.28207 6.83774,7.2651 v 5.1283 z m -121.36983,-5.98302 c 2.13679,1.28208 3.41887,1.28208 4.70094,0 0.42736,-0.85471 1.28208,-2.13679 2.13679,-4.27358 16.66699,-5.98302 34.18869,-11.53868 52.99246,-15.38491 18.80378,-3.84623 36.75284,-7.26509 54.7019,-10.68396 8.54717,0 17.09434,0 26.06887,0 8.54717,0 16.66698,0.85471 24.35944,2.56415 3.41887,0 7.26509,-0.85472 10.68396,-2.13679 2.99151,-1.28208 5.98302,-3.84623 8.54717,-7.69246 v -7.26509 l -5.1283,-3.84623 c -34.61604,-2.13679 -67.52265,1.70943 -98.71983,10.2566 -31.19717,8.97453 -63.24906,14.10284 -97.01039,16.23963 v 2.56415 h -2.99151 v 4.27359 l -14.95755,4.27358 8.11982,6.83774 9.82924,-2.99151 z m 51.71038,-40.59906 c 4.70095,0 8.97453,-0.85472 13.24812,-2.99151 4.27358,-1.28207 8.11981,-4.27358 11.53868,-8.11981 l -0.85472,-4.273586 c -5.55566,-5.555661 -11.96604,-8.97453 -17.94906,-11.111323 -6.83774,-1.709434 -14.10283,-2.99151 -21.36793,-3.846227 h -12.82075 v 2.564152 c 2.99151,4.700944 6.41038,8.547171 10.2566,11.538681 3.84623,3.418868 7.69246,5.983023 12.3934,8.119813 l 2.56415,6.83774 z" />
  </g>
</svg>
