<?xml version="1.0" encoding="UTF-8" standalone="no"?>
<!-- Created with Inkscape (http://www.inkscape.org/) -->

<svg
   version="1.1"
   id="svg309"
   width="500"
   height="500"
   viewBox="0 0 500 500"
   sodipodi:docname="f_ky_image.svg"
   inkscape:version="1.2.2 (b0a8486541, 2022-12-01)"
   xmlns:inkscape="http://www.inkscape.org/namespaces/inkscape"
   xmlns:sodipodi="http://sodipodi.sourceforge.net/DTD/sodipodi-0.dtd"
   xmlns="http://www.w3.org/2000/svg"
   xmlns:svg="http://www.w3.org/2000/svg">
  <defs
     id="defs313" />
  <sodipodi:namedview
     id="namedview311"
     pagecolor="#ffffff"
     bordercolor="#666666"
     borderopacity="1.0"
     inkscape:showpageshadow="2"
     inkscape:pageopacity="0.0"
     inkscape:pagecheckerboard="0"
     inkscape:deskcolor="#d1d1d1"
     showgrid="false"
     inkscape:zoom="1.4142136"
     inkscape:cx="229.8097"
     inkscape:cy="260.21529"
     inkscape:window-width="1854"
     inkscape:window-height="1011"
     inkscape:window-x="66"
     inkscape:window-y="32"
     inkscape:window-maximized="1"
     inkscape:current-layer="g315" />
  <g
     inkscape:groupmode="layer"
     inkscape:label="Image"
     id="g315">
    <path
       d="M 255.42627,1.076354 53.632023,101.67003 1.6637126,499.89895 501.66371,501.07635 453.51239,104.01079 Z"
       style="fill:#f0b53a;fill-opacity:1;fill-rule:evenodd;stroke:none;stroke-width:0.101199;stroke-linecap:butt;stroke-linejoin:miter;stroke-dasharray:none;stroke-opacity:1"
       id="path17654" />
  </g>
  <g
     inkscape:groupmode="layer"
     id="layer1"
     inkscape:label="trace">
    <path
       style="fill:#d6d6d6;fill-rule:evenodd;stroke:none;stroke-width:1px;stroke-linecap:butt;stroke-linejoin:miter;stroke-opacity:1;fill-opacity:1"
       d="m 162.60709,347.62592 -17.25615,30.61032 -5.23057,18.83612 -15.75073,48.71246 -0.53848,18.63209 6.09493,7.84453 4.99585,0.74274 6.42907,-4.01862 9.17298,-7.54002 7.59947,11.29346 4.04858,2.11845 4.80203,-0.75626 9.79302,-11.6559 7.01492,10.80247 h 4.45464 l 11.34816,-8.4001 14.19412,11.78699 7.5367,-13.91883 -1.76613,-40.6646 -17.85953,-82.61754 z"
       id="path1059" />
    <path
       style="fill:#000000;fill-rule:evenodd;stroke:none;stroke-width:1px;stroke-linecap:butt;stroke-linejoin:miter;stroke-opacity:1;fill-opacity:0.99821883"
       d="M 0.61451061,406.80381 136.37589,401.29869 330.1033,390.79127 l 75.78592,-0.61595 13.89579,1.22889 79.33673,0.67659 0.358,31.20041 -175.13986,-1.57503 -18.75344,-4.06893 -23.68407,3.44898 -66.41266,-1.55426 -67.37027,-0.14032 -77.749413,7.52003 -68.6555779,8.02552 z"
       id="path1057" />
    <path
       style="fill:#848484;fill-rule:evenodd;stroke:none;stroke-width:1.0015748;stroke-linecap:butt;stroke-linejoin:miter;stroke-opacity:1;fill-opacity:1;stroke-dasharray:none"
       d="m 207.5338,362.98846 1.65202,21.48008 -10.14864,8.42862 -4.05522,9.30869 8.99739,11.53002 8.46167,-15.69183 9.03967,21.88725 5.35012,-20.6898 17.13267,8.78012 -2.02387,-16.44514 -14.18286,-6.8608 -1.12101,-22.02231 z"
       id="path1061" />
    <path
       style="fill:#848484;fill-rule:evenodd;stroke:none;stroke-width:1.0015748;stroke-linecap:butt;stroke-linejoin:miter;stroke-opacity:1;fill-opacity:1;stroke-dasharray:none"
       d="m 253.00989,360.92295 1.46997,23.62785 -10.57592,9.81966 5.62443,12.36752 9.27601,-12.04178 16.48349,16.81667 1.64353,-18.66584 17.84121,9.49711 -1.06502,-12.17015 -24.87132,-10.49695 -2.36106,-19.07203 z"
       id="path1063" />
    <path
       style="fill:#d6d6d6;fill-opacity:1;fill-rule:evenodd;stroke:none;stroke-width:1px;stroke-linecap:butt;stroke-linejoin:miter;stroke-opacity:1"
       d="m 248.19042,185.18884 -14.61722,9.56869 0.61932,21.9352 -39.19976,-5.68186 -2.26879,8.53428 4.55581,131.22121 c 0,0 2.89004,9.74904 6.24375,13.33099 2.48337,2.65239 5.92788,4.92935 9.54608,5.26242 3.67293,0.33811 7.69962,-1.08594 10.50286,-3.48314 2.71188,-2.31908 4.28083,-6.00136 4.90579,-9.51446 0.49867,-2.80318 -1.05607,-8.47602 -1.05607,-8.47602 l 18.12596,-1.18296 c 0,0 1.81123,15.86563 7.75471,19.63046 3.18546,2.0178 7.80627,0.70934 11.2882,-0.73803 6.25855,-2.60155 10.76113,-8.37047 15.25152,-13.44727 11.08942,-12.53761 20.51769,-26.65184 28.36064,-41.43883 7.38904,-13.9312 14.62882,-28.48253 17.33466,-44.01812 2.85783,-16.40827 -3.23101,-33.37657 -1.51253,-49.94296 0.40818,-3.93492 2.46025,-7.59379 2.78651,-11.53635 0.57901,-6.99685 3.23178,-15.83273 -1.51253,-21.00793 -21.75034,-23.72579 -77.10891,0.98468 -77.10891,0.98468 z"
       id="path1817"
       sodipodi:nodetypes="ccccccssssccssssssssc" />
    <path
       style="fill:#000000;fill-rule:evenodd;stroke:none;stroke-width:1px;stroke-linecap:butt;stroke-linejoin:miter;stroke-opacity:1;fill-opacity:1"
       d="m 234.55108,149.44136 -12.21285,20.27968 -0.67383,6.71865 -10.24976,9.92906 2.18349,2.99062 -16.66781,22.00334 34.64454,-0.0845 8.53991,-17.94193 12.09995,-9.11339 4.92148,6.74757 12.31611,-8.33012 11.27135,9.79446 11.9341,-7.56264 6.99244,8.41385 11.44177,-7.36074 13.02395,8.5887 5.00277,-8.08095 -2.3029,-14.99394 8.83329,-20.56515 7.01681,-23.90223 -6.99659,-13.48593 -17.65621,-10.82943 -20.66427,-10.260433 -30.43081,-5.830673 4.80563,8.089333 -27.92508,1.155629 7.70074,8.957144 -19.62935,5.85146 9.56874,3.27492 -10.44202,8.98287 4.84727,2.14825 z"
       id="path2643" />
    <path
       style="fill:#414141;fill-rule:evenodd;stroke:none;stroke-width:1px;stroke-linecap:butt;stroke-linejoin:miter;stroke-opacity:1;fill-opacity:1"
       d="m 220.4742,203.8411 c -6.82849,0.0498 -13.89952,0.95525 -20.14683,3.71241 -4.13385,1.82441 -7.88609,4.73919 -10.79938,8.19316 -4.14894,4.91895 -6.36907,11.21404 -8.90789,17.12709 -6.41843,14.94883 -10.65076,30.74458 -15.88491,46.14807 -2.63571,7.75659 -6.63883,15.19354 -7.81513,23.30082 -0.76708,5.28686 1.27253,10.72106 0.56784,16.0166 -1.63569,12.29172 -10.99444,35.53841 -10.99444,35.53841 l 16.49347,-2.65884 -3.12772,13.8068 15.26311,-9.65925 7.22587,10.50248 c 0,0 9.72336,-4.87557 13.90923,-8.28045 15.58378,-12.67622 28.87689,-28.19984 40.72585,-44.42151 5.45559,-7.46891 10.43461,-15.46105 13.78022,-24.08398 3.62667,-9.34734 5.7364,-19.35962 6.57909,-29.35038 0.69432,-8.23177 0.67421,-16.72599 -1.29351,-24.74922 -1.84822,-7.53596 -4.87443,-15.07711 -9.67837,-21.17045 -2.38673,-3.02734 -5.57917,-5.57261 -9.10544,-7.13041 -5.19247,-2.29388 -11.11462,-2.88277 -16.79106,-2.84135 z"
       id="path2641"
       sodipodi:nodetypes="ssssssscccccssssssss" />
    <path
       style="fill:#ffffff;fill-rule:evenodd;stroke:none;stroke-width:0.37795276;stroke-linecap:butt;stroke-linejoin:miter;stroke-opacity:1;fill-opacity:1;stroke-dasharray:none"
       d="m 281.08726,131.21114 23.26983,9.57389 c 0,0 -2.57685,3.83717 -4.41875,5.15021 -1.81212,1.29181 -4.05459,1.89424 -6.2076,2.45736 -1.65147,0.43194 -3.44828,1.20613 -5.07469,0.68774 -2.06305,-0.65756 -3.37741,-2.75766 -4.74498,-4.43644 -1.30537,-1.60243 -2.72186,-3.28885 -3.23137,-5.29189 -0.6698,-2.63317 0.40756,-8.14087 0.40756,-8.14087 z"
       id="path2647"
       sodipodi:nodetypes="ccsssssc" />
    <path
       style="fill:#ffffff;fill-rule:evenodd;stroke:none;stroke-width:0.37795276;stroke-linecap:butt;stroke-linejoin:miter;stroke-opacity:1;fill-opacity:1;stroke-dasharray:none"
       d="m 322.25544,139.9284 12.93619,-5.39934 c 0,0 0.72162,6.78339 -1.04315,9.39288 -0.91433,1.35199 -2.697,2.1018 -4.31534,2.31358 -1.58452,0.20736 -3.39006,-0.1393 -4.66577,-1.10172 -1.58717,-1.19738 -2.91193,-5.2054 -2.91193,-5.2054 z"
       id="path2649"
       sodipodi:nodetypes="ccsssc" />
    <path
       style="fill:#000000;fill-rule:evenodd;stroke:none;stroke-width:0.377953;stroke-linecap:butt;stroke-linejoin:miter;stroke-dasharray:none;stroke-opacity:1;fill-opacity:1"
       d="m 326.5055,138.30397 5.27991,-2.43176 -0.34915,4.07179 c 0,0 -0.76854,3.01308 -2.00965,3.16921 -0.89538,0.11264 -1.97096,-1.85605 -1.97096,-1.85605 z"
       id="path996"
       sodipodi:nodetypes="cccscc" />
    <path
       style="fill:#000000;fill-rule:evenodd;stroke:none;stroke-width:1px;stroke-linecap:butt;stroke-linejoin:miter;stroke-opacity:1;fill-opacity:1"
       d="m 288.42149,133.74703 11.73513,4.96378 -3.84405,3.17293 c 0,0 -4.16244,2.51903 -6.16804,1.77434 -1.77007,-0.65724 -3.10251,-4.73923 -3.10251,-4.73923 z"
       id="path998"
       sodipodi:nodetypes="cccscc" />
    <path
       style="fill:#484848;fill-rule:evenodd;stroke:none;stroke-width:1px;stroke-linecap:butt;stroke-linejoin:miter;stroke-opacity:1;fill-opacity:1"
       d="m 305.39814,155.92221 14.68949,-7.09542 10.25672,1.5724 3.31139,4.10664 3.89485,6.22416 2.16845,7.86994 -0.8617,9.32073 -12.12034,-11.3653 -8.72248,-6.03994 -8.09217,-3.62576 z"
       id="path1049" />
  </g>
</svg>
