<?xml version="1.0" encoding="UTF-8" standalone="no"?>
<!-- Created with Inkscape (http://www.inkscape.org/) -->

<svg
   version="1.1"
   id="svg14734"
   width="500"
   height="500"
   viewBox="0 0 500 500"
   sodipodi:docname="f_ny_image.svg"
   inkscape:version="1.2.2 (b0a8486541, 2022-12-01)"
   xmlns:inkscape="http://www.inkscape.org/namespaces/inkscape"
   xmlns:sodipodi="http://sodipodi.sourceforge.net/DTD/sodipodi-0.dtd"
   xmlns="http://www.w3.org/2000/svg"
   xmlns:svg="http://www.w3.org/2000/svg">
  <defs
     id="defs14738" />
  <sodipodi:namedview
     id="namedview14736"
     pagecolor="#ffffff"
     bordercolor="#666666"
     borderopacity="1.0"
     inkscape:showpageshadow="2"
     inkscape:pageopacity="0.0"
     inkscape:pagecheckerboard="0"
     inkscape:deskcolor="#d1d1d1"
     showgrid="false"
     inkscape:zoom="1.3222897"
     inkscape:cx="264.69238"
     inkscape:cy="234.44182"
     inkscape:window-width="1854"
     inkscape:window-height="1011"
     inkscape:window-x="66"
     inkscape:window-y="32"
     inkscape:window-maximized="1"
     inkscape:current-layer="g14740" />
  <g
     inkscape:groupmode="layer"
     inkscape:label="Image"
     id="g14740">
    <path
       d="M 253.42627,1.076354 51.632023,101.67003 -0.3362874,499.89895 499.66371,501.07635 451.51239,104.01079 Z"
       style="fill:#f0b53a;fill-opacity:1;fill-rule:evenodd;stroke:none;stroke-width:0.101199;stroke-linecap:butt;stroke-linejoin:miter;stroke-dasharray:none;stroke-opacity:1"
       id="path17654" />
  </g>
  <g
     inkscape:groupmode="layer"
     id="layer4"
     inkscape:label="trace">
    <path
       style="fill:#ff8484;fill-rule:evenodd;stroke:none;stroke-width:1px;stroke-linecap:butt;stroke-linejoin:miter;stroke-opacity:1;fill-opacity:1"
       d="m 225.09741,436.34218 5.69058,27.12848 -12.11204,3.42871 -10.56969,9.88498 h 11.92754 l 11.88646,-4.71244 4.77406,20.10428 6.56243,-10.34176 v -7.79634 l 10.75557,10.10557 0.51813,-7.63682 -1.57036,-4.8119 10.78617,2.24686 -0.75626,-8.51323 -9.1679,-5.92793 -11.11095,1.08136 -1.73691,-28.36327 z"
       id="path14934" />
    <path
       style="fill:#ff8484;fill-rule:evenodd;stroke:none;stroke-width:1px;stroke-linecap:butt;stroke-linejoin:miter;stroke-opacity:1;fill-opacity:1"
       d="m 281.19216,434.49061 4.82651,26.11965 -16.87501,4.26038 -5.70186,9.71572 3.58906,7.83313 3.27697,-8.19444 15.77015,-4.20323 4.15773,6.18469 1.53969,11.03721 6.31267,-4.58945 2.39815,-6.2188 -0.52806,-7.31737 7.35454,4.70053 1.94382,4.29247 4.26894,5.53298 3.66566,-8.28234 -1.53603,-3.72788 4.95061,-1.01527 2.0811,7.37089 2.59987,-11.85041 -2.13904,-6.24938 -8.58379,-3.43599 -10.6177,-1.45998 -5.85909,-20.88897 z"
       id="path14936" />
    <path
       style="fill:#ffc6c6;fill-rule:evenodd;stroke:none;stroke-width:1px;stroke-linecap:butt;stroke-linejoin:miter;stroke-opacity:1;fill-opacity:1;opacity:1"
       d="m 367.17967,210.50314 c 3.14412,6.93302 13.31927,8.85189 16.53713,15.75099 2.26199,4.84972 0.5058,10.69468 1.0124,16.02194 0.36226,3.80939 3.06481,7.91951 1.44852,11.38798 -0.87175,1.87073 -0.71312,4.19917 -1.5527,6.08456 -2.69149,6.04413 -0.58437,10.24524 -0.4753,16.86066 0.21164,12.83593 -1.45567,25.8344 -4.90892,38.1989 -3.33901,11.95544 -9.24483,23.09283 -15.07862,34.04949 -4.86977,9.14611 -10.46543,17.9267 -16.55522,26.31004 -7.23828,9.96437 -15.32206,19.31389 -23.65601,28.38177 -1.49683,1.62865 -3.38715,2.8988 -4.72168,4.66289 -0.95343,1.26032 -1.87794,2.62613 -2.28806,4.15232 -1.73277,6.4482 1.20277,13.55173 -0.42875,20.02629 -0.76338,3.02941 -1.52616,6.84111 -4.26375,8.34631 -3.01914,1.66 -7.15525,0.46579 -10.29147,-0.96073 -1.4126,-0.64253 -1.91979,-2.66341 -3.37234,-3.20964 -5.44903,-2.04909 -11.6884,1.556 -17.44982,0.72126 -0.83957,-0.12164 -1.57557,-0.98371 -2.40844,-0.82247 -1.63361,0.31627 -2.25096,2.60474 -3.78059,3.2597 -1.682,0.7202 -3.8051,1.30881 -5.46301,0.53476 -4.1249,-1.92585 -3.20701,-11.96375 -7.70688,-11.27463 -2.77468,0.42492 -0.32896,6.22144 -2.45384,8.05563 -2.21359,1.91077 -5.75111,1.31192 -8.67531,1.30315 -2.21889,-0.007 -4.358,-1.00651 -6.57679,-1.0283 -6.83667,-0.0671 -13.58766,3.94387 -20.32311,2.76989 -2.28887,-0.39895 -3.85824,-3.15264 -6.18057,-3.2223 -2.85046,-0.0855 -4.99148,3.05625 -7.80953,3.4933 -2.78428,0.43181 -5.6667,-1.64051 -8.3989,-0.95221 -7.58967,1.91199 -12.36602,9.73964 -19.29314,13.38295 -8.0193,4.21774 -16.58604,11.63263 -25.42154,9.62453 -1.09007,-0.24775 -1.24647,-2.09804 -2.31503,-2.42639 -3.24761,-0.99794 -6.818,3.43641 -9.96289,2.15091 -3.01833,-1.23376 -2.33477,-7.00041 -5.37808,-8.1712 -6.363,-2.44791 -15.02825,10.01651 -19.79572,5.14298 -2.53424,-2.59063 4.96917,-7.44088 2.9647,-10.46012 -3.19386,-4.81076 -14.1166,2.77052 -17.19363,-2.1158 -2.96419,-4.70713 1.93496,-11.40267 5.3188,-15.81777 12.98729,-16.94528 39.61411,-19.1191 53.31673,-35.49135 43.0249,-51.40727 53.32507,-123.01184 80.20878,-184.42125 5.27847,-12.05741 5.65685,-27.89601 15.92218,-36.13412 10.25755,-8.23187 25.71303,-5.60602 38.69508,-7.71491 9.8299,-1.59683 19.76081,-4.9729 29.6421,-3.7332 7.3669,0.92425 14.83568,3.6375 20.72691,8.15621 5.41742,4.15529 8.31336,10.84031 12.18403,16.46461 1.97384,2.8681 4.57696,5.48152 5.62287,8.80239 1.38908,4.41045 -1.33038,9.64876 0.57941,13.85998 z"
       id="path15664"
       sodipodi:nodetypes="ssssssssssssssssssssssssssssssssssssssssssssss" />
    <path
       style="fill:#ff0000;fill-rule:evenodd;stroke:none;stroke-width:1px;stroke-linecap:butt;stroke-linejoin:miter;stroke-opacity:1;fill-opacity:1"
       d="m 218.69236,214.32257 c -3.02063,1.69138 -5.55088,4.41936 -7.25218,7.43441 -3.7845,6.70691 -3.56583,14.99398 -5.81584,22.35894 -2.78601,9.11943 -6.6605,17.88008 -9.50001,26.98299 -4.42674,14.19125 -7.92061,28.65739 -11.73278,43.02593 -2.79385,10.53037 -4.22522,21.49027 -8.16403,31.64803 -0.59188,1.52639 -1.71197,2.81167 -2.30001,4.33954 -5.11425,13.28812 -7.55036,27.47653 -10.46142,41.41408 -1.22249,5.85301 -1.00439,12.03721 -2.93537,17.69615 -2.78989,8.17609 -12.27244,22.82705 -12.27244,22.82705 l 16.43308,-8.55226 4.5135,4.68668 14.61074,-6.73982 9.76843,-9.83792 2.03381,6.02956 c 0,0 14.05999,-9.05542 20.19461,-14.6786 10.64094,-9.75382 20.16162,-20.83736 28.40651,-32.68592 6.27166,-9.01286 10.98023,-19.038 15.80458,-28.90162 5.10086,-10.42897 10.28182,-20.90741 13.86301,-31.95083 4.40297,-13.57757 7.95516,-27.59477 9.25257,-41.80931 0.90659,-9.93272 1.29428,-20.21305 -1.06952,-29.90291 -2.05143,-8.40939 -4.6488,-17.72188 -11.12638,-23.46358 -4.73279,-4.19513 -11.77357,-4.87749 -17.99519,-6.01325 -7.54384,-1.37713 -15.66548,-3.16483 -22.98835,-0.88851 -3.38153,1.05115 -5.29669,4.87273 -8.51215,6.35613 -0.85512,0.39449 -1.93349,0.16494 -2.75517,0.62504 z"
       id="path18570"
       sodipodi:nodetypes="sssssssssccccccsssssssssss" />
    <path
       style="opacity:1;fill:#ff0000;fill-opacity:1;fill-rule:evenodd;stroke:none;stroke-width:1px;stroke-linecap:butt;stroke-linejoin:miter;stroke-opacity:1"
       d="m 252.52627,191.80634 c 0,0 -3.84589,-24.05659 -4.04157,-36.19499 -0.10354,-6.42302 0.29044,-12.90647 1.52013,-19.21153 0.90982,-4.66496 1.72064,-9.60234 4.299,-13.59505 2.71472,-4.20388 6.9594,-7.3327 11.18428,-10.01462 5.08742,-3.22945 10.7614,-5.74904 16.64396,-7.05541 5.88952,-1.30791 12.05587,-0.51149 18.0872,-0.65351 4.62796,-0.10898 9.29389,-0.73045 13.8869,-0.15235 5.38481,0.67776 10.5887,2.46553 15.72883,4.20754 4.46083,1.51179 9.23222,2.65205 13.05764,5.3999 4.6541,3.3431 8.12506,8.18542 11.29799,12.95715 2.91674,4.38645 4.75714,9.40264 6.96634,14.18466 3.28291,7.10616 7.05842,14.0583 9.33981,21.54631 1.17031,3.84122 1.5259,7.88572 2.18571,11.84668 1.76523,10.597 1.98579,23.17296 7.38177,32.46251 1.63543,2.8155 2.98144,2.9291 5.04101,5.45098 4.08625,5.00351 6.82631,11.13767 8.68827,17.32359 2.3887,7.9359 2.85644,16.3976 2.97336,24.68438 0.11495,8.14702 -0.74328,16.33121 -2.23735,24.34088 -1.47643,7.91507 -3.14913,15.96284 -6.60955,23.23289 -2.71992,5.71431 -10.89709,15.54719 -10.89709,15.54719 0,0 5.1754,-21.04633 6.02498,-31.80209 0.75341,-9.53832 -1.5364,-19.14821 -0.84907,-28.69152 0.25979,-3.60713 1.66903,-7.07597 1.87166,-10.68677 0.35622,-6.34749 1.42474,-13.23174 -1.16763,-19.03667 -2.62067,-5.86831 -10.21017,-8.22835 -13.54263,-13.72377 -2.41082,-3.97558 -3.33969,-8.72269 -4.27468,-13.27715 -0.67094,-3.26823 -2.93683,-5.54788 -4.07512,-8.68408 -2.41871,-6.66399 -3.91826,-13.77429 -8.91809,-18.80028 -2.47816,-2.49112 -5.4862,-4.49736 -8.65191,-6.02223 -3.96349,-1.90915 -8.26465,-3.39586 -12.64802,-3.77018 -1.47344,-0.12582 -3.14682,-0.24921 -4.40485,0.5281 -1.32458,0.81843 -2.29091,2.36762 -2.57232,3.89901 -0.49438,2.69038 1.38386,5.30366 1.78866,8.00897 1.02385,6.84242 7.89005,17.80471 1.60353,20.69376 -12.60613,5.7933 -16.14037,-25.36943 -29.39568,-29.46499 -13.21106,-4.08189 -27.72973,2.58151 -37.87172,11.98013 -4.25435,3.94252 -7.41375,12.54256 -7.41375,12.54256 z"
       id="path19329"
       sodipodi:nodetypes="cssssssssssssssssssscssssssssssssssssc" />
    <ellipse
       style="opacity:1;fill:#000000;fill-opacity:1;stroke:none;stroke-width:1;stroke-linecap:round;stroke-dasharray:none;stroke-opacity:1"
       id="path19331"
       cx="261.52225"
       cy="143.15868"
       rx="4.4146628"
       ry="3.9379418" />
    <ellipse
       style="opacity:1;fill:#000000;fill-opacity:1;stroke:none;stroke-width:1;stroke-linecap:round;stroke-dasharray:none;stroke-opacity:1"
       id="path19333"
       cx="313.01401"
       cy="144.62675"
       rx="5.4536028"
       ry="5.3669858" />
    <path
       style="fill:#ff8484;fill-opacity:1;fill-rule:evenodd;stroke:none;stroke-width:1px;stroke-linecap:butt;stroke-linejoin:miter;stroke-opacity:1"
       d="m 264.50158,154.10415 c 1.3301,-1.95484 3.38336,-3.48603 5.56432,-4.39927 2.77324,-1.16125 5.95694,-1.39805 8.95028,-1.11654 3.19521,0.3005 6.35036,1.40875 9.16416,2.95219 2.26616,1.24305 4.53437,2.79808 5.97155,4.94638 1.31996,1.97307 1.56933,4.4907 2.1059,6.80314 0.44617,1.92285 0.91895,5.85006 0.91895,5.85006 0,0 -7.71869,-0.70669 -9.67158,-1.76119 -2.02279,-1.09224 -4.45202,1.28768 -6.46882,2.39096 -2.87248,1.57137 -5.54525,3.58317 -7.8368,5.92179 -2.26513,2.31166 -3.71909,5.30045 -5.69481,7.86387 -1.36107,1.76593 -4.23965,5.17346 -4.23965,5.17346 0,0 -2.79591,-4.94095 -3.38415,-7.67407 -0.906,-4.20952 -0.82305,-8.6705 -0.11179,-12.91727 0.55263,-3.2996 2.30988,-6.28127 3.3522,-9.46032 0.49609,-1.51306 0.4845,-3.25672 1.38024,-4.57319 z"
       id="path21311"
       sodipodi:nodetypes="sssssscsssscssss" />
  </g>
</svg>
