<?xml version="1.0" encoding="UTF-8" standalone="no"?>
<svg
   id="svg571"
   width="500"
   height="500"
   version="1.1"
   viewBox="0 0 500 500"
   sodipodi:docname="f_ny_m.svg"
   inkscape:version="1.2.2 (b0a8486541, 2022-12-01)"
   xmlns:inkscape="http://www.inkscape.org/namespaces/inkscape"
   xmlns:sodipodi="http://sodipodi.sourceforge.net/DTD/sodipodi-0.dtd"
   xmlns="http://www.w3.org/2000/svg"
   xmlns:svg="http://www.w3.org/2000/svg"
   xmlns:rdf="http://www.w3.org/1999/02/22-rdf-syntax-ns#"
   xmlns:cc="http://creativecommons.org/ns#"
   xmlns:dc="http://purl.org/dc/elements/1.1/">
  <sodipodi:namedview
     id="namedview31251"
     pagecolor="#ffffff"
     bordercolor="#666666"
     borderopacity="1.0"
     inkscape:showpageshadow="2"
     inkscape:pageopacity="0.0"
     inkscape:pagecheckerboard="0"
     inkscape:deskcolor="#d1d1d1"
     showgrid="false"
     inkscape:zoom="0.472"
     inkscape:cx="141.94915"
     inkscape:cy="250"
     inkscape:window-width="1854"
     inkscape:window-height="1011"
     inkscape:window-x="66"
     inkscape:window-y="32"
     inkscape:window-maximized="1"
     inkscape:current-layer="svg571" />
  <metadata
     id="metadata577">
    <rdf:RDF>
      <cc:Work
         rdf:about="">
        <dc:format>image/svg+xml</dc:format>
        <dc:type
           rdf:resource="http://purl.org/dc/dcmitype/StillImage" />
        <dc:title />
      </cc:Work>
    </rdf:RDF>
  </metadata>
  <defs
     id="defs575" />
  <path
     d="M 257.42627,1.076354 55.632023,101.67003 3.6637126,499.89895 503.66371,501.07635 455.51239,104.01079 Z"
     style="fill:#f0b53a;fill-opacity:1;fill-rule:evenodd;stroke:none;stroke-width:0.101199;stroke-linecap:butt;stroke-linejoin:miter;stroke-dasharray:none;stroke-opacity:1"
     id="path29525" />
  <g
     id="text569"
     style="font-style:normal;font-variant:normal;font-weight:normal;font-stretch:normal;font-size:538.71661377px;font-family:'衡山毛筆フォント OTF';-inkscape-font-specification:'衡山毛筆フォント OTF, Normal';font-variant-ligatures:normal;font-variant-caps:normal;font-variant-numeric:normal;font-feature-settings:normal;text-align:start;writing-mode:lr-tb;text-anchor:start;white-space:pre;fill:#ff0000;stroke-width:24.48745537"
     transform="scale(0.99716994,1.0028381)"
     aria-label="鵰">
    <path
       id="path7"
       style="font-style:normal;font-variant:normal;font-weight:normal;font-stretch:normal;font-size:538.71661377px;font-family:'衡山毛筆フォント OTF';-inkscape-font-specification:'衡山毛筆フォント OTF, Normal';font-variant-ligatures:normal;font-variant-caps:normal;font-variant-numeric:normal;font-feature-settings:normal;text-align:start;writing-mode:lr-tb;text-anchor:start;white-space:pre;fill:#ff0000;stroke-width:24.48745537"
       d="m 404.64683,478.64156 h 5.92588 c 9.6969,-22.6261 17.23894,-46.86834 21.00995,-71.64931 3.77102,-24.78096 8.08075,-50.10064 12.9292,-75.95904 l 15.08407,-16.70022 2.15486,-3.77101 v -11.31305 l -5.38716,-2.15487 v -3.77101 l -19.3938,-11.85177 -24.24225,2.15487 v 5.38716 l -96.43027,21.54867 h -10.77434 l -4.30973,-15.62278 4.30973,-11.31305 10.77434,2.15486 c 15.08406,-5.38716 30.70684,-9.15818 46.32962,-11.31304 15.62279,-1.61615 31.78429,-3.77102 47.94578,-6.4646 3.77102,-1.61615 7.54204,-3.2323 10.23562,-4.84845 3.2323,-1.07744 4.84845,-4.84845 4.84845,-10.23562 l -2.15487,-5.92588 -37.17144,5.92588 h -5.92589 c 3.77102,-14.00663 6.4646,-29.0907 8.08075,-44.17476 1.07744,-15.08407 3.77102,-29.62942 7.54203,-43.63605 l 4.84845,-2.15486 3.77102,-8.08075 -1.61615,-11.31305 c -3.77102,-3.77102 -8.08075,-4.84845 -12.9292,-4.30974 -4.84845,0.53872 -8.61946,-1.61614 -11.31305,-7.00331 -8.61946,2.69358 -17.77764,5.92588 -25.85839,9.6969 -8.08075,3.77101 -17.23894,4.30973 -26.93583,1.61615 l -3.77102,5.92588 h -3.77102 v 5.38717 l 12.9292,8.08075 7.54203,-2.15487 12.9292,5.92588 -1.61615,11.31305 c -7.54203,3.77102 -15.62278,6.4646 -24.24224,7.00332 -9.15819,0.53871 -17.77765,2.15486 -26.39712,4.84845 v 5.92588 l 12.9292,9.15818 24.24225,-3.77101 c 5.38716,0 10.23561,0 14.00663,0.53871 3.2323,0.53872 5.92588,3.2323 8.61947,7.00332 v 11.31305 l -40.94247,11.85176 -18.85508,-2.15486 1.61615,-11.31305 -1.61615,-15.62278 -15.08406,-16.70022 -18.85509,-8.08075 v -3.77102 l 5.92589,-1.61614 16.1615,-26.93584 c 9.15818,-9.15818 18.85508,-15.62278 28.55198,-19.93251 10.23561,-4.30973 19.39379,-9.6969 28.55198,-16.70022 l 1.61615,-7.00331 h 2.15486 l -2.15486,-5.925884 -22.08738,-12.390482 c -3.77102,0 -8.08075,0.538716 -12.39049,1.077433 -4.84845,0.538717 -8.08075,2.693583 -10.77433,5.387166 l -1.61615,5.925883 h -3.77102 v 5.925884 h 3.77102 c -2.69358,15.08406 -8.61946,28.55198 -17.77765,40.94246 -9.6969,11.85177 -15.08406,25.8584 -16.1615,40.94246 h -5.38716 c 9.6969,11.85177 16.1615,24.78097 18.85508,39.86503 2.15487,15.62279 3.2323,30.70685 3.2323,45.79092 l -1.61615,10.23561 c 0,8.61947 0,17.77765 0,25.8584 0,8.08075 2.69358,15.62278 7.00332,22.08738 l 17.77764,3.2323 c 15.08407,-2.15487 29.62942,-5.38717 44.17477,-9.15818 14.00663,-3.77102 28.55198,-7.54204 44.17476,-11.31305 h 9.15818 v 3.77101 h 7.54203 c 0,22.6261 -1.07743,44.71348 -2.69358,65.72343 -2.15487,21.00995 -8.08075,40.40375 -17.77765,58.72011 l -5.92588,10.77433 v 10.23562 h 4.30973 l 1.61615,11.31305 z M 41.013116,461.40263 59.868198,453.8606 c 15.622782,-32.323 24.780964,-66.26215 28.55198,-103.43359 3.771017,-37.17145 6.4646,-73.80418 9.158183,-110.43691 l -1.61615,-5.92588 3.771016,-38.24888 c 0,-6.4646 0,-13.46792 0,-20.47123 0,-6.4646 -1.077433,-12.9292 -3.771016,-18.31637 -4.848449,-5.38716 -10.235616,-8.08075 -15.622782,-9.6969 -5.925882,-1.07743 -11.313049,-4.30973 -16.700215,-9.15818 l -4.848449,2.15487 c 3.232299,13.46791 6.464599,27.47455 9.696899,41.48118 3.232299,14.00663 6.464599,28.01326 9.158182,42.01989 0,40.94247 -2.154866,81.34621 -5.925883,120.13381 C 67.948947,382.75 57.174615,419.92145 39.396967,453.8606 Z M 211.24757,449.55086 c 5.92588,-4.84845 8.08075,-11.31304 7.00331,-21.54866 -1.07743,-9.15818 0,-17.23893 3.77102,-24.24225 -1.61615,-10.77433 -2.15487,-23.16481 -2.69358,-35.01658 -0.53872,-12.39048 -1.61615,-24.24225 -2.69359,-37.71016 l 1.61615,-14.54535 -1.61615,-9.6969 1.61615,-7.54203 -3.77101,-53.87166 c 3.2323,-18.31637 5.92588,-36.63273 6.4646,-54.9491 0.53871,-18.31636 3.2323,-36.63273 7.00331,-53.87166 l 15.08407,-5.92588 5.38716,-5.38717 -1.61615,-14.00663 -18.85508,-7.54203 v -3.771018 l -8.08075,-3.771016 -10.77433,3.771016 -1.61615,3.771018 c -16.1615,3.2323 -32.86171,7.54203 -47.94578,11.31305 -15.62278,3.77101 -32.323,8.08075 -48.48449,11.85176 l 1.61615,9.6969 8.08075,3.77102 c 8.61946,0 17.23893,-1.07744 26.39711,-3.2323 8.61947,-1.61615 16.70021,-3.77102 24.24225,-6.4646 l 21.00994,1.61615 -2.15486,9.6969 h -5.38717 v 3.77101 h -4.30973 l -3.77102,9.15819 2.15487,14.00663 v 3.77102 h -3.77102 v 3.77101 l -9.6969,1.61615 h -12.92919 l -1.61615,-11.31305 -11.31305,-9.6969 -9.6969,2.15487 v 3.77102 h 1.61615 l 2.15486,5.92588 v 23.16481 l -30.16813,14.54535 1.61615,5.92588 21.54867,-3.77101 h 7.00331 l -3.77101,38.24888 -26.39712,8.08075 v 8.61946 l 11.31305,4.30974 5.92589,-2.15487 h 9.15818 l -3.2323,31.24556 c 0.53871,5.38717 3.77101,8.61947 9.15818,9.6969 4.84845,1.61615 10.23562,1.61615 15.08407,1.61615 l -1.61615,38.24888 h -2.15487 l -7.54203,11.31305 h -3.77102 c -2.69358,-7.54203 -5.38717,-15.62278 -8.08075,-24.78096 -2.15487,-8.61947 -7.00331,-15.08407 -15.08406,-18.85509 h -5.38717 l 5.38717,24.78097 -1.61615,15.08406 c 1.07743,5.38717 2.15486,10.77434 2.69358,16.70022 0.53872,5.38717 3.77102,10.77433 8.61947,14.54535 h 7.54203 l 1.61615,-8.08075 8.08075,2.15486 h 3.77101 l 3.77102,-9.69689 12.9292,-5.92589 c 4.84845,-10.23561 9.15818,-20.47123 11.85176,-31.78428 3.2323,-10.23561 7.54204,-21.00995 12.9292,-31.24556 v -11.85177 l -13.46791,-7.54203 h -15.62278 l -4.84845,7.54203 -7.54204,2.15487 h -5.92588 l 11.85177,-33.93915 6.4646,-4.30973 23.16481,-21.00995 v -13.46791 h -9.15818 l -2.15487,11.31305 -9.6969,4.30973 h -5.38716 l 1.61615,-31.24556 7.54203,-1.61615 23.16481,-17.23894 -4.30973,-5.92588 2.15487,-5.38716 12.92919,7.54203 v 87.81081 l 2.15487,1.61615 -2.15487,4.30973 3.77102,71.11059 c 1.61615,9.6969 0.53872,19.3938 -2.69358,28.01327 -2.69359,8.08074 -5.38717,16.16149 -8.08075,23.70353 1.07743,8.61946 2.15487,17.23893 3.77101,25.31968 1.61615,8.61946 4.30974,16.70021 9.15819,24.24224 z m 61.95241,-14.54534 h 3.77101 l 3.77102,-8.08075 c -1.61615,-11.31305 -5.38717,-21.54867 -11.31305,-30.16813 -6.4646,-9.15819 -12.9292,-18.31637 -21.00995,-26.93583 h -7.54203 l 13.46792,44.17476 h 2.15486 l 3.77102,12.9292 z m 32.32299,-19.3938 12.9292,-3.77102 v -24.78096 l -7.54203,-5.92589 v -3.77101 l -15.08407,-17.23893 -13.46791,2.15486 c 3.2323,4.84845 6.4646,10.23562 8.61947,15.62278 1.61615,5.92589 2.15486,12.9292 0.53871,19.93252 z m 40.94247,-15.62278 5.38716,-2.15487 3.77102,-9.15818 -1.61615,-16.70022 -25.8584,-21.00995 h -5.92588 l -3.77102,5.38717 c 3.77102,4.84845 6.4646,10.77433 8.08075,17.23893 1.07744,6.4646 2.69358,12.9292 4.84845,18.85508 z M 374.4787,379.5177 c 2.69358,-2.69358 5.92588,-3.77101 9.15818,-2.15486 3.2323,1.61615 5.92589,0 8.61947,-3.2323 v -17.77765 c -2.69358,-4.84845 -5.92588,-9.6969 -9.6969,-14.54535 -3.77102,-4.84845 -8.61947,-8.08075 -13.46792,-10.77433 h -5.38716 l 3.77101,3.77102 v 4.30973 l -5.92588,-2.15487 h -2.15486 l 4.30973,8.08075 c 2.69358,6.4646 4.30973,12.39048 4.84845,18.85508 0.53871,7.00332 2.69358,11.85177 5.92588,15.62278 z m -68.95573,-103.9723 -2.15486,2.15486 h -5.92589 v -30.70684 l 8.08075,4.30973 44.71348,-11.31305 h 3.77102 v 5.38717 h 3.77102 l 3.77101,7.54203 v 4.30973 l -54.94909,14.54535 z" />
  </g>
</svg>
