<?xml version="1.0" encoding="UTF-8" standalone="no"?>
<!-- Created with Inkscape (http://www.inkscape.org/) -->

<svg
   version="1.1"
   id="svg6381"
   width="500"
   height="500"
   viewBox="0 0 500 500"
   sodipodi:docname="f_ou_image.svg"
   inkscape:version="1.2.2 (b0a8486541, 2022-12-01)"
   xmlns:inkscape="http://www.inkscape.org/namespaces/inkscape"
   xmlns:sodipodi="http://sodipodi.sourceforge.net/DTD/sodipodi-0.dtd"
   xmlns="http://www.w3.org/2000/svg"
   xmlns:svg="http://www.w3.org/2000/svg">
  <defs
     id="defs6385" />
  <sodipodi:namedview
     id="namedview6383"
     pagecolor="#ffffff"
     bordercolor="#666666"
     borderopacity="1.0"
     inkscape:showpageshadow="2"
     inkscape:pageopacity="0.0"
     inkscape:pagecheckerboard="0"
     inkscape:deskcolor="#d1d1d1"
     showgrid="false"
     inkscape:zoom="1.1968"
     inkscape:cx="228.10829"
     inkscape:cy="306.65107"
     inkscape:window-width="1854"
     inkscape:window-height="1011"
     inkscape:window-x="66"
     inkscape:window-y="32"
     inkscape:window-maximized="1"
     inkscape:current-layer="g6387" />
  <g
     inkscape:groupmode="layer"
     inkscape:label="Image"
     id="g6387">
    <path
       d="M 255.42627,1.076354 53.632023,101.67003 1.6637126,499.89895 501.66371,501.07635 453.51239,104.01079 Z"
       style="fill:#f0b53a;fill-opacity:1;fill-rule:evenodd;stroke:none;stroke-width:0.101199;stroke-linecap:butt;stroke-linejoin:miter;stroke-dasharray:none;stroke-opacity:1"
       id="path17654" />
  </g>
  <g
     inkscape:groupmode="layer"
     id="layer1"
     inkscape:label="trace"
     style="display:inline">
    <path
       style="fill:#000000;fill-opacity:1;fill-rule:evenodd;stroke:none;stroke-width:0;stroke-linecap:butt;stroke-linejoin:miter;stroke-dasharray:none;stroke-opacity:1"
       d="m 235.35194,209.35654 c -0.52206,-6.18193 13.55343,1.39821 18.4559,-2.40376 6.02321,-4.67108 8.4334,-13.6046 8.50403,-21.22648 0.0288,-3.11023 -1.56494,-6.14931 -3.30906,-8.72467 -6.57778,-9.71264 -18.87687,-14.42135 -25.92254,-23.80012 -6.04541,-8.04727 -10.89773,-17.30534 -13.4194,-27.04941 -3.27358,-12.64963 -13.85627,-34.119951 -1.80013,-39.1577 3.756,-1.569476 4.24291,9.448934 8.28555,8.971472 14.99112,-1.770526 7.10742,-40.997755 22.12934,-39.510878 9.46733,0.937083 -0.66503,26.138509 8.79443,27.15209 5.52575,0.592086 2.82766,-14.622367 8.38106,-14.412413 8.64097,0.326686 5.40831,17.026202 11.31028,23.346004 3.93145,4.209784 9.81667,11.089745 15.00054,8.578555 5.96838,-2.891225 -3.56824,-18.481058 2.95525,-19.67467 7.34612,-1.344129 5.91909,14.029355 10.95737,19.54187 6.3812,6.98185 16.73559,9.33625 23.40578,16.04257 5.14437,5.17224 9.49968,11.37188 12.27512,18.11825 2.18288,5.30601 2.63791,11.20544 3.16821,16.91837 0.40879,4.40384 1.36982,9.06302 0,13.26833 -2.55837,7.85418 -7.85435,15.25277 -14.59542,20.02684 -3.89819,2.76073 -8.99993,3.42374 -13.72608,4.1173 -3.00196,0.44054 -6.06987,0.10012 -9.10233,0 -2.50994,-0.0829 -5.42274,-1.88179 -7.51755,-0.49669 -2.78364,1.84067 -4.07478,6.20333 -3.30453,9.4503 0.9095,3.83396 9.90393,4.53598 8.49816,8.21706 -8.26224,21.63495 -67.47517,25.78452 -69.42398,2.70778 z"
       id="path7913"
       sodipodi:nodetypes="ssssssssssssssssssssssssss" />
    <path
       style="fill:#000000;fill-opacity:1;fill-rule:evenodd;stroke:#000000;stroke-width:0.718133px;stroke-linecap:butt;stroke-linejoin:miter;stroke-opacity:1"
       d="m 237.41509,207.50231 c -0.14821,-10.32087 -9.43296,-18.66913 -16.46323,-26.22675 -9.25332,-9.94742 -21.62848,-16.46889 -32.86523,-24.10502 -7.93488,-5.39227 -18.44027,-7.7697 -24.37061,-15.31093 -1.97216,-2.50787 -2.1452,-6.01341 -3.03725,-9.0766 -1.68293,-5.77895 1.6098,-18.29368 -4.35966,-17.52287 -7.57339,0.97794 6.73389,18.79769 0.2975,22.90688 -5.21258,3.32788 -12.37273,-3.63456 -16.72701,-8.02615 -5.58481,-5.63269 -2.35591,-23.20765 -10.11094,-21.54126 -10.59129,2.27585 -0.42057,21.6625 -0.50468,32.49521 -0.026,3.36115 3.04384,8.65791 0,10.08373 -5.86834,2.74888 -10.98526,-7.30764 -14.93582,-12.44442 -3.39312,-4.41196 -5.25481,-9.86943 -7.03728,-15.14212 -1.50979,-4.46609 1.61461,-13.09012 -3.04423,-13.81163 -9.747929,-1.50965 -11.871267,16.20292 -14.812579,25.61833 -2.605681,8.34103 -2.043392,17.39085 -2.129967,26.12898 -0.06445,6.50591 4.396715,13.81497 1.200088,19.48175 -1.309872,2.32207 -4.422298,3.61267 -7.086629,3.70804 -3.17074,0.11349 -6.311734,-1.74172 -8.727505,-3.79856 -3.328071,-2.83356 -2.993886,-12.57753 -7.083572,-11.03491 -21.845363,8.23998 -0.618829,48.72802 10.516558,69.24925 6.696761,12.34134 19.479953,20.69281 31.468576,28.00228 13.82944,8.43184 29.77294,13.00318 45.34066,17.4748 7.05595,2.02672 14.29025,4.58621 21.62093,4.19279 6.38704,-0.34278 13.32057,-1.68198 18.33857,-5.64827 22.9543,-18.14338 44.93343,-46.39668 44.51331,-75.65255 z"
       id="path12679"
       sodipodi:nodetypes="ssssssssssssssssssssssssss" />
    <path
       style="fill:#000000;fill-opacity:1;fill-rule:evenodd;stroke:#000000;stroke-width:0.718133px;stroke-linecap:butt;stroke-linejoin:miter;stroke-opacity:1"
       d="m 303.82582,204.97384 c 6.66901,-10.14211 22.19094,-10.20038 32.06278,-17.26331 8.09705,-5.79313 14.90858,-13.22246 21.89187,-20.31868 7.23933,-7.35643 15.1623,-14.31794 20.6969,-23.02961 3.99398,-6.28666 6.17785,-13.57301 8.69826,-20.58169 1.15748,-3.21868 -0.32172,-8.80101 2.9399,-9.83126 2.454,-0.77514 4.6017,2.6634 6.05956,4.78415 3.91315,5.69249 1.77462,14.45123 6.1636,19.78546 0.77066,0.93665 2.04768,2.10792 3.20062,1.73117 5.0038,-1.63507 6.35534,-9.01837 6.77405,-14.26586 0.25684,-3.21886 -5.64414,-7.93962 -2.71503,-9.29903 7.91795,-3.67488 12.31462,13.37166 14.46064,21.83293 1.25367,4.94289 -0.40845,10.22659 -1.34775,15.23874 -2.09512,11.17962 -18.24805,25.49614 -9.50538,32.77209 4.13901,3.4446 10.64579,-3.42176 14.43992,-7.24292 2.7619,-2.78159 1.34792,-11.28675 5.19765,-10.54856 4.92532,0.94442 0.89463,9.99175 1.18613,14.99832 0.31095,5.34064 1.77453,10.81865 0.60005,16.03781 -1.76263,7.8327 -11.44598,13.34079 -11.12425,21.36292 0.25028,6.24071 10.98625,9.71225 9.95705,15.8726 -2.06279,12.347 -31.6211,11.31356 -29.21407,23.59809 0.92997,4.74622 12.9588,-0.56187 13.8932,4.18347 1.0221,5.19064 -8.50277,6.34098 -12.32757,9.99592 -8.28242,7.91458 -13.25704,19.40006 -22.83529,25.68466 -9.24213,6.06407 -20.67278,8.15094 -31.50653,10.34624 -4.7091,0.95436 -9.56236,1.32255 -14.36532,1.18907 -14.14622,-0.39314 -33.22824,5.21865 -42.05056,-5.84646 -21.10571,-26.47118 -9.83111,-72.89866 8.76957,-101.18626 z"
       id="path12681"
       sodipodi:nodetypes="ssssssssssssssssssssssssssss" />
    <path
       style="fill:#000000;fill-opacity:1;fill-rule:evenodd;stroke:#000000;stroke-width:0.718133px;stroke-linecap:butt;stroke-linejoin:miter;stroke-opacity:1"
       d="m 236.72272,215.46417 c 19.64248,-12.64537 52.8638,-26.25947 69.40004,-9.75841 23.69515,23.64476 3.23179,70.63995 -13.77132,99.47449 -3.30973,5.61274 -15.20569,5.21625 -15.64682,11.71725 -0.316,4.65719 8.48074,5.40815 9.97244,9.83129 1.25136,3.71043 0.24838,8.21112 -1.66228,11.6292 -2.03905,3.64758 -5.6131,6.90366 -9.64232,8.01206 -4.61089,1.26841 -10.15586,0.36215 -14.17135,-2.23497 -5.79394,-3.74735 -5.25825,-14.0432 -11.32725,-17.32641 -2.54902,-1.37897 -7.21506,-2.49215 -8.69431,0 -2.22524,3.74895 5.29037,7.23174 6.26401,11.48126 0.90093,3.93209 2.29548,9.27101 -0.59257,12.08742 -3.74684,3.6539 -10.85054,2.35209 -15.69611,0.37469 -6.42078,-2.62021 -9.78807,-9.83029 -14.51287,-14.90653 -3.78145,-4.06273 -6.1816,-9.80723 -11.06771,-12.4399 -3.52737,-1.90059 -8.97335,1.00872 -11.89478,-1.73351 -3.85916,-3.6224 -3.11709,-10.24607 -3.27878,-15.5365 -0.23939,-7.83198 0.70411,-15.91139 3.44013,-23.25381 9.29979,-24.95688 20.48789,-53.00089 42.88185,-67.41762 z"
       id="path12695"
       sodipodi:nodetypes="sssssssssssssssssss" />
    <path
       style="fill:#000000;fill-opacity:1;fill-rule:evenodd;stroke:#000000;stroke-width:0.718133px;stroke-linecap:butt;stroke-linejoin:miter;stroke-opacity:1"
       d="m 284.06406,340.082 c 4.66335,0.0179 8.59501,4.61226 11.05475,8.57418 2.9233,4.7086 2.41909,10.82398 3.30494,16.29498 0.96625,5.96774 -3.13793,15.14356 2.18804,18.0039 4.30906,2.3142 13.12106,-6.56889 13.12106,-6.56889 l -6.19799,11.48299 12.10105,-0.0834 -8.65409,3.55536 10.05978,7.943 -22.3901,-3.70478 -10.36578,5.11166 c 0,0 4.15228,-3.60489 4.87416,-6.10754 2.91488,-10.10554 0.56319,-21.66423 -3.52373,-31.35524 -2.82264,-6.69311 -14.6511,-9.64355 -13.80856,-16.85848 0.40064,-3.43074 4.78248,-6.30096 8.23647,-6.28771 z"
       id="path12710"
       sodipodi:nodetypes="sssscccccccssss" />
    <path
       style="fill:#000000;fill-opacity:1;fill-rule:evenodd;stroke:#000000;stroke-width:0.718133px;stroke-linecap:butt;stroke-linejoin:miter;stroke-opacity:1"
       d="m 244.61032,350.40064 9.07754,18.43689 2.25829,14.84224 10.1323,-4.03254 -7.06803,9.50212 12.30289,2.71979 -12.93029,3.10339 9.84813,3.70721 -6.5625,1.79335 -11.40974,-4.67773 -12.29204,5.29155 6.36046,-9.72157 -0.6755,-22.12194 -6.92507,-16.02316 z"
       id="path12712" />
    <path
       style="fill:#000000;fill-opacity:1;fill-rule:evenodd;stroke:#000000;stroke-width:0.718133px;stroke-linecap:butt;stroke-linejoin:miter;stroke-opacity:1"
       d="m 218.40508,332.45214 c 1.62272,7.32811 -6.36917,13.92996 -6.96782,21.41168 -0.73232,9.152 1.73126,18.38488 4.25004,27.21386 3.21934,11.28463 6.72058,23.00796 13.73803,32.41341 6.60843,8.85725 16.51371,14.76985 25.57566,21.09461 6.78315,4.73427 13.76825,9.3902 21.4235,12.52413 8.53969,3.49601 18.12827,9.85488 26.83497,6.79847 4.11757,-1.44543 4.53836,-7.6553 7.89653,-10.4421 2.60797,-2.16422 5.72362,-4.25124 9.10095,-4.53216 2.44284,-0.20317 4.62533,1.68986 7.03388,2.14557 2.61091,0.494 5.30446,0.89461 7.94753,0.62052 2.71936,-0.28201 5.69823,-0.64463 7.87194,-2.3028 3.73762,-2.85118 5.25864,-7.82093 7.39614,-12.00784 0.84422,-1.65351 0.33303,-5.62206 2.12776,-5.14711 6.05593,1.6026 -7.54162,15.13887 -2.35069,18.64557 1.63726,1.10605 3.70103,-1.57194 5.17911,-2.88312 1.5854,-1.40639 1.80099,-6.01825 3.73278,-5.14672 4.31198,1.94538 -1.4957,9.39852 -3.099,13.84904 -1.81133,5.02803 -3.72645,10.29362 -7.28124,14.2843 -5.0933,5.71784 -11.80255,10.4934 -19.12906,12.71996 -5.12604,1.55782 -11.13264,2.1261 -16.07252,0.0523 -4.23288,-1.77701 -5.55107,-7.72334 -9.61312,-9.86222 -6.44042,-3.39122 -14.5169,-1.72454 -21.51707,-3.71871 -3.92943,-1.1194 -7.61154,-2.97712 -11.36505,-4.59099 -8.58297,-3.69034 -17.73966,-6.43249 -25.49734,-11.63867 -8.35396,-5.60634 -16.10738,-12.50769 -22.00347,-20.65973 -6.90557,-9.54778 -10.90321,-20.97043 -14.91145,-32.05109 -3.46915,-9.59038 -6.63366,-19.44896 -7.82774,-29.57737 -0.97519,-8.27165 -0.92028,-16.79061 0.60003,-24.97964 1.04575,-5.63276 0.17147,-15.02647 5.78206,-16.18524 5.33471,-1.1018 9.96696,6.63365 11.14466,11.95211 z"
       id="path12714"
       sodipodi:nodetypes="sssssssssssssssssssssssssssssss" />
    <path
       style="fill:#000000;fill-opacity:1;fill-rule:evenodd;stroke:#000000;stroke-width:0.718133px;stroke-linecap:butt;stroke-linejoin:miter;stroke-opacity:1"
       d="m 204.07291,317.46754 c 4.88395,8.02957 -8.16609,16.93881 -11.81411,25.60014 -1.63975,3.89322 -3.63593,7.70856 -4.5226,11.8389 -2.16545,10.08734 -2.30309,20.59475 -1.79478,30.89938 0.49459,10.02653 1.46442,20.24358 4.69678,29.74767 3.08345,9.06626 8.2177,17.40797 13.74971,25.22471 5.26271,7.43623 10.72594,15.22537 18.28069,20.3165 2.23617,1.50696 5.04826,3.61484 7.60501,2.75788 3.5171,-1.17883 2.80217,-7.56228 6.06218,-9.33203 1.52314,-0.82687 3.47049,0.12137 5.19934,0 2.64703,-0.18585 5.39176,-0.1973 7.88254,-1.11234 1.55998,-0.57309 2.97606,-1.5559 4.21375,-2.665 1.44766,-1.29727 2.77417,-2.81664 3.63692,-4.55857 1.3681,-2.76224 -0.78082,-8.43355 2.25493,-8.96832 2.70518,-0.47654 4.27032,4.0995 4.61928,6.82408 0.54912,4.28734 -8.12662,10.16116 -4.32798,12.22352 4.68209,2.54196 4.66601,-14.33723 9.72944,-12.68034 5.7129,1.86942 1.78973,12.18132 0.39638,18.02857 -0.49637,2.08309 -2.42913,3.61123 -3.02249,5.66878 -0.90689,3.14479 0.90564,6.94342 -0.70325,9.7936 -2.21495,3.92385 -6.92549,5.96606 -11.04317,7.79561 -4.56604,2.02877 -9.74588,4.37909 -14.62304,3.29376 -4.7557,-1.05839 -8.83415,-4.9114 -11.55128,-8.9554 -1.29139,-1.92202 -0.33815,-4.95119 -1.86566,-6.69146 -3.2696,-3.72505 -9.43526,-3.26506 -13.68422,-5.81704 -5.3719,-3.22642 -10.28138,-7.29629 -14.62011,-11.81765 -5.80776,-6.05224 -10.56712,-13.08396 -14.99908,-20.20559 -3.76144,-6.04426 -7.4754,-12.25366 -9.76313,-18.99516 -2.86042,-8.42906 -4.53888,-17.37608 -4.76876,-26.2743 -0.23619,-9.14303 1.90094,-18.20886 3.49952,-27.21416 1.19862,-6.75226 2.1774,-13.63107 4.55958,-20.06185 1.69272,-4.56975 4.32155,-8.74806 6.82928,-12.92651 2.54045,-4.23301 3.88935,-10.0507 8.30169,-12.26505 3.45549,-1.73415 9.5775,-2.7755 11.58664,0.52767 z"
       id="path12716"
       sodipodi:nodetypes="ssssssssssssssssssssssssssssssssss" />
    <path
       style="fill:#000000;fill-opacity:1;fill-rule:evenodd;stroke:#000000;stroke-width:0.718133px;stroke-linecap:butt;stroke-linejoin:miter;stroke-opacity:1"
       d="m 192.83581,301.92459 c -5.00561,-3.52888 -12.14961,2.39877 -17.65892,5.07396 -6.83835,3.32056 -12.46808,8.70921 -18.50407,13.33045 -6.9678,5.33465 -14.37641,10.25129 -20.4284,16.60599 -3.61615,3.79703 -6.71675,8.12133 -9.31523,12.67564 -3.64131,6.38207 -6.69483,13.19253 -8.64921,20.27563 -2.77151,10.04452 -5.12826,20.59446 -4.2146,30.97421 0.67534,7.67213 3.88519,14.98424 7.06683,21.99813 1.52678,3.36581 3.93576,6.26224 5.709,9.50499 1.78165,3.25813 1.85887,7.91738 4.94499,9.98269 4.56695,3.0563 11.23372,2.86912 16.44693,1.13124 5.38078,-1.79367 9.45407,-6.59924 12.8793,-11.12009 3.21032,-4.23717 5.88531,-9.1988 6.7668,-14.4412 1.36843,-8.1383 5.51559,-23.09805 -2.59516,-24.62122 -4.11315,-0.77242 -1.62584,11.83165 -5.75628,11.15781 -3.88958,-0.63455 2.13179,-11.41763 -1.80013,-11.68519 -3.16301,-0.21524 -2.08083,6.0096 -2.70814,9.11723 -0.35719,1.76945 0.0856,3.70999 -0.59254,5.3829 -1.14218,2.81753 -2.64181,6.4864 -5.5967,7.20175 -1.9668,0.47612 -3.51322,-2.20218 -5.50514,-2.55899 -2.16593,-0.38791 -4.57541,-0.37601 -6.57968,0.53208 -2.53808,1.14992 -3.33092,6.61828 -6.00052,5.81991 -7.88675,-2.3586 -4.7943,-15.89191 -5.37699,-24.10313 -0.51039,-7.19266 -0.3661,-14.65283 1.68135,-21.56677 2.33177,-7.87402 6.56612,-15.28948 11.76811,-21.64364 3.33033,-4.06801 8.00944,-6.81396 12.09589,-10.12164 6.86724,-5.55855 13.52773,-11.42481 20.8709,-16.33747 6.90804,-4.62155 17.74045,-4.97476 21.69898,-12.28296 1.63564,-3.0197 2.15947,-8.30354 -0.64737,-10.28231 z"
       id="path12718"
       sodipodi:nodetypes="sssssssssssssssssssssssssssss" />
    <path
       style="fill:#a9a9a9;fill-opacity:1;fill-rule:evenodd;stroke:#000000;stroke-width:0.718133px;stroke-linecap:butt;stroke-linejoin:miter;stroke-opacity:1"
       d="m 326.44186,457.12877 c 4.18751,-2.16765 9.02351,-10.89414 9.02351,-10.89414 0,0 1.61595,9.1331 0.60005,13.5326 -0.6834,2.95959 -2.00619,6.07778 -4.35411,8.00474 -2.52224,2.07004 -6.10279,3.26686 -9.3462,2.91028 -1.94703,-0.21405 -4.04337,-1.273 -5.09704,-2.92423 -1.25238,-1.96263 -1.5533,-4.83462 -0.60004,-6.95869 0.74329,-1.6562 2.66487,-2.61984 4.36467,-3.2571 1.69323,-0.63481 3.80324,0.41783 5.40916,-0.41346 z"
       id="path12738"
       sodipodi:nodetypes="scsssssss" />
    <path
       style="fill:#a9a9a9;fill-opacity:1;fill-rule:evenodd;stroke:#000000;stroke-width:0.718133px;stroke-linecap:butt;stroke-linejoin:miter;stroke-opacity:1"
       d="m 246.83367,466.50744 c 3.0618,-1.8284 8.8631,-5.99202 8.8631,-5.99202 0,0 0.73961,7.38684 0,10.96688 -0.32201,1.55872 -0.72393,3.30302 -1.89217,4.38401 -2.02639,1.87507 -5.07557,2.62547 -7.8358,2.68321 -2.31792,0.0485 -5.2816,-0.11835 -6.66868,-1.97608 -1.22112,-1.63544 -1.0569,-4.37701 0,-6.12309 1.46769,-2.42472 5.10009,-2.48975 7.53355,-3.94291 z"
       id="path13466"
       sodipodi:nodetypes="scssssss" />
    <path
       style="fill:#a9a9a9;fill-opacity:1;fill-rule:evenodd;stroke:#000000;stroke-width:0.718133px;stroke-linecap:butt;stroke-linejoin:miter;stroke-opacity:1"
       d="m 145.45214,425.15389 c 2.75067,-2.58776 6.5416,-9.2505 6.5416,-9.2505 0,0 1.73881,9.31865 0.47592,13.71543 -0.56895,1.98079 -2.10977,3.567 -3.46077,5.1233 -0.9887,1.13887 -1.94865,2.49238 -3.35605,3.03428 -1.289,0.49632 -2.86728,0.52774 -4.14373,0 -1.43538,-0.59343 -2.49783,-1.96002 -3.29929,-3.2905 -0.73276,-1.21641 -1.74865,-2.74356 -1.24927,-4.07293 1.17078,-3.11677 6.06663,-2.97771 8.49159,-5.25908 z"
       id="path13468"
       sodipodi:nodetypes="scsssssss" />
    <path
       style="fill:#ffffff;fill-opacity:0.934782;fill-rule:evenodd;stroke:#000000;stroke-width:0.718133px;stroke-linecap:butt;stroke-linejoin:miter;stroke-opacity:1"
       d="m 314.65493,169.94624 13.655,-5.79084 23.27276,8.02852 12.88868,8.30409 5.72265,17.46271 -53.22257,-19.62256 z"
       id="path9367" />
    <ellipse
       style="opacity:1;fill:#ffffff;fill-opacity:1;stroke:#000000;stroke-width:0;stroke-linecap:round;stroke-dasharray:none;stroke-opacity:1"
       id="path10171"
       cx="292.51486"
       cy="154.32611"
       rx="5.6165328"
       ry="3.6014459" />
    <ellipse
       style="opacity:1;fill:#ffffff;fill-opacity:1;stroke:#000000;stroke-width:0;stroke-linecap:round;stroke-dasharray:none;stroke-opacity:1"
       id="path10173"
       cx="328.37415"
       cy="151.04266"
       rx="4.3247933"
       ry="5.4397135" />
  </g>
</svg>
