<?xml version="1.0" encoding="UTF-8" standalone="no"?>
<svg
   id="svg826"
   width="500"
   height="500"
   version="1.1"
   viewBox="0 0 500 500"
   sodipodi:docname="f_ou_m.svg"
   inkscape:version="1.2.2 (b0a8486541, 2022-12-01)"
   xmlns:inkscape="http://www.inkscape.org/namespaces/inkscape"
   xmlns:sodipodi="http://sodipodi.sourceforge.net/DTD/sodipodi-0.dtd"
   xmlns="http://www.w3.org/2000/svg"
   xmlns:svg="http://www.w3.org/2000/svg"
   xmlns:rdf="http://www.w3.org/1999/02/22-rdf-syntax-ns#"
   xmlns:cc="http://creativecommons.org/ns#"
   xmlns:dc="http://purl.org/dc/elements/1.1/">
  <sodipodi:namedview
     id="namedview32170"
     pagecolor="#ffffff"
     bordercolor="#666666"
     borderopacity="1.0"
     inkscape:showpageshadow="2"
     inkscape:pageopacity="0.0"
     inkscape:pagecheckerboard="0"
     inkscape:deskcolor="#d1d1d1"
     showgrid="false"
     inkscape:zoom="0.472"
     inkscape:cx="141.94915"
     inkscape:cy="250"
     inkscape:window-width="1854"
     inkscape:window-height="1011"
     inkscape:window-x="66"
     inkscape:window-y="32"
     inkscape:window-maximized="1"
     inkscape:current-layer="svg826" />
  <metadata
     id="metadata832">
    <rdf:RDF>
      <cc:Work
         rdf:about="">
        <dc:format>image/svg+xml</dc:format>
        <dc:type
           rdf:resource="http://purl.org/dc/dcmitype/StillImage" />
        <dc:title />
      </cc:Work>
    </rdf:RDF>
  </metadata>
  <defs
     id="defs830" />
  <path
     d="M 257.42627,1.076354 55.632023,101.67003 3.6637126,499.89895 503.66371,501.07635 455.51239,104.01079 Z"
     style="fill:#f0b53a;fill-opacity:1;fill-rule:evenodd;stroke:none;stroke-width:0.101199;stroke-linecap:butt;stroke-linejoin:miter;stroke-dasharray:none;stroke-opacity:1"
     id="path29525" />
  <g
     id="text824"
     style="font-style:normal;font-variant:normal;font-weight:normal;font-stretch:normal;font-size:479.06750488px;font-family:'衡山毛筆フォント OTF';-inkscape-font-specification:'衡山毛筆フォント OTF, Normal';font-variant-ligatures:normal;font-variant-caps:normal;font-variant-numeric:normal;font-feature-settings:normal;text-align:start;writing-mode:lr-tb;text-anchor:start;white-space:pre;fill:#333333;stroke-width:21.77581215"
     transform="scale(0.99717032,1.0028377)"
     aria-label="鵬">
    <path
       id="path7"
       style="font-style:normal;font-variant:normal;font-weight:normal;font-stretch:normal;font-size:479.06750488px;font-family:'衡山毛筆フォント OTF';-inkscape-font-specification:'衡山毛筆フォント OTF, Normal';font-variant-ligatures:normal;font-variant-caps:normal;font-variant-numeric:normal;font-feature-settings:normal;text-align:start;writing-mode:lr-tb;text-anchor:start;white-space:pre;fill:#333333;stroke-width:21.77581215"
       d="m 395.45414,478.64175 c 3.35347,-11.97669 6.70694,-22.51618 10.06041,-33.53473 3.35348,-10.06042 7.18602,-21.07897 10.53949,-32.57659 l -1.91627,-16.76736 1.91627,-19.1627 4.79067,-1.4372 c 1.91627,-10.53949 3.83254,-21.07897 6.70695,-32.57659 2.39534,-10.53949 5.74881,-21.55804 10.06042,-31.61846 h 3.35347 l 1.4372,-8.14415 14.37203,-5.74881 -1.91627,-9.58135 h -3.35347 l -1.43721,-4.79067 -17.24643,-12.45576 -11.97669,1.4372 -4.79067,-1.4372 h -6.70695 l -1.4372,6.22788 h -9.10228 v 2.8744 l -91.02283,26.82779 -11.01855,-4.79068 -12.93482,4.79068 6.70694,13.89295 6.22788,4.79068 c 15.33016,-5.26974 31.13939,-10.53949 47.42768,-16.76736 16.76737,-5.74881 33.05566,-10.53949 49.82302,-15.80923 h 7.66508 l 1.43721,2.8744 c -4.79068,22.99524 -8.14415,46.46955 -9.10229,70.90199 -1.4372,24.91151 -5.74881,48.38582 -12.45575,70.42293 h -9.58135 l 3.35347,30.66032 6.22788,1.91627 v 3.35347 l 7.66508,2.8744 z m -164.32016,-40.72074 11.01856,-1.4372 -4.79068,-94.3763 1.4372,-7.66508 c 0,-12.93482 0,-24.91151 -0.47906,-36.8882 -0.47907,-11.97669 -1.91627,-23.47431 -4.31161,-35.451 1.4372,-16.28829 2.39534,-33.05565 3.35347,-49.82302 0.95814,-16.76736 2.87441,-33.05565 5.74881,-48.86488 l 10.06042,-10.53949 -1.91627,-9.58135 -12.45576,-11.01855 -4.79067,1.91627 h -2.87441 v -1.91627 l -9.10228,4.79068 -1.91627,2.8744 c -6.22788,3.35347 -12.93482,5.26974 -18.68363,6.22788 -6.22788,1.4372 -12.45576,5.26974 -17.7255,11.49762 v 4.31161 h 3.35347 v 9.58135 c 5.26975,0.95813 9.58135,0 12.93483,-3.35348 3.35347,-3.35347 6.22787,-5.74881 10.53948,-7.66508 h 4.79068 l 1.91627,7.66508 -3.35348,40.72074 -4.79067,1.91627 -17.24643,-3.35347 -1.4372,-29.70219 -11.01856,-2.8744 -11.01855,2.8744 -4.79068,-1.4372 h -1.4372 l 2.87441,26.34871 -1.43721,14.37203 9.58135,22.0371 c 0,26.82778 -1.4372,53.65557 -3.83254,79.52521 -2.8744,25.86965 -8.14414,51.26022 -16.76736,75.2136 l 6.70695,11.01855 h 10.53948 c 4.31161,-15.80923 8.14415,-31.61845 10.53949,-47.90675 2.39534,-16.28829 4.31161,-32.57659 6.70694,-49.34395 l 6.22788,-1.4372 c 1.4372,-6.22788 3.83254,-11.97669 7.66508,-18.20457 2.87441,-5.74881 6.22788,-11.01855 9.58135,-16.2883 h 3.35347 l 9.58135,102.04138 c 0,5.74881 -0.47906,11.97669 -1.4372,17.7255 -1.4372,6.22788 -3.83254,10.53949 -8.14415,14.85109 v 6.22788 c 3.35348,4.31161 5.74881,8.62322 8.14415,13.41389 1.4372,4.79068 4.79068,8.62322 9.10228,11.97669 z m 54.6137,-3.35347 h 8.14415 c 0,-7.18602 -1.43721,-14.37203 -3.83254,-20.12084 -2.87441,-6.22788 -6.70695,-12.93482 -10.53949,-18.68363 l -28.26498,-23.95338 h -6.22788 c 3.35347,10.53949 7.66508,20.59991 13.89296,30.18126 5.26974,10.06041 10.53948,19.64176 15.80923,29.70218 z m -149.94813,-9.58135 4.79067,-1.43721 -4.79067,-95.33443 c 0,-7.66508 0,-14.85109 0,-22.51617 0,-6.70695 1.4372,-12.93482 4.79067,-18.20457 l -4.79067,-25.39058 c 1.91627,-15.33016 3.83254,-31.13938 6.22788,-47.42768 1.91627,-16.28829 5.26974,-32.09752 10.53948,-46.46955 l 6.70695,-2.8744 -6.70695,-13.89296 -16.76736,-10.06042 -20.5999,3.35348 -1.43721,4.79067 h -3.35347 v 3.35347 l -7.66508,-1.4372 h -2.874403 v 1.4372 l -6.706945,1.43721 9.581348,27.78591 7.66508,-1.4372 4.79068,1.4372 3.35347,17.24643 -1.91627,26.82778 -4.79068,-1.4372 -13.892953,1.4372 h -8.144148 l -4.790675,-42.15794 -4.311608,-1.91627 2.874405,-7.18601 v -8.14415 l -12.455755,11.01855 h -6.227877 l -5.74881,-14.37202 h -1.91627 l -1.437203,44.07421 c 0.958135,6.22788 2.874405,11.97669 5.74881,17.24643 1.91627,5.26974 4.790675,10.06042 8.144148,14.37202 0,6.70695 0.479067,14.37203 0.958135,22.03711 0.479067,8.14415 -1.437203,14.85109 -5.74881,19.64177 l 3.353472,11.49762 -1.91627,13.89296 1.91627,12.45575 -3.353472,6.22788 v 12.93482 h 1.437202 l -18.683632,78.088 h -3.353473 v 2.87441 h 3.353473 l 8.144147,-22.99524 h 3.353473 c 3.353472,-14.85109 8.144147,-28.26498 15.33016,-40.24167 7.186012,-11.97669 10.539485,-25.86965 10.539485,-41.19981 l 6.706945,1.43721 4.790675,-3.35348 h 4.790676 v -8.14414 l 5.74881,-4.79068 1.91627,-5.74881 h 2.8744 l 1.91627,-6.22788 4.79068,1.43721 v 78.088 l -8.14415,15.80923 11.01855,35.93006 z m 181.56658,-29.22312 10.53949,-3.35347 -12.45576,-23.47431 -20.12083,-11.01855 h -1.4372 v 2.8744 h -6.70695 l 18.68363,28.26498 z m 15.33016,-28.74405 17.24643,-2.87441 -7.66508,-12.45575 -22.0371,-11.49762 h -6.22788 l 15.33016,25.39058 z m 31.13939,-15.33016 1.4372,-1.4372 1.91627,1.4372 12.93483,-1.4372 -1.91627,-14.37203 -4.79068,-4.79067 -22.0371,-9.58135 h -7.66508 l 15.80922,28.74405 z m -73.29733,-57.96717 3.35348,-1.4372 4.79067,1.4372 h 2.87441 v -6.22788 c 21.55803,-6.22788 43.11607,-13.41389 64.19504,-21.55804 20.5999,-7.66508 40.72074,-17.24643 60.84157,-28.26498 v -4.79067 c -20.12083,4.3116 -38.80446,9.10228 -56.05089,15.80922 -17.7255,7.18602 -35.93007,13.41389 -55.09277,19.64177 h -12.45575 l 1.4372,-13.89296 39.28354,-18.68363 c 3.35347,-0.95813 5.74881,-0.47907 7.18601,0.95814 1.4372,1.4372 2.39534,2.8744 2.39534,5.26974 l 4.79067,-1.91627 4.79068,1.91627 4.3116,-1.91627 4.79068,1.91627 h 6.22788 c 0,-14.37203 1.4372,-28.26498 4.79067,-41.67887 2.87441,-12.93483 6.70695,-25.39058 11.01855,-38.3254 l 22.03711,-9.10229 -6.70695,-9.58135 -13.89295,-6.22787 v -4.79068 l -9.58135,-2.8744 v 1.4372 h -7.66508 v -3.35347 h -1.43721 v 1.91627 c -3.35347,0 -5.74881,0.95813 -8.14414,2.8744 -2.39534,2.39534 -4.79068,2.87441 -7.66508,1.91627 v 2.87441 h -2.87441 v 2.8744 l -25.39058,8.14415 c -3.35347,0 -6.22787,0 -8.62321,0 -2.39534,0 -4.79068,-0.95814 -6.70695,-3.35347 5.26975,-6.70695 9.58135,-14.37203 14.8511,-22.51618 4.79067,-7.66508 10.53948,-14.85109 16.28829,-21.55803 L 345.15205,91.555203 310.65919,74.78784 h -2.87441 l -1.91627,16.767363 -4.3116,1.91627 1.4372,7.186017 -28.26498,53.65556 v 1.91627 h 1.91627 l -4.79068,10.53948 c 6.22788,-4.31161 12.93482,-7.18601 20.5999,-9.10228 7.18602,-2.39534 13.89296,-6.22788 20.12084,-11.49762 h 2.8744 c 0,5.26974 1.43721,10.06042 4.79068,13.41389 2.8744,3.83254 4.31161,8.14415 4.31161,13.41389 l 12.93482,-6.22788 h 6.22788 l 1.4372,3.35347 v 11.97669 l -40.72074,16.2883 h -2.8744 c -0.95814,-4.31161 -2.39534,-8.14415 -4.31161,-11.97669 -2.39534,-3.83254 -2.87441,-8.14415 -1.91627,-13.41389 l -13.89296,11.01855 -17.7255,-6.22788 h -0.95813 l 4.31161,14.37203 2.8744,1.4372 8.14415,26.34871 c 0,6.22788 0,12.93483 0,19.1627 0,5.74881 -0.95814,11.97669 -3.35347,17.24643 0,5.74881 0.47906,11.97669 0.95813,17.7255 0.47907,5.74881 2.39534,10.53949 5.74881,14.8511 z m -173.9015,-23.47431 -20.120836,8.14415 h -6.706945 c 0,-4.31161 0,-8.62322 -0.479067,-12.45576 -0.479068,-3.35347 0.479067,-6.70694 3.83254,-9.58135 l -1.437203,-4.79067 v -6.70695 l 6.227878,1.91627 11.018553,-4.79067 h 6.22788 l 1.4372,21.55804 z m 97.2507,-1.91627 -17.24643,6.70695 h -4.79067 v -8.14415 h -1.4372 l 1.4372,-23.47431 11.01855,-1.4372 6.22788,-9.10228 h 2.8744 l 1.91627,16.76736 z m 128.39009,-51.26022 -31.61845,12.45575 h -6.22788 v -8.14414 l 39.28354,-24.43245 h 2.8744 c 0,3.83254 0,7.18602 -0.47907,10.53949 -0.47906,3.35347 -1.91627,6.22788 -3.83254,9.58135 z" />
  </g>
</svg>
