<?xml version="1.0" encoding="UTF-8" standalone="no"?>
<svg
   id="svg485"
   width="500"
   height="500"
   version="1.1"
   viewBox="0 0 500 500"
   sodipodi:docname="f_to_m.svg"
   inkscape:version="1.2.2 (b0a8486541, 2022-12-01)"
   xmlns:inkscape="http://www.inkscape.org/namespaces/inkscape"
   xmlns:sodipodi="http://sodipodi.sourceforge.net/DTD/sodipodi-0.dtd"
   xmlns="http://www.w3.org/2000/svg"
   xmlns:svg="http://www.w3.org/2000/svg"
   xmlns:rdf="http://www.w3.org/1999/02/22-rdf-syntax-ns#"
   xmlns:cc="http://creativecommons.org/ns#"
   xmlns:dc="http://purl.org/dc/elements/1.1/">
  <sodipodi:namedview
     id="namedview33089"
     pagecolor="#ffffff"
     bordercolor="#666666"
     borderopacity="1.0"
     inkscape:showpageshadow="2"
     inkscape:pageopacity="0.0"
     inkscape:pagecheckerboard="0"
     inkscape:deskcolor="#d1d1d1"
     showgrid="false"
     inkscape:zoom="0.472"
     inkscape:cx="141.94915"
     inkscape:cy="250"
     inkscape:window-width="1854"
     inkscape:window-height="1011"
     inkscape:window-x="66"
     inkscape:window-y="32"
     inkscape:window-maximized="1"
     inkscape:current-layer="svg485" />
  <metadata
     id="metadata491">
    <rdf:RDF>
      <cc:Work
         rdf:about="">
        <dc:format>image/svg+xml</dc:format>
        <dc:type
           rdf:resource="http://purl.org/dc/dcmitype/StillImage" />
        <dc:title />
      </cc:Work>
    </rdf:RDF>
  </metadata>
  <defs
     id="defs489" />
  <path
     d="M 257.42627,1.076354 55.632023,101.67003 3.6637126,499.89895 503.66371,501.07635 455.51239,104.01079 Z"
     style="fill:#f0b53a;fill-opacity:1;fill-rule:evenodd;stroke:none;stroke-width:0.101199;stroke-linecap:butt;stroke-linejoin:miter;stroke-dasharray:none;stroke-opacity:1"
     id="path29525" />
  <g
     id="text483"
     style="font-style:normal;font-variant:normal;font-weight:normal;font-stretch:normal;font-size:520.50079346px;font-family:'衡山毛筆フォント OTF';-inkscape-font-specification:'衡山毛筆フォント OTF, Normal';font-variant-ligatures:normal;font-variant-caps:normal;font-variant-numeric:normal;font-feature-settings:normal;text-align:start;writing-mode:lr-tb;text-anchor:start;white-space:pre;fill:#ff0000;stroke-width:23.65945244"
     transform="scale(0.99716994,1.0028381)"
     aria-label="雁">
    <path
       id="path7"
       style="font-style:normal;font-variant:normal;font-weight:normal;font-stretch:normal;font-size:520.50079346px;font-family:'衡山毛筆フォント OTF';-inkscape-font-specification:'衡山毛筆フォント OTF, Normal';font-variant-ligatures:normal;font-variant-caps:normal;font-variant-numeric:normal;font-feature-settings:normal;text-align:start;writing-mode:lr-tb;text-anchor:start;white-space:pre;fill:#ff0000;stroke-width:23.65945244"
       d="m 201.75071,478.64156 13.53302,-4.16401 2.082,-5.72551 -3.6435,-22.90203 c -1.041,-7.80751 -0.5205,-16.13553 1.041,-23.94304 1.5615,-7.28701 3.64351,-15.09452 6.24601,-22.38153 l -2.082,-14.05352 2.082,-5.72551 -2.082,-6.76651 2.082,-10.93052 c 1.041,-7.28701 0.5205,-14.05352 -2.082,-20.82003 -2.60251,-6.76651 -5.20501,-12.49202 -8.32802,-18.21753 L 180.93068,309.9993 c 3.6435,-9.88951 7.80751,-18.73803 13.01252,-26.02504 5.20501,-7.80751 9.88951,-16.13552 13.01252,-26.02504 h 3.6435 l 29.14805,-48.40657 -1.5615,-12.49202 c -5.72551,-1.041 -10.93052,-2.6025 -16.13553,-5.20501 -5.72551,-2.6025 -10.41001,-4.68451 -15.09452,-7.28701 v -3.123 h -3.12301 l -2.082,8.32801 h -3.64351 c -2.6025,20.29953 -7.28701,39.55806 -14.05352,57.77559 -7.80751,19.25853 -14.57402,37.99655 -20.82003,57.25508 h -2.6025 l -5.20501,16.13553 h -2.082 v 5.72551 l -5.20501,3.123 v 3.12301 h 7.28701 l 15.09452,-15.61503 h 6.76651 l 5.72551,15.61503 v 91.60814 l 1.5615,2.082 -3.6435,24.98404 h -1.5615 c -1.56151,5.20501 0,9.36901 3.6435,11.97152 3.12301,3.6435 5.72551,7.28701 8.32801,10.93051 z m 90.04664,-14.57402 h 4.6845 l 5.72551,-30.18905 35.91456,-12.49202 8.84851,1.5615 5.20501,-1.5615 29.14804,6.76651 14.05353,-1.5615 8.32801,1.5615 c 7.28701,1.5615 14.05352,1.041 20.29953,-1.5615 6.24601,-2.6025 12.49202,-4.68451 18.21753,-6.76651 v -5.72551 c -10.93052,-9.88951 -22.90204,-14.57402 -36.95556,-14.57402 -13.53302,0 -26.54554,-1.041 -39.55806,-3.12301 l -3.123,-12.49202 4.6845,-41.64006 7.28701,-1.5615 v -3.64351 l 8.32802,-2.082 v -2.082 l -17.17653,-3.12301 1.5615,-6.76651 -1.5615,-21.86103 v -5.72551 l 14.05352,-5.72551 1.5615,-4.16401 8.84852,-4.164 v -5.72551 l -20.82003,-3.64351 -3.64351,-24.98403 h -15.61502 v -3.12301 c 10.41001,-2.6025 20.82003,-4.68451 31.23004,-7.28701 10.93052,-2.6025 20.29953,-7.28701 27.58655,-14.05352 l -27.58655,-7.80751 c -12.49202,1.5615 -23.94303,3.6435 -35.91455,6.76651 -11.45102,3.123 -23.42254,6.76651 -34.87355,11.45101 l -6.76651,-2.082 -11.97152,3.64351 -2.08201,7.80751 10.41002,21.34053 h 12.49202 l 6.76651,-7.28701 8.32801,1.5615 7.28701,16.13553 v 9.36901 l -26.02504,10.41002 h -6.76651 c 1.041,-5.20501 1.041,-10.41002 0,-15.09453 -1.5615,-4.6845 -3.123,-8.84851 -5.72551,-13.01252 l -17.17652,-17.17652 c 2.6025,-10.41002 5.20501,-20.29953 8.84851,-29.66855 3.64351,-9.88951 5.72551,-19.77903 8.32801,-30.70954 l -1.5615,-12.49202 -29.14804,-7.28701 -5.20501,1.5615 c 0,15.61502 -2.082,30.70954 -6.24601,44.76307 -4.16401,14.57402 -7.28701,29.14804 -10.93052,43.20156 v 3.64351 h 5.20501 l -1.5615,6.76651 v 3.6435 l 3.123,2.08201 8.32802,-12.49202 h 5.72551 v 4.164 h 3.6435 l 1.5615,37.47606 -1.5615,5.20501 c 2.082,16.65602 3.12301,33.31205 3.12301,49.96808 0,17.17652 0,34.35305 0,52.05007 h 1.041 v 3.64351 l -2.60251,2.082 c 0,3.64351 0,6.76651 0,9.36902 0,3.123 -1.041,5.72551 -3.6435,8.32801 l 2.082,10.41002 13.53302,16.65602 z m -224.856345,-33.83256 15.094523,-7.28701 3.643505,-6.76651 9.369014,-3.6435 c 14.574023,-33.83255 30.189043,-67.1446 46.324573,-100.97716 16.13552,-33.31205 28.10704,-67.6651 35.91455,-103.57965 l -3.123,-8.84852 -5.20501,-2.082 -2.082,-5.72551 c -5.20501,0 -10.41002,-1.5615 -14.05352,-4.68451 -4.16401,-2.6025 -8.32802,-6.24601 -11.45102,-10.93051 h -1.5615 l -2.08201,15.61502 h -3.123 l -1.5615,4.16401 1.5615,15.61502 c -5.72551,37.99656 -15.09453,75.47262 -28.62755,110.34617 -13.533017,35.39405 -29.668541,70.26761 -47.365568,103.05916 v 2.082 l 4.684507,-2.082 v -3.12301 h 3.643506 z m 272.742415,-30.70954 -9.88951,2.082 c -5.72551,1.041 -10.93052,0.5205 -15.09453,-1.041 -3.6435,-1.5615 -8.84851,-2.6025 -14.57402,-2.6025 l 3.64351,-37.47606 6.76651,-4.16401 3.6435,2.08201 22.38154,-6.76652 h 6.76651 l -3.64351,35.39406 h -1.5615 l 1.5615,5.72551 z m 2.082,-67.66511 -29.14804,6.76652 h -8.84851 v -23.42254 l 8.84851,2.082 18.73803,-10.41001 h 8.32801 l 2.082,14.05352 z m -10.41001,-117.11267 -1.5615,-1.56151 8.32801,-7.28701 h 3.6435 v -3.6435 h -2.082 l 3.12301,-7.28701 17.17652,-10.93052 5.20501,-10.41002 -1.5615,-7.28701 c -4.68451,-2.6025 -9.36902,-4.164 -14.05352,-4.6845 -5.72551,-0.52051 -11.45102,-1.04101 -17.17653,-2.60251 h -6.76651 l 3.6435,7.28701 -3.6435,32.27105 -3.64351,1.5615 -3.123,8.84852 h -1.5615 l 1.5615,-1.5615 z M 149.70063,159.05407 c 36.95556,-11.45102 73.91111,-19.77903 112.42817,-23.42253 37.99656,-3.64351 75.47262,-7.28702 113.46918,-11.97152 l -6.76652,-18.21753 -17.17652,-5.725509 -41.64006,2.081999 -5.20501,-2.081999 h -10.41002 v 4.164009 c -18.73803,5.72551 -37.99656,9.36901 -58.29609,11.97152 -20.82003,2.6025 -41.64006,5.205 -62.46009,7.80751 l -2.08201,-2.08201 c -7.80751,1.56151 -15.61502,2.08201 -23.94303,2.08201 -8.32802,0 -15.61503,1.5615 -22.38154,4.6845 l -5.205,9.36902 h -3.64351 v 1.5615 l 22.38153,8.84851 2.08201,5.72551 z" />
  </g>
</svg>
