<?xml version="1.0" encoding="UTF-8" standalone="no"?>
<!-- Created with Inkscape (http://www.inkscape.org/) -->

<svg
   version="1.1"
   id="svg7902"
   width="500"
   height="500"
   viewBox="0 0 500 500"
   sodipodi:docname="f_to_image.svg"
   inkscape:version="1.2.2 (b0a8486541, 2022-12-01)"
   xmlns:inkscape="http://www.inkscape.org/namespaces/inkscape"
   xmlns:sodipodi="http://sodipodi.sourceforge.net/DTD/sodipodi-0.dtd"
   xmlns="http://www.w3.org/2000/svg"
   xmlns:svg="http://www.w3.org/2000/svg">
  <defs
     id="defs7906" />
  <sodipodi:namedview
     id="namedview7904"
     pagecolor="#ffffff"
     bordercolor="#666666"
     borderopacity="1.0"
     inkscape:showpageshadow="2"
     inkscape:pageopacity="0.0"
     inkscape:pagecheckerboard="0"
     inkscape:deskcolor="#d1d1d1"
     showgrid="false"
     inkscape:zoom="1.3222897"
     inkscape:cx="227.63544"
     inkscape:cy="219.31654"
     inkscape:window-width="1854"
     inkscape:window-height="1011"
     inkscape:window-x="66"
     inkscape:window-y="32"
     inkscape:window-maximized="1"
     inkscape:current-layer="g7908" />
  <g
     inkscape:groupmode="layer"
     inkscape:label="Image"
     id="g7908">
    <path
       d="M 253.42627,1.076354 51.632023,101.67003 -0.3362874,499.89895 499.66371,501.07635 451.51239,104.01079 Z"
       style="fill:#f0b53a;fill-opacity:1;fill-rule:evenodd;stroke:none;stroke-width:0.101199;stroke-linecap:butt;stroke-linejoin:miter;stroke-dasharray:none;stroke-opacity:1"
       id="path17654" />
  </g>
  <g
     inkscape:groupmode="layer"
     id="layer3"
     inkscape:label="trace">
    <path
       style="fill:#ff8484;fill-rule:evenodd;stroke:none;stroke-width:1px;stroke-linecap:butt;stroke-linejoin:miter;stroke-opacity:1;fill-opacity:1"
       d="m 222.7699,410.48642 c -0.0304,10.32899 1.73926,11.01147 1.73926,11.01147 l -5.71029,35.98885 -33.92539,7.70227 16.37953,15.66623 35.8301,-3.49139 2.49823,-7.85162 -7.70707,-14.51947 3.74711,-43.96633 z"
       id="path7934" />
    <path
       style="fill:#ff8484;fill-rule:evenodd;stroke:none;stroke-width:1px;stroke-linecap:butt;stroke-linejoin:miter;stroke-opacity:1;fill-opacity:1"
       d="m 267.43499,412.82636 0.74809,13.02414 1.81007,2.96608 -1.89066,33.6601 -30.6857,11.89322 v 4.04874 l 11.58175,13.10999 36.53878,-3.01594 2.60549,-6.32108 -9.17256,-20.27588 2.64693,-49.61225 z"
       id="path7936" />
    <path
       style="fill:#ffc6c6;fill-rule:evenodd;stroke:none;stroke-width:1px;stroke-linecap:butt;stroke-linejoin:miter;stroke-opacity:1;fill-opacity:1;opacity:1"
       d="m 171.44118,255.50638 c -8.73487,4.14923 -11.83921,15.32657 -17.03768,23.4807 -4.27315,6.7027 -8.85541,13.37766 -11.58752,20.84235 -2.11419,5.77639 -2.69561,12.01648 -3.56325,18.10612 -1.12629,7.90502 -2.79009,15.90339 -2.12285,23.86032 0.62154,7.41202 2.28055,14.95624 5.65146,21.58657 3.54004,6.963 9.26295,12.66268 14.81942,18.15276 5.23635,5.17378 10.89493,10.08473 17.27357,13.75901 7.95127,4.58016 16.84534,7.40122 25.63949,10.02105 3.92185,1.16834 8.27761,0.85194 12.01578,2.51689 3.79547,1.69047 6.27624,5.6436 10.06045,7.35911 4.32801,1.96204 9.23782,3.95627 13.91326,3.10687 5.51477,-1.00189 8.49426,-8.66334 14.07328,-9.20278 5.64178,-0.54551 10.25187,5.03347 15.75096,6.40725 4.41143,1.10206 9.14339,2.4528 13.56832,1.40627 5.14963,-1.21793 8.19825,-7.48524 13.38443,-8.53668 7.01305,-1.42182 14.01083,3.49657 21.16604,3.5832 5.81249,0.0704 11.54314,-1.43869 17.25952,-2.49367 4.45696,-0.82255 8.75048,-3.39353 13.26446,-2.98726 7.42716,0.66847 13.13985,8.82061 20.59652,8.73321 2.5588,-0.03 4.45268,-3.44752 6.99564,-3.16169 2.55267,0.28692 3.60917,4.22883 6.14257,4.65349 5.65622,0.94812 14.89715,0.19767 16.35257,-5.34972 2.4298,-9.26131 -12.47826,-14.56747 -19.3995,-21.18352 -45.10344,-43.11462 -110.05383,-67.46202 -143.60293,-120.07047 -2.10588,-3.30224 0.006,-8.88005 -3.03161,-11.35188 -14.91211,-12.13294 -40.21752,-11.48615 -57.5824,-3.2375 z"
       id="path7938"
       sodipodi:nodetypes="sssssssssssssssssssssssssss" />
    <path
       style="opacity:1;fill:#fc0000;fill-opacity:1;fill-rule:evenodd;stroke:none;stroke-width:1px;stroke-linecap:butt;stroke-linejoin:miter;stroke-opacity:1"
       d="m 229.85614,246.53701 c -0.38744,4.113 -1.86952,8.19422 -1.47029,12.30609 0.51962,5.35177 7.02815,10.38669 4.95912,15.34961 -1.37969,3.30943 -6.05199,5.38421 -9.5983,4.85546 -4.19659,-0.62571 -5.10485,-7.65633 -9.18819,-8.80927 -1.92717,-0.54414 -3.9388,1.80331 -5.87055,1.27566 -2.45519,-0.67063 -3.14515,-4.52107 -5.60101,-5.18923 -2.0229,-0.55037 -4.08808,1.7621 -6.14317,1.34781 -2.86402,-0.57737 -4.30843,-4.43481 -7.16486,-5.04862 -3.51271,-0.75483 -7.01901,2.49031 -10.58369,2.04092 -4.5183,-0.56961 -11.49461,-1.36307 -12.35325,-5.83545 -0.83161,-4.3316 6.62387,-5.97804 9.02077,-9.68063 2.45799,-3.79695 3.68969,-8.26607 5.27044,-12.50397 1.63363,-4.37965 3.5324,-8.72966 4.34644,-13.33264 0.63618,-3.59731 0.5185,-7.30208 0.38288,-10.95269 -0.18284,-4.92188 -0.52657,-9.88325 -1.61041,-14.68779 -0.66413,-2.94402 -1.00118,-6.26704 -2.97273,-8.55205 -2.85424,-3.30804 -7.45636,-4.73683 -11.61689,-6.07091 -2.52865,-0.81082 -5.36381,-0.28411 -7.88953,-1.104 -5.22795,-1.69709 -11.02713,-3.5305 -14.55898,-7.7421 -9.09352,-10.84367 -13.44349,-26.23715 -13.09802,-40.38487 0.0767,-3.14054 1.74872,-6.10443 3.34161,-8.81212 2.26603,-3.85191 5.21867,-7.37944 8.64803,-10.24503 3.55208,-2.96813 7.66702,-5.3955 12.03446,-6.92929 4.55463,-1.59952 9.48657,-2.10143 14.31273,-2.20764 4.85215,-0.10678 9.77416,0.37154 14.47351,1.58431 4.23714,1.09348 8.33196,2.85944 12.11148,5.06496 2.71036,1.58161 4.86679,3.97155 7.43503,5.77479 1.92002,1.34811 4.37769,2.01929 5.94829,3.76201 2.24962,2.49615 2.84528,6.09463 4.47663,9.03236 1.49989,2.701 3.35607,5.19265 4.87362,7.88377 1.8102,3.21009 3.63154,6.43487 5.03896,9.84084 1.87236,4.53113 3.39854,9.2261 4.49338,14.00503 0.80708,3.52285 1.16156,7.13929 1.51253,10.73632 0.68694,7.04025 1.23193,14.11618 1.15748,21.18947 -0.0281,2.67094 -0.36811,5.32983 -0.6054,7.99035 -0.41725,4.67828 -1.03714,9.33727 -1.43874,14.01692 -0.85797,9.99762 -1.13232,20.04148 -2.07338,30.03162 z"
       id="path7942"
       sodipodi:nodetypes="ssssssssssssssssssssssssssssssssssssss" />
    <path
       style="fill:#ff0000;fill-opacity:1;fill-rule:evenodd;stroke:none;stroke-width:1px;stroke-linecap:butt;stroke-linejoin:miter;stroke-opacity:1;opacity:1"
       d="m 221.41434,278.1559 c -2.83557,2.63979 -6.41825,4.91401 -7.96108,8.46769 -2.12872,4.9032 -0.98529,10.65748 -1.03548,16.0026 -0.0504,5.37141 -0.35276,10.83836 0.73842,16.098 1.6818,8.10651 4.88276,15.93655 8.82587,23.21637 2.46799,4.55644 5.86841,8.55754 9.15283,12.56562 4.74017,5.78459 9.41862,11.75418 15.18526,16.51617 6.33672,5.23275 13.8742,8.81976 20.97714,12.95303 5.04282,2.93446 10.13006,5.80538 15.35358,8.40458 5.30016,2.63733 10.50282,5.66707 16.1978,7.284 3.61656,1.02682 7.44784,1.90273 11.18233,1.46976 2.5501,-0.29566 7.20369,-2.72412 7.20369,-2.72412 0,0 7.4146,3.8232 11.46752,4.4196 3.30005,0.48562 6.72413,-0.0231 9.97815,-0.75627 2.84635,-0.6413 6.33923,-0.87225 8.16845,-3.14534 1.04379,-1.29708 0.75626,-4.93713 0.75626,-4.93713 0,0 6.66778,1.97725 9.98433,3.02203 4.12062,1.29809 8.0843,3.16895 12.3172,4.03332 2.74693,0.56093 6.2076,2.49885 8.37946,0.72592 1.90728,-1.55696 1.45189,-4.95028 0.84867,-7.33732 -0.28476,-1.12684 -1.99804,-2.85755 -1.99804,-2.85755 0,0 7.13638,0.76953 10.63528,0.19539 3.38777,-0.55591 9.69702,-3.47014 9.69702,-3.47014 0,0 -6.58032,-9.8893 -10.21111,-14.58317 -11.33694,-14.65637 -23.56933,-28.61841 -36.06118,-42.30376 -5.28239,-5.78708 -10.47346,-11.71961 -16.42702,-16.81363 -10.89329,-9.3206 -22.95078,-17.23471 -35.04275,-24.93677 -8.56127,-5.45316 -17.09858,-11.16707 -26.48925,-15.02031 -7.12211,-2.92239 -14.63064,-5.35136 -22.30141,-6.00259 -6.72334,-0.5708 -13.90893,-0.66413 -20.1541,1.89066 -3.72619,1.52432 -6.42118,4.88015 -9.36784,7.62336 z"
       id="path7940"
       sodipodi:nodetypes="ssssssssssscssscsssscscssssssss" />
    <path
       style="fill:#ffc6c6;fill-rule:evenodd;stroke:none;stroke-width:1px;stroke-linecap:butt;stroke-linejoin:miter;stroke-opacity:1;fill-opacity:1"
       d="m 171.03937,183.45439 8.50543,-10.03318 6.33223,-18.53104 5.85922,-19.0054 15.49567,3.25934 3.80572,6.94494 1.50308,17.49362 -11.07162,12.5378 -20.75208,12.19901 z"
       id="path7944" />
    <path
       style="fill:#ff7474;fill-rule:evenodd;stroke:none;stroke-width:1px;stroke-linecap:butt;stroke-linejoin:miter;stroke-opacity:1;fill-opacity:1"
       d="m 131.60097,135.87878 -16.00431,24.75192 -16.901054,14.09342 5.465284,3.14756 41.78102,-4.21502 15.44479,-5.8595 1.83813,-3.63721 -6.59011,-5.04591 -11.07249,-7.52046 -5.14751,-15.83293 z"
       id="path7946" />
    <ellipse
       style="opacity:1;fill:#ffffff;fill-opacity:1;stroke:none;stroke-width:1;stroke-linecap:round;stroke-dasharray:none;stroke-opacity:1"
       id="path8000"
       cx="169.10049"
       cy="142.06978"
       rx="7.6509295"
       ry="7.1311016" />
    <ellipse
       style="opacity:1;fill:#ff0000;fill-opacity:1;stroke:none;stroke-width:1;stroke-linecap:round;stroke-dasharray:none;stroke-opacity:1"
       id="path9198"
       cx="168.97557"
       cy="141.4137"
       rx="4.4510765"
       ry="3.7854452" />
  </g>
</svg>
