<?xml version="1.0" encoding="UTF-8" standalone="no"?>
<!-- Created with Inkscape (http://www.inkscape.org/) -->

<svg
   xmlns:dc="http://purl.org/dc/elements/1.1/"
   xmlns:cc="http://creativecommons.org/ns#"
   xmlns:rdf="http://www.w3.org/1999/02/22-rdf-syntax-ns#"
   xmlns:svg="http://www.w3.org/2000/svg"
   xmlns="http://www.w3.org/2000/svg"
   xmlns:sodipodi="http://sodipodi.sourceforge.net/DTD/sodipodi-0.dtd"
   xmlns:inkscape="http://www.inkscape.org/namespaces/inkscape"
   width="32px"
   height="32px"
   id="svg3075"
   version="1.1"
   inkscape:version="0.48.4 r9939"
   sodipodi:docname="arrow.svg"
   inkscape:export-filename="/home/naga/temp/arrow.png"
   inkscape:export-xdpi="90"
   inkscape:export-ydpi="90">
  <defs
     id="defs3077" />
  <sodipodi:namedview
     id="base"
     pagecolor="#ffffff"
     bordercolor="#666666"
     borderopacity="1.0"
     inkscape:pageopacity="0"
     inkscape:pageshadow="2"
     inkscape:zoom="11.197802"
     inkscape:cx="5.3282628"
     inkscape:cy="16"
     inkscape:current-layer="layer1"
     showgrid="true"
     inkscape:grid-bbox="true"
     inkscape:document-units="px"
     inkscape:window-width="991"
     inkscape:window-height="843"
     inkscape:window-x="83"
     inkscape:window-y="200"
     inkscape:window-maximized="0"
     borderlayer="false" />
  <metadata
     id="metadata3080">
    <rdf:RDF>
      <cc:Work
         rdf:about="">
        <dc:format>image/svg+xml</dc:format>
        <dc:type
           rdf:resource="http://purl.org/dc/dcmitype/StillImage" />
        <dc:title></dc:title>
      </cc:Work>
    </rdf:RDF>
  </metadata>
  <g
     id="layer1"
     inkscape:label="Layer 1"
     inkscape:groupmode="layer">
    <path
       sodipodi:type="arc"
       style="fill:none;stroke:#696969;stroke-width:0.30000000999999998;stroke-linecap:round;stroke-miterlimit:4;stroke-opacity:1;stroke-dasharray:none"
       id="path3093"
       sodipodi:cx="16.074583"
       sodipodi:cy="16.104023"
       sodipodi:rx="15.806673"
       sodipodi:ry="15.895977"
       d="m 31.881256,16.104023 a 15.806673,15.895977 0 1 1 -31.613346,0 15.806673,15.895977 0 1 1 31.613346,0 z"
       inkscape:export-filename="/home/naga/temp/arrow.png"
       inkscape:export-xdpi="90"
       inkscape:export-ydpi="90" />
    <path
       style="fill:none;stroke:#000000;stroke-width:1px;stroke-linecap:butt;stroke-linejoin:miter;stroke-opacity:1"
       d="m 13.306183,31.642787 0,-24.915604 -7.2335627,3.30422 9.4661437,-9.64474998 9.019627,8.93032398 -6.787047,-2.589794 0.178607,25.094211 z"
       id="path3095"
       inkscape:connector-curvature="0"
       sodipodi:nodetypes="cccccccc"
       inkscape:export-filename="/home/naga/temp/arrow.png"
       inkscape:export-xdpi="90"
       inkscape:export-ydpi="90" />
    <path
       style="fill:none;stroke:#696969;stroke-width:0.02679097000000000;stroke-linecap:round;stroke-miterlimit:4;stroke-opacity:1;stroke-dasharray:none"
       d="M 11.990285,31.231732 C 7.1131376,29.928269 3.1021242,26.187756 1.3739983,21.331403 0.36425806,18.493847 0.21876434,15.223884 0.96872999,12.22302 2.3450749,6.7158041 6.7437043,2.3052153 12.258194,0.90286134 13.157554,0.67415103 14.521805,0.43570806 14.582686,0.4965883 14.609326,0.523228 11.119721,4.1147037 6.4289091,8.8883943 L 5.6684743,9.6622651 5.9270242,10.071503 c 0.1422023,0.22508 0.3111665,0.409309 0.3754758,0.409397 0.064309,8.8e-5 1.526478,-0.6441113 3.249264,-1.4315546 1.722785,-0.7874429 3.147169,-1.4168836 3.165295,-1.398757 0.01813,0.018127 0.02276,5.3742596 0.0103,11.9025196 L 12.70471,31.42267 11.990285,31.231732 z"
       id="path3097"
       inkscape:connector-curvature="0"
       inkscape:export-filename="/home/naga/temp/arrow.png"
       inkscape:export-xdpi="90"
       inkscape:export-ydpi="90" />
    <path
       style="fill:none;stroke:#696969;stroke-width:0.02679097000000000;stroke-linecap:round;stroke-miterlimit:4;stroke-opacity:1;stroke-dasharray:none"
       d="m 18.455973,27.471001 c -0.0048,-2.247093 -0.03697,-7.642125 -0.07141,-11.98896 -0.03444,-4.346835 -0.05712,-7.9135304 -0.05041,-7.9259896 0.0089,-0.016603 4.331095,1.6185446 5.935332,2.2454429 0.09138,0.035711 0.225048,-0.087165 0.420602,-0.3866607 l 0.286647,-0.4390084 -4.304357,-4.2864869 -4.304356,-4.28648688 0.579535,0.0417004 c 0.995331,0.0716191 1.975484,0.22370063 2.873111,0.44579522 4.471665,1.10639786 8.208561,4.14969246 10.271236,8.36480076 1.072816,2.1923182 1.536468,4.2600142 1.536468,6.8520162 0,2.083666 -0.26068,3.612311 -0.925228,5.425595 -1.375274,3.752569 -4.317932,6.996195 -7.905904,8.714502 -1.309906,0.627323 -3.447168,1.309363 -4.103064,1.309363 l -0.229401,0 -0.0088,-4.085623 0,0 z"
       id="path3101"
       inkscape:connector-curvature="0"
       inkscape:export-filename="/home/naga/temp/arrow.png"
       inkscape:export-xdpi="90"
       inkscape:export-ydpi="90" />
    <path
       style="fill:none;stroke:#696969;stroke-width:0.02679097000000000;stroke-linecap:round;stroke-miterlimit:4;stroke-opacity:1;stroke-dasharray:none"
       d=""
       id="path3122"
       inkscape:connector-curvature="0"
       inkscape:export-filename="/home/naga/temp/arrow.png"
       inkscape:export-xdpi="90"
       inkscape:export-ydpi="90" />
    <path
       style="fill:none;stroke:#696969;stroke-width:0.02679097000000000;stroke-linecap:round;stroke-miterlimit:4;stroke-opacity:1;stroke-dasharray:none"
       d="m 18.48263,31.774268 c 0,-0.07828 0.08948,-0.12834 0.2294,-0.12834 0.647857,0 3.13868,-0.791883 4.280414,-1.360829 3.184721,-1.587003 5.857434,-4.344261 7.31191,-7.543201 1.91917,-4.220983 1.934032,-8.978354 0.04123,-13.1985223 C 28.687044,5.845515 25.41015,2.7547053 21.666891,1.357517 20.166614,0.79753202 18.96412,0.53403026 17.23629,0.38664187 16.673595,0.33864252 16.173273,0.25943589 16.124464,0.21062712 15.897228,-0.0166092 18.510699,0.2381935 19.86683,0.57549249 24.967616,1.8441673 29.14868,5.6102014 30.994596,10.598671 c 0.286627,0.77459 0.625823,2.074288 0.808337,3.097305 0.158807,0.89013 0.158807,3.932245 0,4.822375 -0.643094,3.604626 -2.084268,6.439266 -4.514535,8.879617 -2.085521,2.094176 -4.41472,3.432407 -7.287613,4.187066 -1.170351,0.30743 -1.518155,0.350783 -1.518155,0.189234 z"
       id="path3124"
       inkscape:connector-curvature="0"
       inkscape:export-filename="/home/naga/temp/arrow.png"
       inkscape:export-xdpi="90"
       inkscape:export-ydpi="90" />
    <path
       style="fill:none;stroke:#696969;stroke-width:0.02679097000000000;stroke-linecap:round;stroke-miterlimit:4;stroke-opacity:1;stroke-dasharray:none"
       d=""
       id="path3126"
       inkscape:connector-curvature="0"
       inkscape:export-filename="/home/naga/temp/arrow.png"
       inkscape:export-xdpi="90"
       inkscape:export-ydpi="90" />
    <path
       style="fill:none;stroke:#696969;stroke-width:0.02679097000000000;stroke-linecap:round;stroke-miterlimit:4;stroke-opacity:1;stroke-dasharray:none"
       d=""
       id="path3128"
       inkscape:connector-curvature="0"
       inkscape:export-filename="/home/naga/temp/arrow.png"
       inkscape:export-xdpi="90"
       inkscape:export-ydpi="90" />
    <path
       style="fill:none;stroke:#696969;stroke-width:0.02679097000000000;stroke-linecap:round;stroke-miterlimit:4;stroke-opacity:1;stroke-dasharray:none"
       d="m 12.463592,31.314039 c -0.09823,-0.02379 -0.654181,-0.201331 -1.23544,-0.39453 C 7.4123301,29.651202 4.2167582,26.920735 2.323414,23.310824 0.0553263,18.986415 -0.02728195,13.781534 2.1017558,9.3448507 4.2192445,4.932234 8.2477433,1.8000425 13.105586,0.78927978 13.685708,0.66857496 14.21718,0.56949778 14.286633,0.56910829 14.437942,0.56825976 14.127942,0.89798865 9.9213892,5.2121686 5.2147883,10.039191 5.5934513,9.6121526 5.7510976,9.9152318 5.8235523,10.054529 5.9770712,10.255185 6.0922508,10.361136 L 6.3016681,10.553774 9.494259,9.1445244 12.68685,7.735275 l 0,11.821371 c 0,6.501755 -0.01005,11.81671 -0.02233,11.811013 -0.01228,-0.0057 -0.102699,-0.02983 -0.200932,-0.05362 l 0,0 z"
       id="path3130"
       inkscape:connector-curvature="0"
       inkscape:export-filename="/home/naga/temp/arrow.png"
       inkscape:export-xdpi="90"
       inkscape:export-ydpi="90" />
    <path
       style="fill:none;stroke:#696969;stroke-width:0.02679097000000000;stroke-linecap:round;stroke-miterlimit:4;stroke-opacity:1;stroke-dasharray:none"
       d="m 18.49156,26.257832 c 0,-2.865219 -0.02668,-8.227542 -0.05929,-11.916274 l -0.05929,-6.7067845 2.358847,0.8962724 c 1.297366,0.4929499 2.650747,1.0027306 3.007514,1.1328455 l 0.648667,0.2365741 0.216554,-0.2678481 C 24.72367,9.485301 24.871645,9.272332 24.933398,9.1593531 25.040548,8.963321 24.852113,8.7600063 20.808609,4.7088587 l -4.237068,-4.24507821 0.580471,0.0575885 c 2.246586,0.22288363 4.046247,0.72767051 5.895202,1.65354501 4.141942,2.0740995 7.216817,6.0854473 8.232489,10.739746 0.176436,0.808509 0.200068,1.175692 0.202606,3.147852 0.0032,2.507656 -0.107922,3.287854 -0.723622,5.0794 -0.779408,2.267898 -1.973064,4.139257 -3.826925,5.999673 -1.423272,1.428306 -2.557301,2.246797 -4.191562,3.025284 -1.451973,0.691653 -3.304236,1.300452 -3.956609,1.300452 l -0.292031,0 0,-5.209489 z"
       id="path3132"
       inkscape:connector-curvature="0"
       inkscape:export-filename="/home/naga/temp/arrow.png"
       inkscape:export-xdpi="90"
       inkscape:export-ydpi="90" />
    <path
       style="fill:none;stroke:#696969;stroke-width:0.02679097;stroke-linecap:round;stroke-miterlimit:4;stroke-opacity:1;stroke-dasharray:none"
       d="m 18.573739,28.765898 c -0.0039,-1.436666 -0.03755,-6.751325 -0.07473,-11.810353 -0.03718,-5.059029 -0.06412,-9.2042797 -0.05985,-9.2116689 0.0043,-0.00739 1.313814,0.483429 2.910109,1.090707 1.596295,0.6072781 2.950658,1.105608 3.009694,1.1073994 0.136529,0.00414 0.651739,-0.7383912 0.651739,-0.9393038 0,-0.083217 -1.856145,-2.0149732 -4.124767,-4.2927912 -3.058387,-3.0707842 -4.074092,-4.14148738 -3.928755,-4.14148738 0.916289,0 3.404487,0.56110828 4.600953,1.03755138 2.182489,0.869086 3.545744,1.7459634 5.181206,3.3326722 2.241884,2.1750533 3.666115,4.6884631 4.456341,7.8643203 0.168124,0.675675 0.189391,1.024003 0.193561,3.170265 0.0052,2.698623 -0.05896,3.203255 -0.625021,4.912861 -0.780734,2.357948 -1.813272,4.025941 -3.696583,5.971569 -1.667525,1.722702 -3.074937,2.709111 -5.07433,3.556429 -1.179818,0.499993 -2.677404,0.96395 -3.11149,0.96395 l -0.300948,0 -0.0071,-2.61212 z"
       id="path3134"
       inkscape:connector-curvature="0"
       inkscape:export-filename="/home/naga/temp/arrow.png"
       inkscape:export-xdpi="90"
       inkscape:export-ydpi="90" />
    <path
       style="fill:none;stroke:#696969;stroke-width:0.02679097;stroke-linecap:round;stroke-miterlimit:4;stroke-opacity:1;stroke-dasharray:none"
       d="M 11.347301,30.882418 C 8.7425411,29.955353 6.8515527,28.765737 5.0908197,26.946483 2.3168948,24.080361 0.81931684,20.642303 0.65735767,16.76838 0.51774945,13.429074 1.4251157,10.222038 3.2980606,7.4349608 5.2183623,4.5774139 8.0884519,2.4075803 11.369581,1.3327618 12.346986,1.012588 14.027666,0.62920297 14.106824,0.70836115 14.130952,0.73248953 13.865966,1.0424073 13.517966,1.3970673 9.8611962,5.1238137 5.7036693,9.4938767 5.6636342,9.6529178 c -0.056253,0.2234653 0.4290995,0.9174452 0.6416379,0.9174452 0.067403,0 1.4871011,-0.6027969 3.1548846,-1.3395486 1.6677843,-0.7367517 3.0559723,-1.3395486 3.0848623,-1.3395486 0.02889,0 0.05253,5.2644262 0.05253,11.6987242 0,6.434299 -0.03014,11.6967 -0.06698,11.694226 -0.03684,-0.0025 -0.569308,-0.183283 -1.183268,-0.401798 z"
       id="path3136"
       inkscape:connector-curvature="0"
       inkscape:export-filename="/home/naga/temp/arrow.png"
       inkscape:export-xdpi="90"
       inkscape:export-ydpi="90" />
    <path
       style="fill:#ff0000;stroke:#696969;stroke-width:0.02679097;stroke-linecap:round;stroke-miterlimit:4;stroke-opacity:1;stroke-dasharray:none"
       d="m 15.767812,31.195119 c -0.736752,-0.03407 -1.470155,-0.06714 -1.629785,-0.07348 l -0.290235,-0.01153 0,-12.597775 c 0,-12.2836795 -0.0042,-12.5964474 -0.167687,-12.5445526 -0.09223,0.029272 -1.218224,0.5343107 -2.502214,1.1223084 -1.2839899,0.5879977 -2.3602148,1.0690867 -2.3916107,1.0690867 -0.08203,0 0.7129139,-0.8291907 3.9294747,-4.0987614 l 2.846261,-2.8931678 3.251181,3.250266 c 1.78815,1.7876463 3.217798,3.2613935 3.176997,3.2749939 -0.0408,0.0136 -0.874824,-0.2811198 -1.853386,-0.6549336 C 19.158247,6.6637587 18.101294,6.2607287 17.788024,6.1419502 l -0.569582,-0.2159611 0.05649,8.7743459 c 0.03107,4.82589 0.08148,10.532504 0.112017,12.681363 0.05379,3.785048 0.0503,3.906523 -0.112032,3.891195 -0.09216,-0.0087 -0.770355,-0.0437 -1.507106,-0.07777 z"
       id="path3187"
       inkscape:connector-curvature="0" />
    <path
       style="fill:#ff0000;stroke:#696969;stroke-width:0.02679097;stroke-linecap:round;stroke-miterlimit:4;stroke-opacity:1;stroke-dasharray:none"
       d="m 15.321295,32.177454 c -0.736751,-0.03407 -1.590714,-0.06714 -1.897693,-0.07348 l -0.558146,-0.01153 0,-12.333402 c 0,-9.8316239 -0.02264,-12.3241065 -0.111629,-12.2875794 -0.0614,0.025202 -1.525612,0.6925782 -3.2538136,1.4830583 -1.7282017,0.7904792 -3.1594022,1.4372361 -3.1804455,1.4372361 -0.021043,0 -0.1510621,-0.162773 -0.2889303,-0.361717 L 5.779968,9.6683235 7.7861812,7.6411785 C 8.8895984,6.5262485 11.08902,4.2926682 12.673784,2.6776667 l 2.881389,-2.93636649 4.634366,4.62627689 4.634367,4.6262765 -0.152188,0.2593018 c -0.0837,0.1426155 -0.201644,0.3006724 -0.26209,0.3512386 -0.07871,0.065847 -0.947103,-0.2275411 -3.060068,-1.0338535 -1.622593,-0.619185 -2.994424,-1.1257909 -3.048513,-1.1257909 -0.07108,0 -0.08313,1.4050302 -0.04345,5.0679584 0.03019,2.787378 0.0799,8.373296 0.110462,12.413151 l 0.05557,7.345191 -0.881392,-0.01582 c -0.484765,-0.0087 -1.484188,-0.0437 -2.22094,-0.07777 z m 2.15472,-4.572498 c -0.0304,-2.075184 -0.08064,-7.765888 -0.111627,-12.646009 -0.05494,-8.6513953 -0.05216,-8.8715908 0.111222,-8.8185955 0.09216,0.029894 1.252604,0.4701987 2.578757,0.9784552 1.326153,0.5082566 2.4295,0.9085078 2.451883,0.889447 0.05047,-0.042984 -6.16258,-6.2757777 -6.634343,-6.6554195 l -0.34242,-0.2755557 -1.115009,1.1074352 c -1.929869,1.9167615 -6.1305918,6.2451477 -6.0939354,6.2791355 0.019305,0.0179 1.2136283,-0.5059454 2.6540514,-1.1640998 1.440424,-0.6581545 2.656064,-1.173708 2.701423,-1.1456744 0.04979,0.030772 0.08247,5.003204 0.08247,12.548154 l 0,12.497182 0.334887,0.01153 c 0.524954,0.01807 2.990291,0.133665 3.22595,0.151255 l 0.211966,0.01582 -0.05528,-3.773062 z"
       id="path3189"
       inkscape:connector-curvature="0"
       inkscape:export-xdpi="90"
       inkscape:export-ydpi="90"
       inkscape:export-filename="/home/naga/temp/arrow.png" />
  </g>
</svg>
